<?xml version="1.0" encoding="utf-8"?>
<!-- Generator: Adobe Illustrator 26.5.0, SVG Export Plug-In . SVG Version: 6.00 Build 0)  -->
<svg version="1.1" id="Layer_1" xmlns="http://www.w3.org/2000/svg" xmlns:xlink="http://www.w3.org/1999/xlink" x="0px" y="0px"
	 viewBox="0 0 500 186.6" style="enable-background:new 0 0 500 186.6;" xml:space="preserve">
<style type="text/css">
	.st0{fill:#12100B;}
</style>
<g>
	<g>
		<g>
			<path class="st0" d="M41.9,146.9c-1.2-4.2-3.1-7.4-5.9-9.7c-2.8-2.3-6.3-3.5-10.6-3.5c-3.3,0-6.1,0.6-8.4,2s-4.3,3.2-5.8,5.4
				c-1.5,2.2-2.7,4.8-3.3,7.6c-0.7,2.9-1.1,5.7-1.1,8.5c0,2.9,0.3,5.8,1.1,8.5c0.6,2.8,1.8,5.3,3.3,7.5c1.5,2.2,3.4,3.9,5.8,5.3
				c2.3,1.3,5.2,2,8.5,2c4.8,0,8.6-1.3,11.5-3.9c2.9-2.7,4.7-6.3,5.5-10.9h6.8c-0.5,3.1-1.5,5.9-2.8,8.4c-1.3,2.5-2.9,4.7-4.8,6.5
				c-1.9,1.8-4.3,3.2-7,4.3c-2.7,1-5.9,1.5-9.3,1.5c-4.4,0-8.2-0.7-11.4-2.2c-3.2-1.5-5.9-3.5-7.9-6.2c-2-2.6-3.6-5.7-4.6-9.3
				c-1-3.6-1.5-7.4-1.5-11.4c0-3.8,0.5-7.6,1.6-11.1s2.8-6.6,4.9-9.4c2.1-2.7,4.8-4.9,8-6.5s6.8-2.5,11-2.5c6.4,0,11.6,1.5,15.6,4.6
				c4,3.1,6.4,7.9,7.5,14.3h-6.8L41.9,146.9L41.9,146.9z"/>
		</g>
		<g>
			<path class="st0" d="M92.4,129.5h6.4V185h-6.4v-7.7c-0.9,1-1.8,2-2.9,3.1c-1.1,1.1-2.2,2-3.7,3c-1.4,0.9-3,1.6-4.9,2.2
				c-1.9,0.6-4.1,1-6.4,1c-3.7,0-6.8-0.5-9.3-1.5c-2.5-1.1-4.5-2.5-6.1-4.4c-1.5-1.8-2.7-4.1-3.3-6.5c-0.6-2.5-1.1-5.1-1.1-8.1
				v-36.6h6.4v36.4c0,4.8,1.1,8.4,3.3,11c2.2,2.6,5.9,3.8,10.9,3.8c2.7,0,5-0.5,7.1-1.6s3.8-2.5,5.3-4.4c1.4-1.8,2.6-4.1,3.3-6.6
				c0.7-2.6,1.2-5.3,1.2-8.4v-30.2L92.4,129.5L92.4,129.5z"/>
		</g>
		<g>
			<path class="st0" d="M108.2,185v-77h6.4v77H108.2z"/>
		</g>
		<g>
			<path class="st0" d="M146.8,185.2c-0.7,0.1-1.8,0.4-3.1,0.7c-1.3,0.3-2.7,0.5-4.3,0.5c-3.2,0-5.7-0.9-7.4-2.5
				c-1.7-1.6-2.6-4.5-2.6-8.6v-40.5h-7.8v-5.3h7.8v-15.4h6.4v15.4h10.3v5.3h-10.3v38c0,1.4,0,2.6,0.1,3.5c0.1,0.9,0.3,1.8,0.6,2.5
				c0.3,0.6,1,1.1,1.7,1.4s1.8,0.4,3.2,0.4c0.9,0,1.7-0.1,2.7-0.2c0.9-0.1,1.8-0.3,2.7-0.5L146.8,185.2L146.8,185.2L146.8,185.2z"/>
		</g>
		<g>
			<path class="st0" d="M191.2,129.5h6.4V185h-6.4v-7.7c-0.9,1-1.8,2-2.9,3.1c-1.1,1.1-2.3,2-3.7,3c-1.4,0.9-3,1.6-4.9,2.2
				c-1.8,0.6-3.9,1-6.4,1c-3.7,0-6.8-0.5-9.3-1.5c-2.5-1.1-4.5-2.5-6.1-4.4c-1.5-1.8-2.7-4.1-3.3-6.5c-0.6-2.5-1.1-5.1-1.1-8.1
				v-36.6h6.4v36.4c0,4.8,1.1,8.4,3.3,11c2.2,2.6,5.9,3.8,10.9,3.8c2.7,0,5-0.5,7.1-1.6s3.8-2.5,5.3-4.4c1.4-1.8,2.6-4.1,3.3-6.6
				c0.7-2.6,1.2-5.3,1.2-8.4v-30.2L191.2,129.5L191.2,129.5z"/>
		</g>
		<g>
			<path class="st0" d="M212.9,185h-6.4v-55.5h6.4v10.3h0.2c1.8-4.4,4.1-7.5,6.9-9.3c2.8-1.7,6.5-2.7,11.2-2.7v6.9
				c-3.6-0.1-6.6,0.5-9,1.7c-2.3,1.2-4.3,2.9-5.7,4.9c-1.4,2-2.3,4.5-2.9,7.4c-0.5,2.8-0.9,5.8-0.9,8.9V185H212.9z"/>
		</g>
		<g>
			<path class="st0" d="M260.7,152.7c1.2-0.1,2.7-0.3,4.4-0.6c1.7-0.3,3.1-0.6,4.2-1.2c1.1-0.5,1.7-1.4,2-2.6
				c0.2-1.2,0.3-2.2,0.3-3.3c0-3.3-1.1-6-3.2-8.1c-2.1-2.1-5.7-3.2-10.7-3.2c-2.2,0-4.3,0.2-6.1,0.6c-1.8,0.4-3.5,1.1-4.9,2
				c-1.4,0.9-2.6,2.2-3.4,3.8s-1.5,3.6-1.8,6.1H235c0.2-3.3,1-6.1,2.2-8.4c1.3-2.3,3-4.3,5-5.7c2-1.5,4.4-2.6,7-3.2
				c2.7-0.6,5.5-1.1,8.5-1.1c2.8,0,5.4,0.3,7.9,1c2.5,0.6,4.6,1.6,6.4,2.9c1.8,1.3,3.2,3.1,4.3,5.3c1.1,2.2,1.6,4.9,1.6,8.1v30.2
				c0,2.5,0.4,4.1,1.3,4.8c0.9,0.6,2.7,0.5,5.4-0.4v5c-0.5,0.1-1.2,0.3-2.2,0.6c-1,0.3-1.9,0.4-2.9,0.4s-1.9-0.1-2.9-0.3
				c-1.1-0.1-1.9-0.5-2.6-1.1c-0.6-0.5-1.2-1.2-1.6-1.9c-0.4-0.7-0.6-1.6-0.7-2.5c-0.1-0.9-0.2-1.8-0.2-2.9c-2.7,3-5.9,5.3-9.3,6.8
				c-3.5,1.6-7.3,2.3-11.3,2.3c-2.5,0-4.8-0.3-7-1c-2.2-0.6-4.3-1.6-6-3c-1.7-1.4-3.1-3-4.1-5c-1-1.9-1.5-4.3-1.5-7
				c0-9.4,6.5-14.9,19.4-16.6L260.7,152.7z M271.4,155.9c-2.7,1.2-5.4,1.9-8.2,2.2c-2.8,0.3-5.5,0.6-8.3,0.9
				c-4.9,0.3-8.7,1.5-11.5,3.3c-2.8,1.8-4.2,4.7-4.2,8.4c0,1.7,0.3,3.2,1.1,4.5c0.6,1.3,1.6,2.2,2.7,3.1c1.1,0.9,2.3,1.4,3.8,1.8
				c1.5,0.4,3,0.6,4.5,0.6c2.6,0,5-0.3,7.5-1c2.5-0.6,4.6-1.6,6.5-3c1.9-1.3,3.4-3,4.6-5c1.2-2,1.7-4.5,1.7-7.3v-8.6L271.4,155.9
				L271.4,155.9z"/>
		</g>
		<g>
			<path class="st0" d="M290.7,129.5h11.8v34.1c0,3.8,0.4,6.6,1.4,8.4c1.4,3.1,4.5,4.7,9.2,4.7s7.7-1.6,9.2-4.7
				c0.9-1.8,1.4-4.6,1.4-8.4v-34.1h11.6v34.1c0,5.9-1,10.6-2.8,13.8c-3.4,6.1-9.9,9.1-19.5,9.1c-9.6,0-16.1-3-19.6-9.1
				c-1.8-3.3-2.8-7.9-2.8-13.8L290.7,129.5L290.7,129.5z"/>
			<path class="st0" d="M341.9,129.5h12.2l22.1,38.8v-38.8h10.8v55.6h-11.6l-22.6-39.5v39.5h-10.9V129.5L341.9,129.5z"/>
			<path class="st0" d="M410.4,129.5h13.1l19.7,55.6h-12.6l-3.6-11.4h-20.5l-3.7,11.4h-12.2L410.4,129.5z M409.7,164.1H424l-7-21.9
				L409.7,164.1z"/>
			<path class="st0" d="M483.3,129.5H500v55.6h-10.9v-37.6c0-1.1,0-2.6,0-4.6c0-1.9,0-3.4,0-4.5L478.5,185h-11.3l-10.5-46.6
				c0,1.1,0,2.6,0,4.5c0,1.9,0,3.4,0,4.6v37.6H446v-55.6h17l10.1,43.7L483.3,129.5z"/>
		</g>
	</g>
	<g>
		<path class="st0" d="M205.7,18.5h-21.4v76.9h43.9c-13.1-17.3-24.5-36.5-25.6-57.9C202.3,30,203.4,23.7,205.7,18.5z"/>
		<path class="st0" d="M315.2,18.5h-37.4C289,33.2,298,50.9,297.3,68.6c-0.4,11.4-3.3,19.3-8.2,26.8h26.1V18.5L315.2,18.5z"/>
		<path class="st0" d="M215,18.5c-4.1,7.3-5.4,16.6-3.4,28.4c3.1,17.8,12.3,33.9,23,48.5c4.1,5.4,8.3,10.7,12.5,15.7
			c0.6-5.2,1.3-10.5,1.9-15.7c3.1-25.6,6.2-51.3,9.3-76.9c0.7-6.2,1.5-12.3,2.2-18.5C238.9-0.5,222.5,5.4,215,18.5z"/>
		<path class="st0" d="M278.9,95.3c10.7-14.7,15.8-35.6,4.8-55.9C264.6,52.7,271.8,76.4,278.9,95.3z"/>
	</g>
</g>
</svg>
