<svg xmlns="http://www.w3.org/2000/svg" xmlns:xlink="http://www.w3.org/1999/xlink" width="346.464" height="100.5" viewBox="0 0 346.464 100.5">
  <defs>
    <linearGradient id="linear-gradient" x1="0.13" y1="1" x2="0.5" y2="1" gradientUnits="objectBoundingBox">
      <stop offset="0" stop-color="#8ccbd1"/>
      <stop offset="1" stop-color="#b3d288"/>
    </linearGradient>
    <clipPath id="clip-path">
      <rect id="Rectángulo_8" data-name="Rectángulo 8" width="346.464" height="99.999" fill="none"/>
    </clipPath>
  </defs>
  <g id="Grupo_5" data-name="Grupo 5" transform="translate(0 0.5)">
    <rect id="Rectángulo_9" data-name="Rectángulo 9" width="346.391" height="42.502" transform="translate(0 57.378)" fill="url(#linear-gradient)"/>
    <rect id="Rectángulo_1" data-name="Rectángulo 1" width="294.765" height="57.378" transform="translate(25.849 0)" fill="#161615" stroke="#707070" stroke-width="1"/>
    <path id="Trazado_1" data-name="Trazado 1" d="M23.363,115.5V94.816h4.172v17.265h7.386V115.5Z" transform="translate(-6.814 -27.651)" fill="#161615"/>
    <g id="Grupo_4" data-name="Grupo 4" transform="translate(0 0.001)">
      <g id="Grupo_3" data-name="Grupo 3" clip-path="url(#clip-path)">
        <path id="Trazado_2" data-name="Trazado 2" d="M47.948,101.439c4.779-.087,6.142,2.752,6.142,8.2,0,5.33-1.594,8.2-6.142,8.2-4.779.087-6.142-2.752-6.142-8.2,0-5.33,1.594-8.2,6.142-8.2m0,13.673c1.622,0,2.144-1.564,2.144-5.475s-.521-5.475-2.144-5.475c-1.97,0-2.144,2.288-2.144,5.475s.174,5.475,2.144,5.475" transform="translate(-12.192 -29.583)" fill="#161615"/>
        <path id="Trazado_3" data-name="Trazado 3" d="M72.8,94.815h4v6.547h.058a3.739,3.739,0,0,1,3.36-1.854c3.273,0,4.78,2.4,4.78,8.2s-1.507,8.2-4.78,8.2a3.727,3.727,0,0,1-3.533-2.056h-.058V115.5H72.8Zm6.112,18.018c1.738,0,2.085-1.738,2.085-5.126s-.348-5.128-2.085-5.128c-1.767,0-2.114,1.738-2.114,5.128s.348,5.126,2.114,5.126" transform="translate(-21.232 -27.651)" fill="#161615"/>
        <path id="Trazado_4" data-name="Trazado 4" d="M101.653,115.773H101.6a4.247,4.247,0,0,1-3.97,2.23c-2.52,0-3.968-1.332-3.968-4.432V102.013h4V112.76c0,1.593.522,2.172,1.711,2.172,1.418,0,2.114-.868,2.114-2.577V102.013h4V117.6h-3.822Z" transform="translate(-27.314 -29.75)" fill="#161615"/>
        <path id="Trazado_5" data-name="Trazado 5" d="M117.693,110.247v1.245c0,1.854.492,3.621,1.97,3.621,1.361,0,1.883-.956,2.114-2.926h3.591c-.145,3.62-1.825,5.648-5.648,5.648-5.794,0-6.025-4.461-6.025-8.342,0-4.172.81-8.053,6.2-8.053,4.664,0,5.706,3.128,5.706,7.908v.9Zm4.084-2.376c-.087-2.376-.376-3.708-2.027-3.708-1.593,0-2.057,1.622-2.057,3.1v.608Z" transform="translate(-33.158 -29.584)" fill="#161615"/>
        <path id="Trazado_6" data-name="Trazado 6" d="M133.855,101.846h3.824v1.825h.058a4.247,4.247,0,0,1,3.968-2.23c2.521,0,3.969,1.332,3.969,4.432v11.558h-4V106.684c0-1.593-.521-2.172-1.709-2.172-1.42,0-2.114.868-2.114,2.578v10.341h-4Z" transform="translate(-39.037 -29.584)" fill="#161615"/>
        <path id="Trazado_7" data-name="Trazado 7" d="M160.116,101.439c4.779-.087,6.141,2.752,6.141,8.2,0,5.33-1.594,8.2-6.141,8.2-4.779.087-6.142-2.752-6.142-8.2,0-5.33,1.594-8.2,6.142-8.2m0,13.673c1.622,0,2.143-1.564,2.143-5.475s-.521-5.475-2.143-5.475c-1.97,0-2.144,2.288-2.144,5.475s.174,5.475,2.144,5.475" transform="translate(-44.904 -29.583)" fill="#161615"/>
        <path id="Trazado_8" data-name="Trazado 8" d="M178.9,117.634V121.4c0,3.1-.724,5.215-3.824,5.533v-2.027a2.135,2.135,0,0,0,1.507-2.289v-.463h-1.507v-4.519Z" transform="translate(-51.058 -34.306)" fill="#161615"/>
        <rect id="Rectángulo_4" data-name="Rectángulo 4" width="3.997" height="20.683" transform="translate(137.342 67.164)" fill="#161615"/>
        <path id="Trazado_9" data-name="Trazado 9" d="M209.31,101.439c4.779-.087,6.141,2.752,6.141,8.2,0,5.33-1.593,8.2-6.141,8.2-4.779.087-6.141-2.752-6.141-8.2,0-5.33,1.593-8.2,6.141-8.2m0,13.673c1.622,0,2.144-1.564,2.144-5.475s-.521-5.475-2.144-5.475c-1.969,0-2.143,2.288-2.143,5.475s.174,5.475,2.143,5.475" transform="translate(-59.251 -29.583)" fill="#161615"/>
        <path id="Trazado_10" data-name="Trazado 10" d="M234.166,101.846h3.824v1.593h.057a4.415,4.415,0,0,1,3.941-2,3.37,3.37,0,0,1,3.591,2.491h.058a3.874,3.874,0,0,1,3.94-2.491c2.665,0,3.881,1.651,3.881,4.664v11.326h-4V106.539c0-1.3-.434-2.027-1.564-2.027-1.274,0-2.086.839-2.086,2.664v10.255h-4V106.539c0-1.3-.434-2.027-1.564-2.027-1.275,0-2.085.839-2.085,2.664v10.255h-4Z" transform="translate(-68.291 -29.584)" fill="#161615"/>
        <path id="Trazado_11" data-name="Trazado 11" d="M265.327,106.626v-.377c0-3.591,2.463-4.808,5.476-4.808,4.75,0,5.648,1.97,5.648,4.779v8.2a6.746,6.746,0,0,0,.493,3.013H273.12a6.175,6.175,0,0,1-.492-1.622h-.058c-.927,1.622-2.027,2.027-3.969,2.027-2.78,0-3.766-2.374-3.766-4.461,0-2.954,1.188-4.113,3.941-4.866l2.259-.608c1.188-.318,1.593-.782,1.593-1.825,0-1.188-.492-1.912-1.854-1.912-1.246,0-1.854.782-1.854,2.028v.434Zm7.3,3.013a4.469,4.469,0,0,1-1.709.782c-1.622.348-2.26,1.129-2.26,2.52,0,1.188.435,2.173,1.507,2.173a2.343,2.343,0,0,0,2.462-2.4Z" transform="translate(-77.235 -29.584)" fill="#161615"/>
        <rect id="Rectángulo_5" data-name="Rectángulo 5" width="3.997" height="20.683" transform="translate(202.49 67.164)" fill="#161615"/>
        <path id="Trazado_12" data-name="Trazado 12" d="M301.279,101.439c4.779-.087,6.141,2.752,6.141,8.2,0,5.33-1.593,8.2-6.141,8.2-4.779.087-6.141-2.752-6.141-8.2,0-5.33,1.593-8.2,6.141-8.2m0,13.673c1.622,0,2.143-1.564,2.143-5.475s-.521-5.475-2.143-5.475c-1.969,0-2.144,2.288-2.144,5.475s.174,5.475,2.144,5.475" transform="translate(-86.072 -29.583)" fill="#161615"/>
        <path id="Trazado_13" data-name="Trazado 13" d="M325.645,119.712a6.316,6.316,0,0,0,1.043.087c1.477,0,2.027-.811,2.143-2.2l-4.374-15.585h4.172l2.317,10.776H331l2.028-10.776h4l-3.766,14.542c-1.391,5.387-2.289,6.141-6,6.141h-1.622Z" transform="translate(-94.623 -29.75)" fill="#161615"/>
        <rect id="Rectángulo_6" data-name="Rectángulo 6" width="3.997" height="20.683" transform="translate(251.561 67.164)" fill="#161615"/>
        <path id="Trazado_14" data-name="Trazado 14" d="M370.552,101.439c4.779-.087,6.141,2.752,6.141,8.2,0,5.33-1.593,8.2-6.141,8.2-4.779.087-6.141-2.752-6.141-8.2,0-5.33,1.593-8.2,6.141-8.2m0,13.673c1.622,0,2.143-1.564,2.143-5.475s-.521-5.475-2.143-5.475c-1.969,0-2.144,2.288-2.144,5.475s.174,5.475,2.144,5.475" transform="translate(-106.275 -29.583)" fill="#161615"/>
        <path id="Trazado_15" data-name="Trazado 15" d="M395.407,101.846h3.824V103.5h.058a3.729,3.729,0,0,1,3.533-2.057c3.273,0,4.78,2.4,4.78,8.2s-1.507,8.2-4.78,8.2a3.738,3.738,0,0,1-3.36-1.854h-.058v6.547h-4Zm6.112,12.919c1.738,0,2.085-1.738,2.085-5.126s-.348-5.128-2.085-5.128c-1.767,0-2.115,1.738-2.115,5.128s.348,5.126,2.115,5.126" transform="translate(-115.314 -29.583)" fill="#161615"/>
        <path id="Trazado_16" data-name="Trazado 16" d="M419.443,110.247v1.245c0,1.854.492,3.621,1.97,3.621,1.362,0,1.883-.956,2.115-2.926h3.591c-.144,3.62-1.825,5.648-5.648,5.648-5.794,0-6.025-4.461-6.025-8.342,0-4.172.81-8.053,6.2-8.053,4.664,0,5.706,3.128,5.706,7.908v.9Zm4.085-2.376c-.087-2.376-.376-3.708-2.027-3.708-1.593,0-2.057,1.622-2.057,3.1v.608Z" transform="translate(-121.158 -29.584)" fill="#161615"/>
        <path id="Trazado_17" data-name="Trazado 17" d="M441.011,101.439c4.779-.087,6.141,2.752,6.141,8.2,0,5.33-1.593,8.2-6.141,8.2-4.779.087-6.141-2.752-6.141-8.2,0-5.33,1.593-8.2,6.141-8.2m0,13.673c1.622,0,2.143-1.564,2.143-5.475s-.521-5.475-2.143-5.475c-1.969,0-2.144,2.288-2.144,5.475s.174,5.475,2.144,5.475" transform="translate(-126.823 -29.583)" fill="#161615"/>
        <path id="Trazado_18" data-name="Trazado 18" d="M455.643,101.846h3.824v2.085h.057a4.032,4.032,0,0,1,3.593-2.491,6.079,6.079,0,0,1,.724.058v3.823c-.434-.029-.811-.057-1.246-.057a2.7,2.7,0,0,0-2.954,2.809v9.357h-4Z" transform="translate(-132.881 -29.584)" fill="#161615"/>
        <path id="Trazado_19" data-name="Trazado 19" d="M63.617,19.409H74.43c6.308,0,8.411,4.591,8.411,9.182,0,6.351-3.905,9.226-9.741,9.226H69.8v12.23H63.617ZM69.8,33.269h2.746c2.446,0,4.119-1.459,4.119-4.592,0-3.047-1.2-4.721-4.291-4.721H69.8Z" transform="translate(-18.553 -5.66)" fill="#fff"/>
        <path id="Trazado_20" data-name="Trazado 20" d="M106.094,18.56c9.268,0,10.427,6.608,10.427,15.92S115.362,50.4,106.094,50.4,95.666,43.792,95.666,34.48s1.159-15.92,10.428-15.92m0,27.291c3.647,0,4.248-3.132,4.248-11.371,0-8.2-.6-11.371-4.248-11.371s-4.248,3.175-4.248,11.371c0,8.239.6,11.371,4.248,11.371" transform="translate(-27.899 -5.413)" fill="#fff"/>
        <path id="Trazado_21" data-name="Trazado 21" d="M136.257,40.229v.9c0,2.875.815,4.721,4.077,4.721a3.531,3.531,0,0,0,3.691-3.777c0-2.746-1.374-3.861-5.493-5.234-5.493-1.846-8.024-4.206-8.024-9.269,0-6.008,3.6-9.012,9.484-9.012,5.492,0,9.483,2.36,9.483,8.239v.859h-5.921c0-2.918-.944-4.548-3.348-4.548-2.789,0-3.519,1.716-3.519,3.561,0,1.889.559,3.09,3.176,4.162l4.763,2.061c4.634,2.059,5.836,4.334,5.836,8.11,0,6.479-3.948,9.4-10.642,9.4-6.994,0-9.741-3.261-9.741-8.925V40.229Z" transform="translate(-37.935 -5.412)" fill="#fff"/>
        <path id="Trazado_22" data-name="Trazado 22" d="M164.732,19.409h10.813c6.308,0,8.411,4.591,8.411,9.182,0,6.351-3.905,9.226-9.741,9.226h-3.3v12.23h-6.179Zm6.179,13.86h2.746c2.446,0,4.119-1.459,4.119-4.592,0-3.047-1.2-4.721-4.291-4.721h-2.575Z" transform="translate(-48.041 -5.66)" fill="#fff"/>
        <path id="Trazado_23" data-name="Trazado 23" d="M199.5,19.408h7.638l8.11,30.638h-6.436l-1.416-6.48h-8.153l-1.416,6.48h-6.437Zm.815,19.1h6.007l-2.96-13.774h-.086Z" transform="translate(-55.816 -5.66)" fill="#fff"/>
        <path id="Trazado_24" data-name="Trazado 24" d="M236.742,19.408l7.466,20.983h.086V19.408h5.664V50.046h-7.037L235.37,28.591h-.086V50.046h-5.664V19.408Z" transform="translate(-66.965 -5.66)" fill="#fff"/>
        <path id="Trazado_25" data-name="Trazado 25" d="M266.332,19.408h10.127c8.539,0,10.128,5.836,10.128,14.89,0,10.813-2.317,15.748-10.514,15.748h-9.741Zm6.179,26.09h2.746c4.291,0,5.149-2.7,5.149-11.028,0-6.952-.6-10.514-5.278-10.514h-2.617Z" transform="translate(-77.671 -5.66)" fill="#fff"/>
        <path id="Trazado_26" data-name="Trazado 26" d="M319.32,19.408v5.063H308.377v7.21h10.3v5.063h-10.3v8.239h11.371v5.063H302.2V19.408Z" transform="translate(-88.131 -5.66)" fill="#fff"/>
        <path id="Trazado_27" data-name="Trazado 27" d="M333.034,19.408h9.182l4.378,21.626h.086L351.1,19.408h9.139V50.046h-5.664V25.587h-.086l-5.45,24.459h-4.806l-5.45-24.459H338.7V50.046h-5.664Z" transform="translate(-97.124 -5.66)" fill="#fff"/>
        <rect id="Rectángulo_7" data-name="Rectángulo 7" width="6.179" height="30.638" transform="translate(268.912 13.748)" fill="#fff"/>
        <path id="Trazado_28" data-name="Trazado 28" d="M401.426,19.408h7.638l8.11,30.638h-6.436l-1.416-6.48h-8.153l-1.416,6.48h-6.437Zm.815,19.1h6.007l-2.96-13.774H405.2Z" transform="translate(-114.704 -5.66)" fill="#fff"/>
      </g>
    </g>
  </g>
</svg>
