<?xml version="1.0" encoding="utf-8"?>
<!-- Generator: Adobe Illustrator 26.5.0, SVG Export Plug-In . SVG Version: 6.00 Build 0)  -->
<svg version="1.1" id="Layer_1" xmlns="http://www.w3.org/2000/svg" xmlns:xlink="http://www.w3.org/1999/xlink" x="0px" y="0px"
	 viewBox="0 0 136.6 150" style="enable-background:new 0 0 136.6 150;" xml:space="preserve">
<style type="text/css">
	.st0{fill:#B2B2B2;}
</style>
<g>
	<path class="st0" d="M90,129c0.2,0,0.2-0.2,0.2-0.2H90l-0.3-0.2v0.6C89.7,129.3,89.8,129.1,90,129z"/>
	<path class="st0" d="M9.7,105.8c0,0,0.3,0,0.8,0c0.6-0.2,0.8,0.2,1.4-0.9c0-0.2,0,0,0-0.5l-0.5-0.5h-0.2c-0.2,0-0.2,0-0.2,0.2
		c-0.2,0.2-0.3,0.3-0.6,0.3c-0.2,0.2-0.3,0.3-0.5,0.3c-0.9,0-1.2,0.2-1.8,0.2C8,105,7.9,105,7.7,105l-0.2,0.2
		c-0.3,0.3-0.5,0.3-0.8,0.5c-0.2,0.5-0.5,0.8-0.5,1.1c0,0.5,0,0.9,0.2,1.4c0.2,0,0.2,0.2,0.2,0.3l0.2,0.2c0.6,0.2,0.8-0.3,0.9-0.5
		c0.2,0,0.2-0.2,0.2-0.2l0.3-0.2c0.5,0,0.8,0,1.1-0.3c0.2-0.6-0.2-0.9,0-1.4L9.7,105.8z"/>
	<path class="st0" d="M90,120.8c0.2-0.2,0.3-0.3,0.3-0.5c-0.2-0.2-0.2-0.2-0.3,0c-0.2,0-0.3,0.3-0.3,0.3v0.2L90,120.8L90,120.8z"/>
	<path class="st0" d="M88.9,126.8H89l0.3-0.2c0-0.3,0-0.6,0-0.8l-0.3-0.2h-0.2c-0.2,0.2-0.5,0.2-0.5,0.3
		C88.6,126.7,88.7,126.8,88.9,126.8z"/>
	<path class="st0" d="M85.5,127.6c0.2,0,0,0,0.5-0.2c0.2-0.2,0.2-0.8,0.2-0.9l-0.2-0.2h-0.3c-0.2,0-0.2,0.2-0.5,0.3
		c-0.2,0.3,0.2,0.5,0.2,0.8L85.5,127.6z"/>
	<path class="st0" d="M97.3,116.4l-0.2-0.2h-0.3v0.5h0.3C97.2,116.7,97.3,116.5,97.3,116.4z"/>
	<path class="st0" d="M93.2,126.5c0.2,0,0.5-0.2,0.5-0.2v-0.2c-0.2-0.3-0.3-0.5-0.6-0.6h-0.2l-0.5,0.2
		C92.6,125.9,92.3,126.5,93.2,126.5z"/>
	<path class="st0" d="M91,123.5c0.5-0.2,0.5-0.3,0.5-0.6c-0.2-0.3-0.2-0.3-0.5-0.3l-0.2,0.2l-0.3,0.2C90.6,123,90.7,123.5,91,123.5z
		"/>
	<path class="st0" d="M33.5,122.7L33.5,122.7l0.5-0.2c0.3-0.9-0.2-1.7-0.5-2.5c0-0.2-0.6-0.2-0.6,0c0,0.9,0.3,1.7,0.3,2.5
		L33.5,122.7z"/>
	<path class="st0" d="M84.6,132.2l0.5-0.3c0-0.5,0-0.6,0-0.8c-0.2,0-0.3,0-0.5,0s-0.2,0.3-0.3,0.5v0.5L84.6,132.2L84.6,132.2
		L84.6,132.2z"/>
	<path class="st0" d="M76,139.4L76,139.4l-0.3,0.6c0.2,0.3,0.3,0.5,0.5,0.6c0.3,0,0.8-0.2,0.8-0.2l0,0l0.2-0.3c0-0.2,0-0.5-0.2-0.6
		S76.9,139.4,76,139.4z"/>
	<path class="st0" d="M74.6,136.2c-0.3,0-0.2,0-1.2,0.2l-0.3,0.3v0.5l0.5,0.5H74c0.2-0.2,0.3-0.2,0.5-0.3c0.3-0.2,0.2,0,0.5-0.5
		C74.9,136.7,74.8,136.2,74.6,136.2z"/>
	<path class="st0" d="M41.6,141.4c-0.2-0.2-0.5,0-0.6,0.3v0.2c0.2,0.2,0.6,0.5,0.9,0.5l0.5-0.3c-0.2-0.5-0.5-0.5-0.5-0.8h-0.3V141.4
		z"/>
	<path class="st0" d="M46.5,137.7c-0.5,0.2-0.8,0.3-1.1,0.3l-0.2,0.5l0.5,0.3c1.2,0,1.1,0,1.1-0.9h-0.2L46.5,137.7z"/>
	<path class="st0" d="M99.2,134.5c-0.2,0.2,0,0-0.6,0.3l-0.2,0.3l-0.2,0.2l0.2,0.2l0.2,0.3h0.3c0.5-0.2,0.5-0.2,0.8-0.6v-0.5l0,0
		L99.2,134.5z"/>
	<path class="st0" d="M101.3,138.6c-0.2,0-0.3,0-0.5,0.2c-0.3,0-0.5,0.2-0.8,0.3v0.5l0.5,0.5h0.3l0.3-0.2l0.5-0.5V139L101.3,138.6
		L101.3,138.6z"/>
	<path class="st0" d="M94.9,138.6c-0.2,0-0.2,0-0.5,0l-0.2,0.5l0.2,0.5l0.3,0.2h0.2c0.3-0.2,0.5-0.2,0.6-0.3v-0.3l-0.3-0.5
		C95.2,138.6,95,138.6,94.9,138.6z"/>
	<path class="st0" d="M21.7,122.1c-0.2,0.2-0.3,0.2-0.5,0.3c-0.2,0-0.2,0.2-0.3,0.2l-0.2,0.2l0.2,0.3h0.2c0.2,0,0.3-0.2,0.5-0.2
		l0.5-0.5v-0.3l-0.2-0.2L21.7,122.1L21.7,122.1z"/>
	<path class="st0" d="M97,141.6l-0.3-0.2c-0.3,0-0.6,0.2-0.8,0.3l-0.3,0.3c0,0.3,0.2,0.6,0.5,0.8c0.2,0,0.6-0.2,0.9-0.2
		C97.3,142.3,97.3,142,97,141.6L97,141.6z"/>
	<path class="st0" d="M26.7,124.7l-0.2,0.2c-0.2,0.3-0.3,0.9-0.3,1.2l0.3,0.2c0.3-0.2,0.2-0.2,0.6-0.2c0.2-0.5,0.2-0.8,0.2-1.2h-0.2
		L26.7,124.7z"/>
	<path class="st0" d="M26.7,119.5c0.2-0.2,0.2-0.3,0.3-0.5l-0.2-0.5c-0.3-0.2-0.5,0.2-0.8,0c-0.2,0-0.9,0.8-0.9,0.8
		c-0.3,0.2-0.3,0.5-0.3,0.6l0.3,0.6h0.2c0.6-0.3,0.5-0.5,0.8-0.5C26.1,119.8,26.4,119.6,26.7,119.5z"/>
	<path class="st0" d="M29.2,119.3l-0.5-0.2c-0.3,0-0.3,0.2-0.5,0.3c0,0-0.2,0.2-0.3,0.2l-0.5,0.5c-0.2,0.3-0.2,0.5-0.2,0.8l0.2,0.3
		h0.3c0.2-0.2,0.3-0.2,0.3-0.3c0.6-0.3,0.8-0.8,1.1-1.2L29.2,119.3z"/>
	<path class="st0" d="M24,123.6c-0.3,0.2-0.5,0.3-0.6,0.5l-0.2,0.5l0.2,0.3h0.2c0.2-0.2,0.3-0.3,0.5-0.3c0.3-0.3,0.6-0.8,0.6-1.1
		l-0.2-0.3C24.3,123.3,24.1,123.5,24,123.6z"/>
	<path class="st0" d="M36.3,136.3h0.3c0.2-0.3,0.2-0.6,0.2-0.9l-0.2-0.2c-0.2,0-0.3,0-0.5,0c-0.2,0.2-0.3,0.2-0.3,0.5
		C35.9,136,36.1,136,36.3,136.3z"/>
	<path class="st0" d="M30.1,125l-0.3,0.2c0,0,0,0-0.2,0.2c-0.2,0.5-0.5,1.1-0.5,1.5l0.3,0.5c0.2-0.2,0,0,0.2-0.3
		C30.1,126.2,30.4,125.6,30.1,125z"/>
	<path class="st0" d="M31,119.5h-0.5l-0.2,0.2c-0.2,0.2-0.3,0.3-0.2,0.5c-0.6,0.6-0.6,0.9-0.8,1.5l0.2,0.6h0.2H30l0.5-0.3h0.2
		c0.6-0.6,0.6-0.9,0.9-1.4c-0.2-0.3,0.2-0.5,0.2-0.6L31,119.5z"/>
	<path class="st0" d="M36.6,140.2c-0.2,0-0.3,0-0.5,0.2s-0.2,0.2-0.3,0.2v0.5l0.3,0.2l0.2,0.2h0.5l0.3-0.5
		C36.7,140.5,37.3,140.2,36.6,140.2z"/>
	<path class="st0" d="M30.4,129.9c-0.5,0.8-0.5,1.7-0.5,2.5l0.3,0.3c0,0,0-0.2,0.2-0.2c0.3-0.2,0.5-0.3,0.6-0.5c0-0.6,0-1.5,0-2
		C30.9,129.9,30.6,129.9,30.4,129.9z"/>
	<path class="st0" d="M94.6,135.3c-0.2,0-0.5,0-0.8,0c-0.3,0.2-0.3,0.5-0.6,0.6c0,0.3,0,0.6,0,0.8l0.3,0.2c0.2,0,0.3-0.2,0.3-0.2H94
		c0.2-0.5,0.6-0.8,0.6-1.1V135.3z"/>
	<path class="st0" d="M113.1,117.9h-0.6h-0.2l-0.3,0.2l-0.2,0.5c0.2,0.3,0.5,0.3,0.6,0.3h0.2c0.2,0,0.6-0.2,0.6-0.2
		C113.1,118.4,113.3,118.1,113.1,117.9z"/>
	<path class="st0" d="M126.8,113.5l-0.3,0.2c-0.2,0.3-0.2,0.8,0,0.8h0.3c0.2-0.2,0.5-0.5,0.5-0.5L126.8,113.5
		C126.9,113.5,126.8,113.5,126.8,113.5z"/>
	<path class="st0" d="M114.1,120.7c-1.1,0.5,0,0.9,0,1.2c0.2,0,0.2,0,0.3,0c0.2-0.2,0.2-0.5,0.3-0.8
		C114.4,120.7,114.2,120.7,114.1,120.7z"/>
	<path class="st0" d="M110.5,120.1c-0.2,0-0.3,0.2-0.3,0.2v0.6l0.3,0.2l0.2-0.2h0.3c0.2-0.2,0.2-0.5,0.2-0.8
		C110.7,119.9,110.5,119.9,110.5,120.1z"/>
	<path class="st0" d="M111.4,123c-0.2,0-0.3,0-0.5,0.2c0,0.2,0,0.6,0.5,0.6l0.5-0.3V123l-0.2-0.2C111.6,122.8,111.6,122.8,111.4,123
		z"/>
	<path class="st0" d="M128.8,111.8h-0.2l0.2,0.5v0.2C129.1,112.1,129.1,111.8,128.8,111.8z"/>
	<path class="st0" d="M131.5,111.9c-0.2,0.2-0.3,0.5-0.2,0.8c0.2,0,0.3,0,0.3,0c0.2-0.2,0.2-0.3,0.2-0.6l-0.2-0.2H131.5z"/>
	<path class="st0" d="M135.1,104.9c0.5-0.3,1.2,0,1.5-0.3l0.2-0.5l-0.3-0.5c-0.5-0.3-0.9-0.3-1.4-0.3c-0.2-0.3-0.5-0.6-0.6-0.6
		c-0.5-0.2-0.3,0-0.6,0l-0.3,0.2v0.5c0.2,0.6,0.5,0.6,0.6,1.1v0.2c-0.2,0.3,0,0.2-0.6,0.8h-0.5h-0.2c-0.2-0.5-0.8-0.3-1.1-0.6
		c-0.2,0-0.3,0.2-0.5,0.2c-0.3,0-0.3,0.2-0.6,0.2c-0.9,1.7-0.3,1.7-0.6,2.9c-0.3,0.2-0.6,0.2-0.8,0.3c-0.5,0.2-3.1,1.8-3.5,2.1h-0.2
		l-0.3-0.2c-0.2-0.5-0.3-0.9-0.5-1.2c-0.9-0.8-1.8-0.2-3.1-0.2c-0.5-0.3-1.1-0.6-1.1-1.5l-0.5,0.2c-0.3,0.3-0.5,0.6-0.8,0.8v0.5
		l0.2,0.2c0.3,0,0.5,0.2,0.8,0.2c0.3,0.3,0.5,0.3,0.5,0.8c-0.3,0.8-0.8,1.5-0.5,2.1l0.5,0.5c0.2,0,0.3,0.2,0.6,0.2
		c0.3,0,1.5,0,1.4,0.8c-0.9,1.5-2.5,2.5-4.9,2.5c-0.2,0-0.3-0.2-0.5-0.2c-0.5-0.3-1.5-1.2-3.5-1.2c-1.2-0.2-3.1,0.2-4.3,0.6
		c-0.9,0.3-1.8,0.6-2.8,0.9c-0.2,0.2-0.2,0.2-0.2,0.2c-0.5,0.5-1.2,0.6-1.7,0.9l0,0c-0.3,0.5-0.8,1.1-1.1,1.5
		c-0.6,0.9-1.4,1.7-2.1,2.6c0.2,1.4-1.1,2.3-1.1,3.4c-0.2,0.2,0,0-0.5,0.5c-0.8,1.8-0.2,3.8-1.1,5.7L99,131c0,0-0.2,0-0.3,0
		c-0.3,0-0.5,0-0.6,0c-0.2,0-0.3,0-0.3,0l-0.5,0.5c-0.2,0.2-0.5,0.2-0.5,0.2c-1.5,0.2-1.5-0.2-2.1,0.3c-0.2,0.2-0.2,0.2-0.3,0.2
		c-0.3,0.3-0.3,0.6-0.6,0.6c-3.1,0-1.4,0-2.8,1.2h-0.2c-1.2,0.3-1.1,0.6-2.6,0.6c-0.6,0.6-0.5,0.6-0.9,0.8c-0.6,0-0.9,0.3-1.5,0.3
		l-0.5-0.2v-0.2c0-0.5,0-0.5,0-0.6c0.5-0.6,1.4-0.8,2-1.2c0-0.5,0.5-0.3,0.6-0.6c1.8-0.5,3.2-0.8,5.1-2.1c0-0.2,0.2-0.2,0.2-0.2
		c0.2-0.5,0.2-0.9,0.3-1.1c0.2,0,0.2-0.2,0.2-0.2c1.2-1.4,1.1-2,2.5-2.6c0.2-0.3,0-0.8,0-0.9c0.2-0.9,0.6-4.1,0.8-5.1
		c0.6-0.5,1.5-0.9,1.7-0.9l0,0l0.3-0.5c-0.2-0.6,0.3-1.2,0.3-2c0.2-0.5,0.5-0.8,0.6-1.1v-0.5c-1.1-0.9-3.1-2.3-3.2-2.3h-0.3
		c-0.6,0.5-1.2,0.8-1.8,1.1h-0.2l-0.5,0.5c-0.2,0.8-0.2,0.9-0.3,1.1c-0.2,0.6-1.1,1.5-1.7,1.5c-0.5,0-0.8,0-1.2,0
		c-0.3,0.2-0.8,0.2-1.2,0.2c0,0.2-0.2,0.2-0.2,0.2c-0.6-0.2-0.8,0.3-1.1,0.3c-2.9,1.4-4,3.7-5.2,6.3c0.2,0.5-0.2,0.3-0.2,0.9
		c-0.2,0.5,0,0.8-0.2,1.2c-0.5,0.5-0.8,0.5-1.1,0.5c-1.1-0.2-4.9-2.8-5.2-2.9c-2.5-1.2-4.4-0.2-6.6,1.2c-2.6,0-2.9,0-5.4-0.8
		c-0.5,0-4.6-1.7-8-4c-1.5-0.8-1.8-2.6-3.1-3.4c-0.2,0-0.8-0.5-0.8-0.6c-1.8-1.2-1.4-0.9-2.6-0.9c-1.2-0.2-3.4-0.2-4.4,0.6
		c-2-0.3-2.8,0-3.7,2c0,0,0,0-0.2,0.2c-0.3,0.3-0.6,0.9-0.9,0.9c-0.6-0.9-1.5-1.5-1.8-2c-0.2-0.2-0.3-0.3-0.5-0.5
		c-0.9-1.5-2.6-2.5-4.3-2.9c-0.6-0.6-0.5-1.1-1.2-1.5l-0.2-0.3c-0.6-0.2-1.1-0.3-1.5-0.3c-0.5,0.2-0.5,0.3-0.8,0.5
		c0,0.2,0,0.2,0,0.2c-0.6,0.6-1.5,1.4-2.1,2.6c0,0.2-2.1,1.4-2.3,1.5c-0.3,0.3-0.6,0.5-1.1,0.8c-0.3-0.3-1.1-1.2-1.1-1.2
		c-0.3-0.8-0.6-1.2-0.9-1.8c-0.5-0.5-1.1-0.5-1.2-1.1c-0.2-0.8,0-0.5-0.8-1.2c-0.5-0.9-0.3-2.1-0.9-2.8c-0.3-0.2-0.3-0.5-0.3-0.8
		l0.2-0.3c0.5,0,0.5-0.3,0.8-0.3l0.5,0.5c0.5,0.8-0.2,0.6,1.1,0.6l0.3-0.6v-0.8c-0.2-0.3-0.3-0.5-0.6-0.8l-0.6-0.3h-0.2
		c-0.8-0.2-1.5,0-2.1,0.3c-0.2,0-0.3,0.2-0.5,0.2c-0.6,0.6-1.2,0.9-1.4,1.1c0,0-0.2,0-0.2,0.2c-0.8,0.2-1.2,0.3-2,0.3l-0.6-0.5
		c-0.2-0.6,0-1.1-0.2-1.5c-0.5-0.3-0.3-0.5-1.7,0c0,0-0.5,0.3-0.6,0.5c-0.5,0.3-1.5,1.1-2.1,1.2c-0.2,0.2-0.3,0.2-0.5,0.3
		c-0.3,0.5-0.6,1.1-0.9,1.5c0,0.6,0,0.9-0.2,1.5c-0.3,0-0.8,0.3-1.7,0c-0.3,0-0.8-0.2-1.1-0.2c-0.6-0.6-0.3-1.8-0.8-2.5
		c-0.8-0.3-1.4-0.2-2-0.3c0,0-0.2-0.2-0.3-0.2l-0.2-0.5L2,107.8c0.2-0.5,0.5-0.8,0.3-1.2l-0.5-0.3c-0.5,0.3-0.8,0.3-0.8,0.5
		c-0.6,0.8-0.2,1.5,0,2.5c-0.5,0.8-1.2,1.1-1.2,2.1c0.6,0.9,1.7,1.2,2.3,1.8c0.3,0.8-0.3,1.2-0.5,1.7c-0.3,0.3-0.3,0.6-0.6,0.6
		L1,115.9c0.2,0.3,0.5,0.3,0.6,0.6c0.3,1.2,0.2,2.5,0.3,3.7c0.6,0.5,1.7,1.1,2.1,2.5c-0.2,0.5,0.2,0.6,0.3,0.9
		c0.3,0.3,0.5,0.3,0.8,0.3c0.2,0,0.3,0,0.5,0c0.2,0.2,0.2,0.2,0.3,0.2c0.2,0.3,0.5,0.5,0.8,0.8c0.2,0,0.3,0.2,0.5,0.3
		c0.2,0.3,0.3,0.6,0.3,0.9l0.2,0.3c1.5,0,1.7,0.2,2,0.5c0,0,0,0,0,0.2c0.3,0.3,1.1,0.9,1.4,1.7c0,0.2,0.2,0,0,0.5
		c-0.2,0.2-0.3,0.3-0.6,0.5c-0.6,0.8-1.7,1.2-2.5,1.5c-0.3,0.5-0.3,0.3-0.3,0.5c0,0.9,0.2,1.8-0.2,2.9c-0.6,0.8-0.6,0.3-0.5,1.4
		c0.3-0.2,0.6-0.2,0.8,0c0.2,0,0.2,0,0.3,0c0.2,0.3,0.2,0.5,0.2,0.8l-0.3,0.5v0.2c-0.5,0.2-0.9,0.3-1.2,0.6
		c-0.3,0.3-0.6,0.6-0.9,0.8c-0.3,1.2-0.5,0.9-0.2,1.4l0.2,0.3c0.2,0.3,0.3,0.5,0.3,0.8c-0.2,0.3-0.2,0.8-0.3,0.8l-0.3,0.3H5.3h0.2
		l-0.2,0.2c-0.8,0.2-0.8-0.3-1.1,0.5c0.5,0.6,1.1,0.9,1.2,1.5l0.5,0.2c0.3-0.5,0.2-1.1,0.2-1.4c0.2-0.3,0.3-0.3,0.5-0.6l0.2-0.3
		c1.1-0.3,1.7,0.6,2.6,0.3l0.2-0.2c0.2-0.2,0.2-0.2,0.2-0.2c0.3-0.5,0.6-1.1,0.8-2c0.2-0.2,0.5-0.3,0.8-0.3c0.5,0.2,0.6,0.3,0.8,0.3
		c0,0.2,0,0.2,0.2,0.2c0.2,0.3,0.2,0.2,0.2,0.3c0.2,0.5,0.3,0.5,0.5,0.8l0.5,0.2c0.3-0.2,0.2-0.2,0.8-0.3c1.2,0,3.4,0.5,4.3,0.5
		c0.3,0.3,0.2,0.6,0.8,0.6c1.1-0.3-0.5-0.8,5.1-0.8c0.2,0.3,0.3,0.5,0.6,0.6h0.5c0.3-0.9,0-0.8,0.6-1.1l0,0c2.5-1.1,4.8-0.8,5.2-0.5
		c0.8,0.8,1.2,1.8,1.7,3.1l0.2,0.2c0.2,0.2,0.3,0.2,0.5,0.2c0.3,0.2,3.1,1.2,3.2,1.4c0.3,0.3,0.5,0.5,0.6,0.8c1.4,0,0.5-0.5,2.3-0.5
		c0.6,0,1.8,0.2,2.5,0.3c0.2,0.3,0.3,0.3,0.6,0.5c0.5-0.2,0.5-1.1,0.9-1.1c1.1-0.3,2.5-0.6,3.5-0.6c1.4-1.1,2.9-2.1,4-2.5h0.6
		c0.2,0.2,0.5,0.3,0.6,0.8l0.2,0.3v0.5c-0.2,0.2-0.2,0.2-0.2,0.3c-0.2,0.9-2.5,1.8-3.2,4.1c0,0.5,0,0.8,0,1.2l0.5,0.3
		c0.3-0.2,0.6-0.6,0.8-0.9l0,0l0.6-0.3c0.5,0,1.4,0.2,1.5,0c2.5,0,1.8-0.5,2.8-0.8c0.5,0.3,0.9,0.9,1.2,1.4c0,0,0.6,0.5,1.1,0.6h0.5
		l0.3-0.2c-0.3-1.7,0.5-3.1,1.1-4.3c0,0,0,0,0-0.2l0.3-0.2c0.5,0.2,0.5,0.8,0.8,0.8s0.8,0.2,0.9,0.2c0.5,0.2,0.6,0.5,0.8,0.5
		c0.3,0.3,0.5,0.5,0.8,0.6c0.2,0,0.3,0.2,0.5,0.2s0.3,0.2,0.5,0.2c0.8,0.3,3.1,0.5,3.2,0.5l0.2-0.2c-0.3-0.5-0.6-0.9-0.8-1.2
		c-0.2-0.2-0.2-0.3-0.2-0.6l0.2-0.2c0.2,0,0.6,0,0.8,0.2c1.1,0.3,1.8,1.4,2.5,2c0.5,0.9,1.2,1.7,2,2h0.2c0.6,0.2,0.6,0.2,0.9,0.2
		s0.8,0,0.9,0l0.2-0.2c0-0.6-0.5-0.6-0.5-1.1l0.5-0.3v0.2c0.3,0.2,0.6,0.2,1.2,0.6c0.3,0.3,0.9,0.3,1.4,0.5c0.2,0,0.5,0.2,0.8,0.2
		c0.3,0.2,0.5,0.2,0.8,0.2c2,0,2.1,0,2.3-0.2c0.3,0,0.6-0.3,0.8-0.5c0.2,0,0.2,0,0.3-0.2l0.2-0.3l-0.2-0.2c-0.2,0-0.9-0.3-1.2-0.3
		c-0.2,0-0.5,0-0.6,0c-0.6-0.3-1.2-0.8-1.4-1.2l-0.2-0.2l0,0l0.2-0.3c0.8-0.5,1.5-1.1,2.1-1.7c0.6-0.5,1.4-1.4,1.7-1.8l0.3-0.2
		c0.9,0.2,1.8-0.2,8.3,1.5c4.8,0.9,9.8,1.7,13.7-1.5c0.2,0,0.3-0.2,0.5-0.2h0.2c0.2-0.2,1.8-2.9,2.1-3.4c0-0.6,0.3-0.6,0.5-0.9
		l0.2-0.3c1.1-0.3,2.5,0.5,2.8,0.9h0.3h0.2c0.6-0.3,1.4,0.3,1.5,0.3l0.2,0.3l0.2,0.2c0.5,1.4,0,0.8,0.5,1.4c0.2,0,0.3,0,0.5,0
		c0.5-0.2,0.8-0.3,1.1-0.3c0.3,0.2,0.8,0.3,0.9,0.5c0.2,0.3,0.5,0.9,0.8,1.1h0.6c0.5-0.2,0.8-0.5,1.2-0.5c0.6,0,1.1,0.2,1.5,0.2
		c0.3,0.2,0.3,0.8,0.9,0.8c0.2-0.2,0.6-0.3,0.8-0.5c1.4-0.6,2.5-0.6,3.7-0.5c0.3-0.2,0.5-0.3,0.6-0.3c0.2-0.2,0.2-0.3,0.3-0.5
		c0.2-0.2,0.2-0.2,0.3-0.3c0.3-0.3,0.8-0.3,0.9-0.3c0.8-1.2,0.9-3.4,1.2-4.4v-0.5l-0.2-0.2c-0.2,0-0.2-0.2-0.3-0.2
		c-0.2-0.2-0.3-0.2-0.5-0.3c-0.3-0.9-0.8-1.5-1.2-1.8c-0.3-0.8,0.2,0-0.9-1.4v-0.5c-0.2-0.3-0.5-0.3-0.8-0.3c-2,0-6.3-1.2-7.8-0.8
		c-1.8,0-4.6,1.4-5.7,1.4c-0.3,0.3-0.8,0.3-1.1,0.5c-2.3,0-2.9,0.8-5.1,0l-0.2-0.3c0-0.3-0.2-0.8,0-0.9c1.2-1.5,1.8-1.8,4.1-2.9
		c0.3,0,0.5-0.2,0.8-0.2c0.9-0.5,2.9-0.9,3.5-1.2h0.2c2.3-1.1,4.6-3.5,5.7-6l0.3-0.2c0.2,0,6.1-0.2,8.7-0.9c0.9-0.3,0.5-0.2,2.1-0.9
		c0.2-0.3,0.3-0.5,0.6-0.5c0,0,0,0,0.2,0c2.9-1.2,3.2-4.8,2.3-8c0.6-0.5,1.5-0.9,1.8-1.7v-0.5c-0.2-0.3-0.3-0.5-0.5-0.6
		c-0.3-0.2-0.5-0.5-0.6-0.6v-0.2C134.9,105.5,134.9,105,135.1,104.9z M121.9,111.2c0-0.9,0.8-0.9,1.2-1.4h0.8l0.5,0.5
		c0,0.3,0.2,0.6,0.3,0.9l0.2,0.2c0,0.5,0,0.5-0.3,0.8H124C123.4,111.8,122.5,111.6,121.9,111.2z M89.7,119c0.3,0-0.6-0.2,2.5-0.2
		l0.5,0.2c0.2,0.3,0,0.8,0.3,1.1H93h0.3c0.3,0,0.3-0.2,0.5-0.5c0.2,0,0.2,0,0.2-0.2c0.2-0.2,0.5-0.2,0.8-0.3c0,0,0.2,0,0.2-0.2
		l0.2-0.3c0-0.6-0.5-0.5-0.6-1.2c0.2-0.3,0-0.5,0.2-0.8c0,0,0.2-0.2,0.2-0.3c0.2-0.2,0.2-0.2,0.3-0.6c0.5-0.5,0.2-0.3,1.4-0.9
		c0.3,0,0.5,0,0.8,0c0.3,0.2,0.8,0.3,1.1,0.8c0,0.2-0.2,0.3,0,0.5c0,0,0,0,0,0.2c0,0.3,0,0.5,0,0.8c-0.5,1.4-1.8,2.3-2,2.6
		c-0.3,0.2-1.1,0.8-1.5,1.2v0.2c0.2,0.2,0.3,0.3,0.8,0.5l0.3,0.2c0.5,1.4-0.2,2.8-0.9,3.8c-1.4,2.6-3.2,3.8-6,5.5
		c-0.2,0-0.3,0.2-0.5,0.3c-0.5,0-0.9,0.2-1.5,0.3c-1.5,0.9-2.6,2.3-3.4,4l-0.3,0.2c0,0.2-0.3,0.2-0.8,0.3h-0.6
		c0-0.2-0.2-0.2-0.3-0.2c-1.1-1.2-0.8-1.1-0.9-1.2v-0.5c0,0,0-0.3,0.2-0.3C83.4,130.4,84.4,121.2,89.7,119z M41.6,120.2v-0.2
		c0.6-0.6,1.4-2.1,1.4-2.3c0,0,0,0,0.2-0.2c0.2,0,0.3-0.3,0.8-0.5c2.5,0,5.2-0.8,6.8-0.3c0.2,0,0.3,0,0.3,0c0.6,0.2,0.8,0.5,1.2,0.8
		c0,0.2,0.3,0.3,0.3,0.5c0.9,0.8,0.8,2.3,8.9,6.8v0.8c0.2,0.5,0.8,1.2,1.5,1.5l0.3-0.3c0-0.5-0.3-0.8-0.3-1.1l0.3-0.3
		c0.3,0.3,1.1,0.6,1.2,0.6c0.6,0.2,1.7,0.3,2.8,0.3l2.3-0.5c2.3-0.6,6-2,7.8,0c0.5,0,1.1,0.5,1.4,0.8c0.8,0.5,1.8,1.4,3.1,1.7
		c0,1.4,0.2,1.8-1.2,4.4c-0.3,0.3-0.5,0.8-0.9,1.2c-3.4,0-4.1-1.2-7.4,0.9c-1.5,0.3-2.8,1.8-4.8,1.8l-0.2-0.2l-0.3-0.3
		c-0.5-0.9-2.3-2.9-2.3-3.2c-0.5-0.3-1.1-1.2-2.1-1.5c-4.4-4-9.1-5.7-9.4-6c-0.5,0-3.8-2-4.4-3.1c0.2-0.9,0-1.7,0-2.8l-0.6-0.5
		c-0.6,0.8-0.2,1.1-0.3,2l-0.3,0.5c-0.2,0-0.5,0-0.6-0.2c-0.3-0.2-0.5-0.3-0.8-0.5c-0.2-0.2-0.2-0.5-0.3-0.6v-0.3
		c-0.2-0.2-0.2-0.5-0.3-0.8h-0.5c-0.2,0.2-0.2,0.6-0.5,1.1c-0.3,0.2-1.1,0.2-1.7,0.2c-0.3,0-0.5-0.2-0.8-0.2L41.6,120.2L41.6,120.2z
		 M54.1,132.8c0.2,0.2,0.9,1.4,2.8-0.8c0-0.8,0-1.4,0-2.3c0.2,0,0.5,0,0.6,0c0.8,0.5,1.5,0.9,2.3,1.4c0,0.2,0.2,0.2,0.3,0.2l0.3,0.5
		c2,1.4,3.5,3.4,3.7,3.5c-0.2,0.2-0.2,0-0.3,0.3c-1.4-0.8-2.6-0.8-4-0.8c-1.5,0.2-4.1,0.8-6.3,0l-0.3-0.2c0-0.2,0-0.2-0.2-0.2
		l-0.6-0.5c-0.3-0.6-0.3-1.2-0.3-1.8l0.5-0.8c0,0,0.3,0,0.8,0l0.3,0.2v0.2C53.4,132,53.7,132.4,54.1,132.8z M20.1,114.4
		c0-0.2,0-0.6,0.2-0.9c1.8,1.1,1.7,2.1,2.9,3.5c0.2,0,0.5,0.2,0.8,0.2c0,0.2,0,0.5,0,0.8c0,0,0,0.2-0.2,0.3l-0.5,0.3
		c-0.3,0-0.6,0.5-1.1,0.6c-1.1,1.1-0.9,0.8-1.5,1.1c-0.5,0.5-2,1.4-3.4,2.6c-0.3,0-0.3,0.3-0.6,0.3c-0.2,0.2-0.5,0-0.6,0l-0.5-0.5
		c0-0.6-0.3-0.9-0.6-1.5c-0.2-0.5,0.3-1.1,0-1.7l-0.5-0.5l-0.2-0.5c0.3-0.6,0.3-0.8,0.9-1.2c0.2-0.8,0.6-1.2,1.2-2
		c0.2,0,0.3-0.2,0.6-0.2C18.3,114.9,18.5,115.9,20.1,114.4z M14,117.2h-0.3l0,0c0-0.3,0-0.6,0-1.1c-0.3-0.3-0.2-0.2-0.5-0.5
		c-0.3,0-0.3-0.3-0.8-0.3c-0.2-0.2-0.3-0.2-0.3-0.3c-0.2-0.2-0.2-0.2-0.3-0.3c0,0,0-0.2-0.2-0.2c-0.2-0.3-0.3-0.6-0.5-1.1l0.2-0.3
		c0.2,0,0.3-0.2,0.5-0.2c0.2-0.2,0.2-0.2,0.3-0.2c1.5-0.5,2.9-1.2,4.8-1.2l0.5,0.3c0.2,0.5,0.2,0.3,0.2,0.5
		C16.9,113.5,15.8,115,14,117.2z M13.1,110.9c0.3-0.5,0.5-0.8,0.9-0.9c0.3-0.2,0.5-0.3,1.1-0.5c0.9,0,2.6-0.9,4,0.2
		c1.4,1.8,0,2.5,0,4.4l-0.6,0.3l-0.3-0.2c0.3-1.4,0.8-2.3-0.5-3.4c-1.1,0-1.5-0.3-4.9,0.9C12.8,111.3,13.1,111.2,13.1,110.9z
		 M9.7,110.9c0.3-0.2,0,0.8,0.8,0.6c0.2,0,0.2,0,0.3-0.2c0-0.5,0.2-0.8,0.3-1.4c-0.2-0.5-0.8,0.2-0.9-0.3c0.3,0,0.5-0.5,0.9-0.6
		c0.2-0.2,0.3-0.2,0.6-0.2l-0.2,0.3c0,0.5,0.2,0.5,0.3,0.9c0,0.2,0.2,0.2,0,0.5v0.2c-0.2,0.2-0.3,0.3-0.3,0.8l0.2,0.3h0.2
		c0.3,0.3,0.5,0.3,0.6,0.3c-0.2,0-0.3,0.2-0.5,0.2c-0.2,0-0.2,0-0.3,0.2c-0.5,0.2-1.2,0.3-1.4,0.3l-0.2-0.2l-0.2-0.3
		c0-0.2-0.2-0.5-0.3-0.8C9.7,111,9.6,110.9,9.7,110.9L9.7,110.9L9.7,110.9z M2.7,111.9c-0.3-0.2-0.8-0.5-1.1-0.8l-0.2-0.3
		c0.8-0.8,1.5-0.9,2.3-0.9l0.2,0.5v0.9l-0.2,0.5c0,0-0.5,0.3-0.8,0.3C2.8,112.1,2.8,111.9,2.7,111.9z M9.2,140.5l-0.6,0.3
		c-0.8-0.6-1.2-0.9-1.7-1.1l-0.3-0.5l0.5-0.5c0.2-0.2,0.5-0.2,0.8-0.5c0.5,0,1.7-1.1,1.7,1.5L9.2,140.5z M30.4,139
		c-2.5,0-4.9,0.8-6.3,0.9c-0.2,0.2-4.9,0.5-5.2,0.5h-0.5h-0.2c-1.2-0.3-3.8,0.2-4.9-0.8c-0.5-0.2-0.8-0.3-1.2-0.6
		c-0.2-0.2-0.2-0.2-0.3-0.2c-2.3-1.1-3.7-3.8-2.3-6.6c0.3-0.3,0.5-0.9,1.5-1.7l1.1-0.6c0.2,0,0.3-0.2,0.6-0.2l0.5-0.5v-0.5
		c-1.1-1.7-1.1-1.4-1.2-1.7c-6-5.2-3.7-2.8-5.4-4.4c-5.2-3.7-4.1-9.2-1.2-10h0.2c2.8,0,4.3,1.1,5.1,2.6c0.3,0.5,1.1,1.7,1.2,2h0.3
		v0.2c2.3,3.5,4.4,8.7,4,12.9l0.3,0.2c0.3,0,0.8-0.8,0.8-0.9c2.3-1.4,5.4,0.5,6.9,0.5c0.2,0.2,0.2,0.2,0.5,0.3
		c0.3,0.6,0.8,0.9,1.1,1.7l0.2,0.2c1.1,0.6,0.8,0.8,2.3,2.3c0.2,0,0.3,0.2,0.3,0.2c0.6,0.2,1.4,0.6,1.8,0.8c0.2,0,0.5,0.2,0.6,0.3
		C31,136.7,30.7,137.9,30.4,139z M31.5,134.3c-2.1-0.8-1.8-0.8-2.5-0.9c-0.5-0.6-0.9-0.9-1.7-1.4c-0.5-0.9,0.5-1.8,0.3-2.9l-0.3-0.2
		c-0.3,0-0.5,0-0.6,0.2c-0.2,0.2-0.5,0.5-0.6,0.8H26c-0.3-0.3-0.9-0.5-1.2-0.9c-0.3-0.5,0-0.9-0.2-1.4c-0.3-0.2-0.3-0.2-0.5-0.2
		c-0.5,0.2-0.5,0.6-0.9,0.9c-1.2,0-2.1-0.5-2.3-0.6c0-0.5,0.5-0.8,0.2-1.4l-0.5-0.2c-0.5,0.5-0.9,0.9-1.2,1.5h-0.2
		c-0.2,0.2-0.3,0.3-0.6,0.3h-0.5l-0.2-0.3c0-0.2-0.2-0.2-0.2-0.3c-0.3-0.8-0.5-1.5-0.3-2.3c2-2.5,4.1-3.1,6.1-4.9
		c0.3,0,0.3-0.3,0.8-0.3l0,0c0.8-0.5,1.1-0.9,2.5-2.3c0.9-0.3,1.4-1.2,2.6-1.8c0.2-0.3,0.3-0.3,0.5-0.8c0-0.2,0-0.2,0.2-0.3
		c0.3-0.5,1.2-0.8,1.5-1.5c0.2-0.2,0.3-0.2,0.8-0.3H33l0.3,0.3c0.2,0.3,0.3,0.6,0.5,0.9c0.2,0.2,0.3,0.3,0.5,0.6
		c1.4,0.5,2.9,1.4,3.8,2.5l0.2,0.3c0.2,0.2,0.3,0.3,0.5,0.6c0.3,0.2,1.1,1.2,1.4,1.5l0,0c0.6,0.8,0.9,2,1.5,2.1
		c0.5,0.3,5.2,0.2,7.7,3.1c0.6,0.5,2.8,1.4,3.5,2.1c0.2,0,0.6,0.5,0.6,0.5l-0.3,0.2l0,0c-0.8,0-1.7,0.3-2.1,0.6l-0.2,0.2
		c-0.3,0.3-0.5,0.3-0.8,0.6c-1.1,1.2-1.7,2.6-2.1,4.3c-1.5,0.3-1.1-0.3-2-0.8c-0.8,0-1.1-0.3-1.5-0.6v-0.5c-0.3-0.5-0.6-1.2-1.1-1.8
		c0-0.2-0.2-0.2-0.2-0.3l-0.5-0.2l-0.3,0.2c-0.2,0.6,0.2,1.2-0.2,1.7l-0.2,0.2c-0.2,0-0.3,0-0.5,0c-0.2,0-0.5,0-0.8,0
		c-0.2,0-0.5,0-0.8-0.2c0-0.3,0-0.5-0.3-0.9l-0.2-0.2h-0.5c0,0.2-0.2,0.5-0.2,0.9c-0.2,0-0.2,0.6-2.8,1.1c-0.3,0-0.6,0.2-0.8,0.2
		c-0.2-0.5-0.2-1.1-0.2-1.7l-0.2-0.5h-0.5l-0.3,0.3c-0.3,0.8-0.2,1.5,0,2.1c-0.2,0.2-0.5,0.5-0.8,0.8
		C32.1,133.9,32.7,133.7,31.5,134.3L31.5,134.3L31.5,134.3z M50.5,140.5c-2.6,2.6-7.4,3.8-10.9,3.8c-0.8-0.5-4-0.5-5.8-2.5
		c-0.3-0.6-3.2-3.7-0.3-7.7c0.2,0,0.2-0.2,0.3-0.3c0.3,0,0.5,0,0.8-0.5l2.9-0.9c1.8,0,1.8,0,2.1,0.2c0.3,0,0.8,0,1.1,0
		c0.3,0.2,0.6,0.2,0.8,0.2c2.8,0.3,4.9,1.2,6.4,1.8c0.6,1.2,0.8,2.9,1.8,4c0.2,0.2,0.2,0.3,0.3,0.3c0.2,0,0.2,0.3,0.3,0.8v0.8H50.5z
		 M62,144.8l-0.5-0.3v-0.3c0.8-0.8,2.1-1.8,2-3.5c-0.5-1.1-1.2-2-2.1-2.9c-0.5-0.2-0.9-0.3-1.5-0.8c-0.9,0-2.9-0.8-4.3,0l-0.2,0.5
		l0.2,0.3c0.5,0,1.1,0,1.5,0.2c2.3,0.3,4.3,0.9,5.1,3.1v0.5c-0.3,0.5,0,0.3-0.6,0.9c-1.5-2.3-5.7-3.4-8.1-4.6l0,0
		c-0.2-0.2-0.3-0.3-0.5-0.3c-0.6-0.6-0.9-0.6-2-2.5c0.2,0,0-0.2-0.2-0.3c-0.2-0.2-0.2-0.2-0.3-0.3l-0.2,0.2c0,1.7,0.8,2.3,2,3.7
		c0.2,0,0.2,0,0.2,0.2c1.1,0.8,3.4,1.4,4.6,2.3c2.3,1.5,1.5,4,0.3,6.8l-0.3-0.2c0-0.2,0-0.2,0-0.2c-0.3-1.4,0.2-2.9-0.2-4.6
		c0-0.2-0.3-0.3-0.3-0.8h-0.5c-0.6,0.6,0,1.7-0.2,2.3c-0.2,0.6-0.3,0.8-0.5,1.2c-0.3,0.5-0.6,0.9-1.2,1.2c-0.3,0-0.9,0.3-1.4,0.3
		c0,0-0.2,0-0.3,0c0,0-0.2,0-0.3,0l-0.5-0.5c0.8-1.1,2-1.8,2.3-2.9c-0.2-1.2-0.8-2.3-1.2-2.9c0-0.2-2-2.9-2.1-3.1
		c-0.3-0.5-0.6-0.9-0.9-1.4c-0.9-1.7-1.1-3.4,0-5.5c0.2-0.3,0.5-0.8,0.9-1.1c0.2-0.2,0.3-0.3,0.5-0.5c1.1-0.8,2.5-0.6,3.1-0.3
		c0.6,0,1.1,0.8,1.2,1.4v0.6l-0.2,0.3h-0.3c-0.2-0.3-0.5-0.8-0.9-1.2c-0.2,0-0.5,0-0.8,0c-0.2-0.2-0.6-0.2-0.8,0
		c-0.6,0-0.6,0.2-1.2,0.5l-0.2,0.3c-0.2,0.2-0.3,0.5-0.3,0.6c-0.3,1.1,0.3,2.6,0.6,3.2c0.5,0.5,0.3,0.3,1.2,0.9c0,0,0.5,0.3,0.8,0.3
		c3.5,1.2,7.2-1.2,10.6,1.1c0.2,0,0.2,0.2,0.2,0.2c0.5,0.6,2.3,3.1,3.1,3.1c0.2,0.2,0.8,0.2,1.2,0.2v0.5c-0.8,0.5-2.8,0-3.4,0.3
		C64.3,141.4,65.4,143.6,62,144.8z M65.7,146c-0.2,0-0.3,0.2-0.5,0.2c-0.2-0.2-0.5-0.2-0.8-0.3c-0.2-0.2-0.3-0.2-0.5-0.2
		c0-0.2-0.2-0.2-0.2-0.2v-0.6c0,0,0.2-0.2,0.6-0.2h0.3h0.3l0.2,0.2c0.3,0.3,0.5,0.3,0.6,0.8L65.7,146L65.7,146z M77.2,148
		c-0.2,0-0.2,0-0.2-0.2c-0.9-0.3-1.7-0.8-2.5-1.2c-0.6-0.3-1.2-0.6-1.8-0.9h-0.2h-0.2v0.2c0,0.5,0,0.8,0.2,1.1c0,0.2,0,0.3,0,0.8
		c-0.2,0,0,0-0.2,0.2l-0.3-0.2c-0.2-0.3-0.3-0.3-0.5-0.8c-0.5-0.5-0.9-1.4-1.7-2c-0.2-0.2-0.2-0.2-0.3-0.3c-0.5-0.2-0.9-0.5-1.5-0.6
		c-0.3,0-0.6-0.2-0.8-0.2c-0.5-0.2-0.8-0.2-1.2-0.2l-0.2-0.2v-0.6c0.2-0.2,0.2-0.6,0.3-0.8c2,0,3.2-0.3,6.3,1.4
		c0.8,0.5,1.5,0.9,2.1,1.5c0.3,0.3,0.5,0.5,0.8,0.8c0.5,0.8,1.1,1.1,1.8,1.4c0.2,0.2,0.3,0.2,0.5,0.3L77.2,148z M80.8,139.3
		L80.8,139.3c-0.6,1.1-0.2,2.3-0.2,3.5c-0.6,1.2-2.5,2-2.9,2.1c0,0,0,0-0.2,0c-0.2,0-0.3,0.2-0.6,0.2c-0.9,0-1.7-1.1-3.1-1.4
		c0-0.5-0.5-0.6-0.5-1.1c-0.2-0.3-0.2-0.6-0.5-0.8c-0.2-0.3-0.6-0.2-0.9-0.2s-0.3,0.3-0.8,0.3c-0.3-0.2-1.1-0.2-1.5-0.5
		c-0.2-0.5,0.3-0.9,0.2-1.5l-0.5-0.5c-0.3,0-0.2,0-1.5-0.5h-0.2l-0.2-0.5c0.2,0,0.3,0,0.3-0.2c2-0.5,4.6-2.5,6.4-3.1
		c0.2,0,0.2,0,0.2,0c1.1-0.2,3.5,0,4,0.5c0.3,0.2,0.8,0.2,1.1,0.5c0.2,0,0.3,0.5,0.8,0.8C80.8,137.3,81.2,138.3,80.8,139.3z
		 M105.3,140.2c-1.2,1.2-2.8,2.1-4.3,2.8h-0.2c-5.2,1.4-8.1,0.6-12.6-1.1v-0.2c0.2-0.2,0.5-0.5,0.6-0.8l0.2-0.2h-0.2v-0.2
		c-0.2-0.2-0.3-0.2-0.8-0.3H88l-0.6,0.2c-0.2,0.5-0.2,0.6-0.6,1.1c-1.1,0.2-3.7,0-4.8,0l-0.5-0.5c0,0,0,0,0-0.2
		c-0.2-0.3,0-0.3,0-1.4c0.2-0.5,0.5-0.9,0.9-1.4c1.4-0.6,3.4-0.9,4.8-0.9c0,0.2,0.2,0.3,0.2,0.8c0.2,0.2,0.3,0.5,0.6,0.6h0.3
		l0.2-0.2l0.2-0.3c0,0,0.2-0.2,0.2-0.3c0.2,0,0.2-0.3,0.2-0.5c0,0,0-0.2-0.2-0.2c0-0.2-0.2-0.2-0.2-0.3s0.2-0.2,0.2-0.2
		c0.8-0.2,3.4-1.4,4.3-1.8c0.5-0.5,6.3-3.4,10.7-2.8c0.3,0.2,0.2,0,0.6,0.5c-0.2,0.3-0.3,0.8-0.3,1.1c-0.2,0.9-0.2,1.8,0,2.6
		c0.2,0.2,0.2,0.2,0.2,0.3l0.3,0.6c0.2,0,0.5,0.2,0.8,0.3h0.2c0.3,0,0.5,0.2,0.8,0.2c0,0,0.3,0.3,0.3,0.8
		C106.2,139.1,105.8,139.6,105.3,140.2z M106.4,133.4c0.3,0,0.5-0.2,0.6-0.2c0.9-0.2,1.8-0.3,2.8-0.3c0.2,0,1.8-0.2,2-0.3
		c0.6-0.2,6.1-2.9,12.1-1.2c0.3,0,0.6,0.2,0.9,0.3c0.2,0,0.2,0.2,0.2,0.2c0.3,0.2,0.5,0.8,0.9,0.8c0.9,0.8,2,2.3,2,4.1
		c0,0.3-0.2,0.8-0.3,1.2c-0.2,0.3-0.3,0.6-0.6,0.9c-0.9,1.1-1.4,0.9-2.1,1.2c-4.8,0-3.1,1.5-13.2-2.8c-0.9-0.5-4.8-1.5-6.3-1.5
		c-0.2-0.6-0.2-0.9,0-1.5c0.2,0,0.2-0.2,0.2-0.2C105.6,133.9,105.9,133.7,106.4,133.4z M117.7,121.5c0,0.2-0.2,0.2-0.2,0.2
		c-3.1,3.1-5.5,3.1-7.1,4.1c-0.2,0-0.5,0.2-0.8,0.3c-2.1,1.1-4.3,2-5.7,4c0,0,0,0-0.2,0c-0.6,0.5-0.5,0.5-1.2,0.5
		c-0.5-0.2-0.8,0-1.2-0.3c-0.6-3.2,1.7-9.2,3.4-10.7l0.3-0.2c0.3-0.5,0.8-0.8,1.4-1.2c0-0.2,0.3-0.2,0.5-0.3c0.2,0,0.5,0,0.5-0.3
		c0.6-0.3,1.5-0.8,2.1-0.9c0.3,0,0.5-0.2,0.8-0.3c1.4-0.3,3.8-0.9,5.1-0.2c0.3-0.2,0.5,0.3,0.8,0.5c0,1.1,0,2.6,0.3,3.1
		c0.2,0,0.3,0.3,0.8,0.3l0,0h0.3l0.2,0.2l0.2,0.3C118.2,120.8,117.9,121,117.7,121.5z M128.8,117.6c-1.8,0.3-2.3,1.1-10,1.1h-0.3
		H118c-0.2,0-0.2,0-0.3-0.2c0,0-0.2-0.2-0.3-0.3c-0.3-0.5,0-0.6,0.2-0.9c0.2-0.2,0.2,0,0.5-0.3c0.2,0,0.3,0,0.5,0
		c5.5,0,7.8-8.4,13-6.9c0.5,0.2,0.9,0.3,1.5,0.6c0,0.2,0,0.2,0.2,0.2c0.5,0.6,0.2,0.9,0.5,2.3C131.7,116.9,129.1,117.3,128.8,117.6z
		 M134.3,108.3c-0.2,0-0.9,0.5-1.5,0.5c-0.2-0.2-0.6-0.2-0.8-0.5c-0.2-0.5-0.5-1.1-0.3-1.7l0.2-0.2c0.5-0.2,0.9,0,1.2,0.2
		c2.1,0.9,1.2,0.5,1.5,1.2L134.3,108.3z"/>
	<path class="st0" d="M129.5,115.2h-0.2c-0.2,0.3,0,0.5,0.2,0.6h0.2C129.9,115.6,129.7,115.3,129.5,115.2L129.5,115.2z"/>
	<path class="st0" d="M118.5,136.7c0.2-0.2,0.2-0.2,0.2-0.3c-0.2-0.2-0.2-0.5-0.6-0.5h-0.3l-0.2,0.5l0.3,0.3
		C118.2,136.7,118.3,136.7,118.5,136.7z"/>
	<path class="st0" d="M118.2,133c0.3-0.2,0.2,0,0.8-0.3c0-0.3,0-0.5,0-0.6l-0.5-0.2l0,0l-0.3,0.2c0,0.3-0.3,0.5,0,0.8V133z"/>
	<path class="st0" d="M114.1,135.9L114.1,135.9c0.3-0.2,0.9-0.5,0.9-0.8l-0.2-0.5c-0.3,0-0.5,0-0.8,0c-0.2,0-0.3,0-0.6,0.2v0.3
		c0,0.3,0.2,0.6,0.2,0.8H114.1z"/>
	<path class="st0" d="M123.9,138.8c0.2-0.2,0.5-0.2,0.6-0.2c0.3-0.2,0.6-0.5,0.9-0.6l-0.3-0.6c-0.3,0-0.6,0-1.1,0
		c-0.2,0.6-0.5,0.8-0.3,1.4C123.7,138.8,123.9,138.8,123.9,138.8z"/>
	<path class="st0" d="M121.3,135.4c0.8-0.3,0.5-0.2,0.9-0.8l-0.2-0.3c-0.3-0.2-0.3-0.2-0.8-0.2l-0.2,0.2c-0.2,0.3-0.2,0.5,0,0.8
		L121.3,135.4z"/>
	<path class="st0" d="M110.4,118.1c-0.2-0.3-0.3-0.5-0.6-0.5l-0.5,0.2c-0.2,0.2-0.2,0.5,0,0.6c0.6,0.5,0.5,0.3,0.6,0.5
		C109.9,118.7,110.4,118.7,110.4,118.1z"/>
	<path class="st0" d="M106.8,123.6l-0.3,0.5c0,0.3,0.2,0.8,0.3,0.8h0.2h0.2c0.5-0.5,0.5-0.5,0.5-1.2
		C107.5,123.3,107.1,123.6,106.8,123.6z"/>
	<path class="st0" d="M105.3,121.5c-0.3,0-0.5,0-0.5,0.2c-0.2,0.3,0.2,0.8,0.2,0.8h0.3h0.2l0.3-0.5v-0.5h-0.3H105.3z"/>
	<path class="st0" d="M110.4,134.8C110.5,134.8,110.5,134.7,110.4,134.8c0.5-0.2,0.6-0.3,0.8-0.5c0-0.2,0-0.6,0-0.8
		c-0.3,0-0.6,0-1.1,0l-0.2,0.2l0,0.5l0.3,0.5h0.2V134.8z"/>
	<path class="st0" d="M104.1,126.4c-0.2,0-0.3,0-0.3,0.2c-0.2,0.2-0.2,0.6,0.3,0.8h0.2l0.3-0.2c0.2-0.3,0.2-0.6,0-0.8
		C104.4,126.5,104.2,126.5,104.1,126.4z"/>
	<path class="st0" d="M41.6,139.1c0.2,0,0.2-0.3,0-0.3c0-0.2-0.3-0.2-0.3-0.5l-0.3-0.2c-0.2,0-0.8,0-1.1,0.2v0.2
		c0.2,0.3,0.6,0.5,0.9,0.5c0.2,0.2,0.2,0.2,0.3,0.2C41.3,139.3,41.6,139.3,41.6,139.1z"/>
	<path class="st0" d="M16.9,116.5L16.9,116.5c-0.3,0.6-0.8,1.2-0.5,2c0.2,0,0.5,0,0.6,0c0.6-0.5,0.6-1.2,0.5-1.8L16.9,116.5z"/>
	<path class="st0" d="M21.5,118.5l0.3-0.2l0.2-0.6c-0.2-0.5-0.5-0.9-0.6-1.2c-0.2-0.2-0.2-0.2-0.2-0.3c-0.5,0.2-0.5,0.3-0.6,0.6
		c0,0.3,0,0.2,0.2,0.8C20.8,117.6,21.5,118.4,21.5,118.5z"/>
	<path class="st0" d="M50.8,122.7c0.6-0.5,0.3-0.6,0.3-1.1c-0.2-0.5-0.2-0.6-0.3-0.9l0,0h-0.3C50.1,121.3,50.5,122.1,50.8,122.7
		L50.8,122.7z"/>
	<path class="st0" d="M53.3,122.1v0.2l0.2,0.2l0.3,0.2h0.2c0-0.6-0.3-1.2-0.6-1.7c0,0,0-0.2-0.2-0.2c-0.5,0.2-0.3,0-0.5,0.2
		c0,0.2,0.2,0.5,0.2,0.8C53.1,121.6,53.1,121.9,53.3,122.1z"/>
	<path class="st0" d="M57.1,127.3c0.3,0,0.2,0,0.5,0c0.2-0.3-0.2-0.6-0.2-0.8c-0.3-0.2-0.3-0.2-0.5-0.3h-0.3c-0.2,0.3,0,0.6,0.2,0.8
		L57.1,127.3z"/>
	<path class="st0" d="M18.5,116.9c0,1.1-0.2,1.4,0.5,1.8l0.5-0.5c0-0.6,0-1.2,0-1.7C19.2,116.4,18.5,116.4,18.5,116.9z"/>
	<path class="st0" d="M6.5,121c0.2-0.2,0,0,0.3-0.3c-0.2,0-0.2-0.2-0.3-0.2C6.2,120.7,6,120.8,6.5,121z"/>
	<path class="st0" d="M7.7,114.9c-0.2,0-0.3,0-0.3,0.2c0,0.3,0,0.6,0.3,0.6c0.3-0.2,0.6-0.5,0.3-0.6C8,114.9,7.9,114.9,7.7,114.9z"
		/>
	<path class="st0" d="M5.1,116.5v0.5c0.2,0,0.2,0,0.2,0c0.3,0,0.3-0.5,0.3-0.5H5.4H5.1z"/>
	<path class="st0" d="M9.7,119.8c0,0,0,0-0.2,0v0.5c0.2,0,0.2,0,0.2,0C9.9,120.1,9.9,119.8,9.7,119.8z"/>
	<path class="st0" d="M74.6,128.1l0.3-0.3c-0.2-0.2-0.5-0.8-0.6-0.9C74.2,127.3,74,127.6,74.6,128.1z"/>
	<path class="st0" d="M33.3,128.1C33.5,127.9,33.5,127.9,33.3,128.1c0.5-1.1,0.2-2.3-0.3-3.1h-0.6c-0.2,1.1,0,2.1,0.3,3.1H33.3z"/>
	<path class="st0" d="M74.5,133.1l0.5,0.2h0.2c0-0.3-0.2-0.5-0.2-0.8l-0.5-0.5c-0.2,0-0.3,0-0.5,0l-0.2,0.2
		C74,132.5,74.3,132.7,74.5,133.1L74.5,133.1z"/>
	<path class="st0" d="M79.1,130.8c0.5,0,0.5-0.2,0.5-0.5c-0.3-0.5-0.3-0.8-0.5-0.9c-0.3-0.3-0.5-0.5-0.6-0.6v-0.2
		c-0.2-0.5-0.5-0.5-0.5-0.6l-0.2-0.2l-0.2,0.3C78,130.1,78.6,130.1,79.1,130.8z"/>
	<path class="st0" d="M59.7,127L59.7,127l0.3,0.2l0.5-0.2l-0.2-0.5c-0.2-0.3-0.5-0.5-0.6-0.6c-0.3-0.2-0.2,0-0.6-0.3h-0.3
		c0,0.8,0.3,0.6,0.3,0.9L59.7,127z"/>
	<path class="st0" d="M67.1,130.4c0.2,0.3,0.2,0.5,0.6,0.6c0.2,0,0.2-0.2,0.2-0.2c0.2-0.2,0.2-0.2,0-0.2c-0.8-1.7-1.1-1.8-1.5-2
		l-0.3,0.2c0,0.3,0,0.2,0.5,1.2C66.8,130.1,66.9,130.2,67.1,130.4z"/>
	<path class="st0" d="M64.3,132c0.2,0,0.5,0.3,0.5-0.5c-0.2-0.3-0.2-0.6-0.3-0.8l-0.2-0.2l-0.3-0.2c-0.2,0.2-0.2,0-0.3,0.2
		C63.6,131,64,131.6,64.3,132z"/>
	<path class="st0" d="M72.6,129.6l0.3-0.3c0-0.8-0.5-1.5-0.6-1.7l-0.2-0.2l-0.3-0.2l-0.2,0.2C71.7,128.4,72.3,129.4,72.6,129.6z"/>
	<path class="st0" d="M69.9,130.4l0.3-0.3c0-0.8-0.5-1.1-0.5-1.8c-0.2-0.2,0,0-0.6-0.3l-0.3,0.2c0.2,0.6,0.3,1.2,0.8,1.7
		C69.4,129.9,69.6,130.2,69.9,130.4z"/>
	<path class="st0" d="M77.5,133L77.5,133h0.3c0.2-0.5,0-0.6-0.2-0.9c0,0,0,0,0-0.2c-1.1-0.9-0.3-0.8-1.1-1.2h-0.3l-0.3,0.2v0.5
		c0.3,0.5,0.6,0.9,0.9,1.2C77.1,132.7,77.4,132.8,77.5,133z"/>
	<path class="st0" d="M43.2,127.6l0.3,0.2h0.5l0.3-0.5v-0.2c-0.5-0.9-1.5-2-1.7-2.1l-0.5,0C41.9,125.8,42.2,126.5,43.2,127.6z"/>
	<path class="st0" d="M47.6,127.3l0.3-0.3c-0.2-0.3-0.3-0.5-0.5-0.8c-0.6-0.6-1.2-1.7-1.4-1.8c-0.2-0.2-0.5-0.3-0.8-0.3l-0.3,0.2
		v0.3c0,0.3,0.3,0.5,0.3,0.6C46.5,126.5,46.7,127.3,47.6,127.3z"/>
	<path class="st0" d="M39.5,125.4h-0.6c-0.2,0.9,0.3,1.4,0.6,2.3l0.2,0.2l0.3,0.2h0.5c0-0.3,0-0.5,0-0.8c-0.3-0.5-0.6-1.4-0.8-1.7
		v-0.2H39.5z"/>
	<path class="st0" d="M38.9,122.5l0.2,0.2l0.5-0.3c-0.2-1.2-0.9-2.1-1.1-2.5l-0.5,0.2C37.8,121.2,38.6,121.8,38.9,122.5L38.9,122.5
		L38.9,122.5z"/>
	<path class="st0" d="M46.5,129L46.5,129l-0.6,0.2v0.5c0.2,0.2,0.8,1.5,1.2,1.8l0.3-0.5v-0.5C47.1,129.9,47,129.3,46.5,129z"/>
	<path class="st0" d="M36.1,123.1c1.5,0,0.2-1.4,0-2.9l-0.3-0.2l-0.5,0.3c-0.2,0.9,0.3,2,0.8,2.6V123.1L36.1,123.1z"/>
	<path class="st0" d="M36.1,125.4L36.1,125.4l-0.3,0.5c0,0.8,0,1.2,0.3,1.8v0.2c0.3,0,0.2,0,0.6,0c0.5-0.8-0.2-1.7-0.3-2.3
		L36.1,125.4z"/>
	<path class="st0" d="M12.8,134.8c0-0.8,0.3-1.2,0.2-2l-0.6-0.3c-0.3,0.2-0.3,0.2-0.6,0.3l-0.2,0.3l0.2,0.5
		c-0.3,0.6-0.3,0.2-0.3,1.2c0.3,0.3,0.3,0.9,0.6,1.2l0.2,0.2c0.5,0.5,0.6,0.3,0.9,0.3l0.3-0.2c0.2-0.2,0.2-0.2,0.2-0.2
		c0.2-0.3,0.2-0.5,0.2-0.6h-0.2C13.1,135.4,12.9,135.1,12.8,134.8z"/>
	<path class="st0" d="M26.7,135.9c-0.2,0-0.6-0.2-0.8-0.3h-0.2l-0.5,0.2v0.3c0.2,0.2,0.3,0.3,0.5,0.5s0.5,0.2,0.6,0.3l0.2-0.2
		l0.2-0.2C26.7,136.2,26.9,135.9,26.7,135.9z"/>
	<path class="st0" d="M17.8,132.8h-0.3h-0.3l-0.2,0.2c0,0.3,0,0.5,0,0.8l0.2,0.3c0.2,0,0.2,0,0.3,0c0.2-0.2,0.3-0.3,0.5-0.5
		C17.8,132.8,17.8,133,17.8,132.8z"/>
	<path class="st0" d="M16.5,136.7c-0.3,0-0.6,0.3-0.6,0.6l0.2,0.3c0.3-0.2,0.5,0,0.8-0.2l0,0v-0.2c0-0.2-0.2-0.3-0.2-0.5L16.5,136.7
		z"/>
	<path class="st0" d="M10.5,123.1l-0.2,0.2c-0.2,0.2,0,0.5,0.2,0.6c0.2,0,0.2,0,0.3,0C10.8,123.6,10.8,123.1,10.5,123.1L10.5,123.1z
		"/>
	<path class="st0" d="M13.4,123.6h-0.2l0.2,0.3C13.7,124.2,13.7,123.8,13.4,123.6L13.4,123.6L13.4,123.6z"/>
	<path class="st0" d="M20.3,137.3l-0.3,0.2v0.3c0.2,0.3,0.6,0.2,0.8,0.6h0.2c0.2,0,0.3-0.2,0.3-0.2c0.2-0.2,0.2-0.5,0.2-0.6
		l-0.2-0.2C20.9,137.3,20.6,137.3,20.3,137.3z"/>
	<path class="st0" d="M21.4,130.4L21.4,130.4l-0.5,0.2v0.6l0.2,0.2c0.3,0,0.2,0,0.5-0.2C21.4,130.8,21.7,130.7,21.4,130.4z"/>
	<path class="st0" d="M116.5,91.2c0.6,0.2,1.2,0.5,1.8,0.3v-0.3c-0.2-0.5-0.3-0.8-0.6-0.9v-0.2c-0.6-0.2-0.8-0.3-1.2-0.6
		c-0.3,0-0.5-0.2-0.6-0.3c-1.2,0-2.1,0-3.2,0c-0.8,0.3-0.9,0.6-1.5,0.6c-0.6-0.3-1.2-0.6-1.8-0.9c-0.6-0.5-1.1-0.8-1.4-1.1h-0.3
		c-0.6-0.6-1.2-1.1-2.1-1.2c-0.5-0.3-0.5-0.6-0.9-0.6c-0.9,0-2.5-0.3-3.1,0c-0.2,0-0.2,0-0.2,0v0.5c0,0,0,0,0.2,0.2
		c0.6,0.9,4.4,4.8,6.3,6.9l0.2,0.3V94c-0.2,0.3-0.2,0.8-0.3,1.1c-0.6,3.1,1.4,6,3.7,6.4l0,0h0.8c0.3-0.2,0.2-0.5,0.2-0.8
		c-0.3-0.5-0.6-1.2-0.9-1.7v-0.2c-0.6-3.1,0-3.2,0-3.7c0.2-0.2,0.2-0.5,0.3-0.6c2.1-2.3,4.9,0.5,5.5,0.6h0.3
		c0.3-0.3,0.2-1.1,0.2-1.4c-0.8-1.2-0.9-1.4-1.8-2.1l0.2-0.3C116,91.2,116.4,91.2,116.5,91.2z"/>
	<path class="st0" d="M89,108.6c0.2-0.5,0-0.8-0.2-1.1c-0.3-0.3-0.2-0.3-0.3-0.3c-0.5,0.6-0.5,1.2-0.2,1.7
		C88.7,108.6,88.6,108.6,89,108.6z"/>
	<path class="st0" d="M87.4,107h-0.5c-0.3,0.3-0.6,0.5-0.9,0.6l-0.3,0.5c-0.2,0.8,0.2,1.5,0.5,2.1c0.6,0.2,0.3,0.5,2.5,0.2
		c1.1-0.2,2-0.5,2.9-0.8l0.3-0.8c0.2-1.5-0.5-3.2-0.5-4.6l-0.3-0.5c-0.3-0.2-1.2-0.2-1.5,0.2l-0.2,0.3c-0.2,1.5,0.6,3.1,0,4.1
		c-0.3,0.5-0.6,0.3-1.5,0.3C87.5,108.1,87.8,107.3,87.4,107z"/>
	<path class="st0" d="M104.7,44.4c-0.6-0.8-1.2-1.2-1.8-1.8c-0.3-0.2-0.5-0.5-0.8-0.6c-0.2-0.2-0.5-0.3-0.8-0.5s-0.6-0.3-1.1-0.6
		h-0.2l-0.3,0.3c0,1.5,0.5,2,0.8,2.3c0.3,0.2,0.6,0.3,0.9,0.6c0.2,0.2,0.5,0.3,0.8,0.6c0.3,0.3,0.6,0.6,0.8,0.9
		c0.8,1.1,1.2,2.5,1.7,3.7c3.1,13.3-9.8,25-5.1,32.7c0.5,0.8,1.1,1.4,1.8,1.8c0.5,0.2,0.6,0.5,2.1,0.5c0.6,0,1.4-0.2,1.7-0.6
		l0.3-0.2c0.2-0.3,0.6-0.8,0.6-1.1c0.3-0.9,0.3-2.1-0.5-2.9c-0.3-0.2-0.6-0.5-0.9-0.6c-0.5,0-0.6-0.2-0.8,0c-0.6,0-0.8,0.3-1.1,0.5
		c-0.2,0-0.3,0.2-0.5,0.3c-0.5-0.5-0.5-0.6-0.6-1.1c0-1.2,0-2.3,0.2-3.8c0.2-0.5-0.2-0.2,0.9-3.5c1.2-4,2.9-7.1,3.7-11
		c0-0.2,0-0.3,0-0.5C107.3,54.3,107.6,48.9,104.7,44.4z"/>
	<path class="st0" d="M95.3,94.3L95,94.8v1.5c0.3,0.2,0.3,0.6,0.6,0.6c0.2,0,5.7-0.6,5.8-0.6c0.2,0,0.5-0.2,0.8-0.2l0.2-0.2
		c0-0.5,0.3-1.2-0.2-1.5l0,0l-0.5-0.3h-0.2c-2,0-3.8-0.2-5.8,0.3C95.5,94.3,95.5,94.3,95.3,94.3z"/>
	<path class="st0" d="M99.3,93.4l0.5-0.3l0.2-0.5l-0.3-0.5L99,92c-0.3,0.2-0.6,0.2-0.6,0.5l0.2,0.5C98.7,93.2,98.9,93.4,99.3,93.4z"
		/>
	<path class="st0" d="M106.8,60.7c0.5,3.5-0.6,6.3-0.6,9.7c1.2-0.3,0.5-0.8,1.1-1.1c1.2-3.2,1.8-6,1.7-9.1l-0.2-0.3l-0.3,0.2
		c0,0.5,0,0.9-0.3,1.2l-0.2,0.2c-0.5-0.3-0.5-0.8-0.8-0.9L106.8,60.7z"/>
	<path class="st0" d="M101.3,60.4l0.2-0.2c0.3-1.1,0.3-2.9,0-3.4c-0.3-0.2-0.6-0.2-0.9-0.2l-0.5,0.5c-0.3,1.1,0,2.1,0,3.2l0.5,0.3
		C100.9,60.7,101.2,60.5,101.3,60.4z"/>
	<path class="st0" d="M107.6,54.9c0.2,0.6,0.6,0.9,0.8,1.4l0.2,0.2c0.3-0.2,0.6,0,0.8-0.2c1.1-1.4,1.1-3.7,0.8-5.5l-0.3-0.2h-0.3
		l-0.5,0.3c-0.3,1.1,0,2-0.3,2.9l0.2,0c-0.3-0.9-0.2-2-0.6-2.8h-0.5l-0.3,0.3C107.3,52.6,107.5,53.6,107.6,54.9z"/>
	<path class="st0" d="M102.5,62.2c0-0.5,0.2-0.8,0-1.2c-0.2,0-0.3-0.2-0.3-0.2c-0.5-0.2-1.4,0.3-1.7,0.5l-0.2,0.5v1.1l0.5,0.2
		c0.3,0,1.2-0.3,1.4-0.5C102.2,62.5,102.2,62.7,102.5,62.2z"/>
	<path class="st0" d="M94,102.1l0.8-0.3c0-0.9,0.3-1.5,0.3-2.3c0.3-0.2,0.3-0.3,0.6-0.5h0.3l0.3,0.5c0,0.6,0,1.2,0,1.7l0.6,0.6h0.6
		l0.3-0.5c0.3-1.2,0.2-2.6-0.5-3.7c-0.8-0.5-0.9-0.6-1.4-0.8c-0.2,0-0.3,0.2-0.5,0.2c-0.6,0-1.2,0.3-1.7,0.6c-0.8,0.9-0.8,0.5-0.8,4
		l0.3,0.5H94z"/>
	<path class="st0" d="M101.9,91.7l-0.5-0.2l-0.3,0.2c0,0.3,0,0.8,0,1.1l0.3,0.3l0,0l0.6-0.2l0,0c0.2-0.2,0.3-0.5,0.3-0.8l-0.3-0.2
		l0,0L101.9,91.7z"/>
	<path class="st0" d="M103,59.8l0.3-0.2c0.5-0.9,0.5-1.8,0.5-2.8l-0.2-0.5l-0.6-0.2l-0.2,0.2c-0.3,0.3-0.3,0.3-0.5,0.8
		c-0.2,0.9,0,1.8,0.3,2.8l0.3,0.2L103,59.8z"/>
	<path class="st0" d="M95.6,101.7c0.5-0.5,0.2-1.5,0.2-2.1c-0.2,0-0.2,0-0.2,0c-0.3,0.5-0.2,1.4-0.3,2L95.6,101.7z"/>
	<path class="st0" d="M99.9,51.5c0.3,1.5,0.3,2.8,0.6,4.1l0.3,0.2c0.2,0,0.3,0,0.6-0.2c0.2,0,0.5-0.2,0.8-0.2
		c0.3-0.2,0.6-0.3,0.8-0.3s0.3,0,0.5-0.2c0.3-0.3,0.8-0.6,0.8-1.1c0-1.2-0.2-2.1-0.5-3.4c-0.2-0.3-0.5-0.2-0.8-0.2l-0.2,0.2
		l-0.3,0.5c0,0.5,0.2,1.2,0.2,1.7l-0.3,0.5v0.2h-0.3c-0.3-0.2-0.3-0.6-0.3-0.8s0-0.5,0-0.6c-0.2-0.5-0.2-0.8-0.3-1.1l-0.3-0.2h-0.8
		C99.9,50.9,99.9,51.3,99.9,51.5z"/>
	<path class="st0" d="M114.1,60.4l-0.2,0.6c0.2,1.8,0,3.4,0,5.1l-0.3,0.5c-0.3,5.1-1.5,10.3-4.1,14.6c0,0.3-0.2,0.8-0.2,1.1l0.2,0.3
		h0.3c0.5-0.2,0.8-0.3,0.9-0.5c0.2-0.2,0.3-0.5,0.5-0.6c5.5-6.1,5.5-14.6,6.3-15.2c0-2.3,0.8-4.6,0.2-6.9h-0.3
		c-0.5,0-0.5,0.5-0.8,0.5c-0.2,0.5-0.2,0.9-0.2,1.2c-0.3,2.8-0.5,5.5-1.5,8.3l-0.3-0.2c-0.2-3.1,0.8-6.4,0.2-9.2l-0.5-0.2
		C114.2,59.9,114.2,60.2,114.1,60.4z"/>
	<path class="st0" d="M113.4,44.7c-0.8,0.8-0.3,0.8-0.5,1.2h-0.2c-0.3-0.2-0.3-0.3-0.6-0.6l-0.5-0.2l-0.3,0.2
		c-0.3,0.8-0.2,1.8,0.2,2.5c0.3,0.3,0.5,0.3,0.8,0.5l0.2,0.2c0.3,0,0.8-0.2,1.1-0.2c0.3-0.5,0.8-0.6,0.8-0.9c0-1.1,0.3-1.8,0-2.8
		C113.7,44.7,113.6,44.7,113.4,44.7z"/>
	<path class="st0" d="M116.5,47.8c0.2-0.2,0.3-0.2,0.5-0.2c0.5-0.6,0.9-1.2,0.8-3.4c-0.2-0.2-0.2-0.5-0.3-0.6H117
		c-0.9,0.6-0.3,1.7-0.6,2.1L116,46l-0.2-0.2c-0.3-0.5-0.2-1.1-0.3-1.4l-0.2-0.2l-0.3,0.2c-0.5,0.9-0.3,2.3,0.3,3.2
		C116,47.7,115.4,47.8,116.5,47.8z"/>
	<path class="st0" d="M110.2,59.6c-0.5,5.5-2.3,12.3-4.1,16.6l0.2,0.2c0.5,0,0.5,0,0.5,0c0.8-0.3,1.8-1.2,2.1-1.8
		c0.2-0.3,0.5-0.3,0.5-0.6c2.5-4.1,4.1-9.4,3.7-14.3l-0.2-0.2l-0.3-0.2l-0.3,0.3l-0.5,0.5c0.2,1.5-0.2,3.1-0.5,4.6
		c-0.2,0.8-0.3,1.4-0.6,2c-0.2,0.3-0.3,0.5-0.3,0.8c0.3-2.5,1.1-4.8,0.9-7.4l-0.3-0.3l-0.6-0.3L110.2,59.6z"/>
	<path class="st0" d="M116,57.5c0.2,0,0.5,0,0.6-0.2c0.3-0.2,0.6-0.5,0.9-0.8c0.6-2.5,0.3-4.9,0.3-7.2c-0.5-0.2-0.5,0.3-0.6,0.3
		c-0.6,1.5,0,3.2-0.6,4.4l-0.3,0.2l-0.2-0.2c-0.5-1.5-0.2-3.1-0.3-4.6c-0.3,0-0.5,0.2-0.8,0.2L115,50
		C114.2,55.8,114.8,56.6,116,57.5z"/>
	<path class="st0" d="M110.5,45.8c-0.3,0-0.8,0-0.8,0.2c-0.3,0.3-0.2,0.9-0.5,1.1H109c-0.3-0.3-0.5-0.5-0.6-0.8
		c-0.8,0.2-0.8-0.3-0.8,1.1c0,0.6,0.3,0.8,0.5,0.9c0.3,0.3,0.5,0.5,0.8,0.5c0.5,0,1.1-0.2,1.4-0.3c0.2-0.3,0.3-0.8,0.5-0.9
		C110.5,47,110.8,46.4,110.5,45.8z"/>
	<path class="st0" d="M101.2,47.7h0.3h0.3c0.2,0,0.3,0.2,0.5,0.3c0.2,0,0.2,0,0.3,0h0.3l0.2-0.3c-0.2-0.5-0.3-0.9-0.5-1.1
		c0,0-0.2-0.3-0.3-0.3c-0.3-0.3-0.5-0.6-0.8-0.9c-0.3-0.3-0.6-0.6-0.9-0.8h-0.2c-0.3,1.2-0.2,2.3-0.2,3.4l0.2,0.3
		C100.9,48.3,101.2,47.8,101.2,47.7z"/>
	<path class="st0" d="M100.2,68.1c0.6-0.9,1.4-2.3,1.4-3.4h-0.2c-0.6,0-0.9-0.5-1.2-0.2c0.2,1.2-0.3,2.5-0.3,3.7L100.2,68.1
		L100.2,68.1z"/>
	<path class="st0" d="M111.6,56.2l0.5,0.3c0.3,0,0.8,0,0.9-0.3c1.1-1.7,1.2-3.8,1.1-5.8l-0.5-0.5h-0.2c-0.3,0.3-0.5,0.3-0.5,0.8
		c-0.5,0.9,0.2,1.8-0.5,2.6c-0.6-1.4-0.2-1.8-0.5-2.9c-0.3-0.3-0.5-0.3-0.9-0.3l-0.3,0.5C111,52.3,110.8,54.9,111.6,56.2z"/>
	<path class="st0" d="M100.7,85.4l-0.5-0.2c-0.6,1.4,0,2.6-1.4,3.8c-0.3,0.2-0.5,0.2-0.8,0l-0.2-0.5l-0.5-0.2L97,88.8
		c0.3,0.9,0.2,1.8,0.5,2.8l0.3,0.2c0.6-0.2,0.9,0.2,1.5-0.2l0.2-0.5l0.6-0.2c0.3,0.2,0.3,0.5,0.6,0.6c0.2-0.3,0.5-0.3,0.8-0.3
		c0,0,0,0,0.2,0C102.2,88.8,100.7,87.5,100.7,85.4z"/>
	<path class="st0" d="M122.2,93.7l0.3-0.2c4.9-7.1,3.7-17.6,4.4-26.5c0-2,0.3-4.3-0.3-6.1c-0.3-0.3-0.5,0-0.8,0
		c-1.5,0.8,0.6-0.3-1.5,20.1l-0.5,0.2c0-6.8,0.6-13.5,0.2-20.1l-0.3-0.2l-0.2,0.2l-0.3,0.2c-1.4,14-1.2,26.1-1.2,32.4L122.2,93.7
		L122.2,93.7z"/>
	<path class="st0" d="M124.9,104.3c3.4-4.8,10-27.5,8.1-44l-0.5-0.2c-0.8,0.6-1.4,0.9-2.1,1.7c0.5,4.4,0.3,8.7,0,13.3
		c-0.6,7.8-1.7,8-2.3,12.6l-0.5-0.2c1.7-8.6,1.7-17.5,1.5-25.9c-0.5-0.2-0.8-0.8-1.2-0.8l-0.2,0.2c0.5,24.7-2.8,38.2-3.7,43.7h0.3
		C124.5,104.7,124.8,104.4,124.9,104.3z"/>
	<path class="st0" d="M133.2,47.7c-0.5,0-0.5,0.3-0.8,0.3l-0.2,0.3c-0.9,2.9,0,5.7-0.6,8.6c-0.5,0.3-0.5,0.8-0.9,0.9
		c-0.6,0-0.9,0.2-0.9-0.2c-1.5-2.8,0.2-6.3-0.8-9.1l-0.3-0.5c-0.3,0-0.3,0.2-0.8,0.2l-0.2,0.3c-0.5,2.8-0.6,5.7-0.3,8.6
		c0,0.5,0.5,0.6,0.5,0.9c0.2,0.6,0.8,0.9,1.2,1.4c0.9,0.2,0,0.2,1.8,0.2c0.3-0.2,0.6-0.2,0.8-0.3c0.3-0.3,0.6-0.5,0.8-0.8
		c1.7-3.2,0.6-7.1,1.1-10.6L133.2,47.7z"/>
	<path class="st0" d="M122,48.9L122,48.9c-0.8,0.5-0.6-0.2-1.1,0.9c-0.2,1.7,0,3.2-0.3,4.8l-0.6,0.2c-0.6-1.7,0-4-0.3-5.5l-0.5,0.2
		c-0.5,0.8-1.1-0.9-0.8,6.8c0.2,0.6,0.6,1.1,0.8,1.4l0.5,0.3c0.5,0,0.8-0.2,1.2-0.3c0.2-0.5,0.6-0.8,0.8-1.2
		c0.6-1.5,0.6-5.7,0.6-6.8C122.3,49.2,122.3,49,122,48.9z"/>
	<path class="st0" d="M125.1,50.1l-0.2,0.2h-0.2c-0.2,1.5,0,2.8,0,4.3l0.2-0.2C125.1,53.2,125.1,51.6,125.1,50.1z"/>
	<path class="st0" d="M130.6,42.4c0-1.4,0-2.9-0.2-4.1l-0.2,0.2v4H130.6L130.6,42.4z"/>
	<path class="st0" d="M130.5,49.6c-0.6,2-0.2,4.4,0,6.3l0,0c0.6-2,0.3-4.4,0.2-6.4l-0.2-0.2C130.5,49.5,130.5,49.6,130.5,49.6z"/>
	<path class="st0" d="M97,92.3c-0.2-0.3-0.8,0-1.1,0.2v0.8l0.3,0.2c0.2,0,0.6,0,0.6,0C97,93.1,97.2,92.8,97,92.3z"/>
	<path class="st0" d="M129.1,37.7h-0.2c-0.3,0.2-0.6,0.2-0.8,0.3c0,1.8-0.3,6,1.1,7.5c0.5,0.2,0.8,0.3,1.2,0.5c0,0.3,1.4-0.2,2-0.6
		c1.2-2.3,0.9-5.5,0.5-8.1l-0.3-0.5h-0.5l-0.5,0.3c-0.3,2.1,0.3,4.4-0.3,6.4c-0.3,0.3-0.3,0.3-0.9,0.3l-0.6-0.2
		C129.1,40.1,129.7,39.4,129.1,37.7z"/>
	<path class="st0" d="M123.7,48.7l-0.2,0.2c-0.8,2.8-1.1,5.8-0.5,8.7c0.3,0.3,0.6,0.3,0.6,0.6c0.2,0.3,0.8,0.3,0.8,0.5h0.2h0.3
		c0.2,0,0.5,0,0.6-0.2c0.2,0,0.3,0,0.3-0.2c0.2-0.5,0.6-0.5,0.6-1.1c0.6-2.6,0.5-5.7,0.8-8.1c-0.2-0.3,0-0.6-0.2-0.8l-0.5-0.2
		c-1.1,1.1-0.5,4.8-0.8,6.9c0,0.3-0.2,0.5-0.3,0.5c0,0,0,0.2-0.2,0.3l-0.3,0.2h-0.2h-0.2l-0.2-0.2h-0.2c-0.8-2.3-0.3-4.6-0.3-6.9
		L123.7,48.7z"/>
	<path class="st0" d="M96.6,106.6c0.3-0.6,0-0.9,0-1.5c-0.2-0.2-0.2-0.6-0.3-0.8l-0.6,0.3c0,0.8,0.3,1.7,0.5,1.8L96.6,106.6
		L96.6,106.6z"/>
	<path class="st0" d="M123.6,40h-0.3c-0.3,0.2-0.6,0.2-0.8,0.3c0,1.8-0.2,4,0.6,5.5c0.3,0.5,0.5,0.3,0.8,0.8
		c0.6,0.2,0.2,0.2,1.1,0.2h0.2c0.2,0,0.3-0.2,0.5-0.3c0.2,0,0.3-0.2,0.5-0.2c1.4-1.8,1.4-6.1,0.8-8.6l-0.3-0.2h-0.3
		c-0.5,1.1-0.9,1.2-0.9,1.5c0.2,1.5,0.2,3.1,0,4.6c-0.3,0.2-0.3,0.2-0.5,0.3h-0.2c-0.3-0.2-0.2-0.2-0.6-0.3
		C123.7,42.7,124,41.1,123.6,40z"/>
	<path class="st0" d="M102.1,104.3h-0.2l-0.3,0.3c0.2,0.9,0.3,1.7,0.6,2.5c0,0,0,0.2,0.2,0.2h0.3C102.7,106.9,102.8,105,102.1,104.3
		z"/>
	<path class="st0" d="M100.4,99.8l0.3-0.5l0.3-0.2c0.6,0.2,0.5,0.2,1.1,0.5c0,1.1,0.2,0.8,0.3,1.1c0.2,0.2,0.2,0.3,0.2,0.3
		c0.3,0.2,0.3,0,0.8,0c0.6-0.9-0.3-2.6-0.9-3.5c-0.3-0.2-0.5-0.5-0.8-0.5c-0.9,0-1.1,0.2-1.5,0.2c-0.3,0.2-0.8,0.3-0.9,0.5
		c-0.8,1.8-0.2,2.5-0.3,3.5c0.3,0.6,0.2,0.8,1.5,0.5C100.5,101.2,100.4,100.4,100.4,99.8z"/>
	<path class="st0" d="M95.6,110.1c1.2,0.2,2.5-0.5,3.2-1.1l0.3-0.8c0-1.4-0.2-2.8-0.6-4l-0.5-0.3h-0.5l-0.5,0.2
		c-0.2,0.9,0,1.7-0.2,2.5c-0.3,0.3-0.5,0.5-0.8,0.6h-0.5c-0.9-0.8-0.6-2.1-1.2-2.9c-0.6-0.2-0.8-0.3-1.4-0.2l-0.2,0.3
		c0.2,1.4,0.6,2.6,0.8,3.8C94.7,109.3,94.3,109.6,95.6,110.1z"/>
	<path class="st0" d="M101.2,99.5h-0.5c0,0.6,0.2,1.2,0.5,1.7l0.3-0.2v-0.2C101.5,100.3,101.5,100.1,101.2,99.5z"/>
	<path class="st0" d="M100.9,109.3c0.2,0.3,0.3,0.3,0.6,0.3c0.3,0.3,2.6-0.2,3.2-0.3c0.5-0.6,0.5,0,0.8-1.1
		c-0.2-1.5-0.3-3.2-0.9-4.8c-0.3,0-0.3-0.3-0.6-0.3c-0.3,0.2-0.6,0.3-0.6,0.6c0,1.2,0.3,2.3,0,3.5l-0.3,0.2l-0.2,0.2
		c-0.2,0-0.6,0-0.8,0l-0.5-0.5c0-0.3-0.2-0.3-0.2-0.6c-0.3-0.8-0.5-1.4-0.8-2l-0.5-0.3c-0.5,0.2-0.8,0.3-0.9,0.5
		C99.2,105.3,100.1,108.6,100.9,109.3z"/>
	<path class="st0" d="M124.8,41.7v-1.5l-0.2,0.2l-0.3,0.3c0.2,0.5-0.2,1.1,0.2,1.4v0.2L124.8,41.7z"/>
	<path class="st0" d="M120.2,45.2l-0.6-0.5c0-0.6,0-1.4-0.3-1.8c-0.2-0.2-0.5-0.2-0.6,0l-0.2,0.5c-0.2,1.5,0,3.4,1.4,4
		c0.5-0.2,1.2,0.5,2-1.2c0.3-1.4,0.2-2.8-0.2-4l-0.6-0.5l-0.5,0.3c-0.2,1.2,0.2,2.3-0.2,3.2L120.2,45.2z"/>
	<path class="st0" d="M119.9,78c1.1-1.4,2.1-10.6,2.3-12.4c0.2-1.8,0.3-3.7,0.2-5.5h-0.2l-0.2-0.2l-0.2-0.2
		c-0.5,0.2-0.8,0.2-1.1,0.5c-0.2,0.2-0.2,0.5-0.2,0.8c0.6,4.1-0.6,8.7-0.9,12.7l-0.3-0.5c-1.1-4.4,1.8-9.1,0.3-13.2
		c-0.5-0.2-0.6-0.3-1.1,0v2.1c-1.2,4.3-0.6,8.6-1.7,12.9c0.8,4.1-1.7,7.7-2.3,11.5h0.5c0.5-0.2,0.8-0.6,1.4-1.2
		c0-0.2,0.2-0.2,0.3-0.3C117.1,84.8,119.9,79.1,119.9,78z"/>
	<path class="st0" d="M32.7,53.9c0,0.3,0.2,0.5,0.5,0.5c0.6,0,0.9,0.2,1.5,0c0,0,0-0.2,0.2-0.2c0.2-0.2,0-0.3-0.2-0.6l-0.5-0.3
		c-0.5,0.2-0.9,0-1.4,0.2L32.7,53.9z"/>
	<path class="st0" d="M30.9,105.8c0.2,0,0.3,0,0.3,0c0.3-0.5,0-1.1,0.3-1.5c-0.3-0.3-0.2-0.6-0.3-0.6c-0.2,0.2-0.2,0-0.3,0.5
		C30.9,104.9,30.7,105.3,30.9,105.8z"/>
	<path class="st0" d="M37.3,96.8L37.3,96.8l0.5-0.3c0.2-0.8,0.3-1.7,0-2.1c-0.2,0-0.3-0.2-0.3-0.2c-0.8-0.3-0.8,0.2-1.2,0.2
		c-0.5-0.3-0.3-0.5-0.8-0.8c-0.5-0.2-0.6-0.3-0.9-0.5h-0.3c-0.5,0.2-0.5,0.6-0.8,0.9h-0.3c-0.8-0.9-0.2-1.2-0.5-1.7
		c-0.2,0-0.3-0.2-0.5-0.2c-0.3,0-0.8,0-1.1,0L31,92.3v0.3v1.7v0.3c0.2,0.2,0.2,0.3,0.2,0.5C33.2,95.8,35.9,96.3,37.3,96.8z"/>
	<path class="st0" d="M32.9,52.1c0.2,0.3,0.6,0.3,0.6,0.5c1.4,0,1.2-0.2,1.4-0.2l0.2-0.5c-0.5-0.5-1.4-0.3-1.8-0.2L32.9,52.1z"/>
	<path class="st0" d="M34.6,87.4c-0.2,0-0.3,0-0.5-0.2l-0.3,0.5c0,2.1,0.5,2,0.6,2.5c0.2,0,0.2,0.2,0.2,0.2c0.3,0.3,0.6,0.3,0.9,0.6
		h0.3c0.2-0.8-0.3-1.4-0.2-2.1c-0.2-0.6-0.3-0.6-0.5-1.2C34.9,87.5,34.7,87.5,34.6,87.4z"/>
	<path class="st0" d="M35,49.3l0.3-0.3c0-0.8,0-1.5,0-2.3c-0.3,0-0.3,0.3-0.5,0.5c-0.2,0.2-0.2,0.2-0.2,0.2
		c-0.5,0.5-0.9,0.5-0.9,1.1l0.2,0.2c0.3,0,0.5,0.2,0.8,0.2C34.7,49,34.6,48.9,35,49.3z"/>
	<path class="st0" d="M34.1,58.2c0.5,0.8,0.5,1.5,0.5,2.3c0,0,0,0.2,0.2,0.3c0,0.3,0,0.3,0.2,0.5l0.3-0.2c0-1.2,0.2-2.8-0.2-4
		L34.7,57c-0.8,0-1.4,0-2,0.2l-0.2,0.3c0,1.2-0.2,2.5,0.2,3.7h0.2l0.3-0.3c0.2-0.8-0.2-1.7,0.2-2.5C33.5,58.2,34.1,58.2,34.1,58.2z"
		/>
	<path class="st0" d="M22.4,50.9c-0.2,1.5-0.3,3.2,0.5,4.6c1.1,0.9,0.9,0.6,1.2,0.6c0.3,0,0.5,0,0.8-0.2l0.5-0.5
		c0.8-2,0.3-4,0.6-5.7c-0.2-0.3-0.2-0.2-0.2-0.3l-0.3,0.2c-0.3,1.5-0.3,3.2-0.8,4.6c-0.3,0.3-0.3,0.3-0.6,0.3c0,0,0,0.2-0.2,0.2
		c-0.3-0.2-0.5-0.3-0.6-0.5l-0.2-0.6c-0.5-0.5,0.3-3.4-0.2-4.6h-0.2C22.6,49.5,22.8,50.3,22.4,50.9z"/>
	<path class="st0" d="M5.7,44.3H5.6C4.6,47.5,4.3,51.6,4.3,55l0.2-0.3C5.3,49,5.7,47.3,5.7,44.3z"/>
	<path class="st0" d="M25.2,45.4c0,0.3,0,0.8,0,0.9h0.2c0.3-0.6,0.5-1.4,0.3-2c-0.3-0.3-0.3-0.8-0.8-0.9c-0.2,0.2-0.6,0-0.8,0H24
		c-0.3,0.2-0.5,0.5-0.8,1.1v0.3c0,0.3-0.2,0.5,0,0.9h0.2c0.2-0.5,0.5-0.5,0.5-0.8c0.3,0,0.3,0,0.3,0.3c0,0.2,0,0.5,0.3,0.5
		C24.9,45.5,24.7,45,25.2,45.4z"/>
	<path class="st0" d="M34.6,68.4c0.2,0,0.2,0,0.3,0c0.3-1.2,0.6-2.5,0.6-3.7l-0.3-0.5h-0.3l-0.2,0.3h-0.2c-0.3,0.2-0.5,0-0.6,0.2
		c-0.3,1.2,0.2,2.3,0.5,3.4L34.6,68.4z"/>
	<path class="st0" d="M24,53.2h0.2c0-0.5,0.3-1.5,0.3-3.5l-0.2-0.2C24.3,49.6,24,50.7,24,53.2z"/>
	<path class="st0" d="M18.9,48L18.9,48l-0.3,0.2c-0.3,0.8-0.2,1.4-0.3,2c-0.6,1.7-0.6,3.7-0.6,5.5c0.2,0.2,0.2,0.6,0.2,0.6
		c0.5,0.2,0.6,0.6,0.9,0.8c1.2,0,0.9-0.2,1.1-0.2c0.3-0.2,0.3-0.3,0.6-0.5c1.2-1.4,1.1-3.8,1.1-5.5c0.3-0.8,0.5-1.8,0-2.5h-0.3
		c-0.6,2.1-0.8,4.3-1.4,6.1c-0.2,0.2-0.2,0.2-0.5,0.5c-0.3,0-0.6-0.2-0.8-0.2v-0.2l-0.2-0.3C18.3,52.3,19.1,49.6,18.9,48z"/>
	<path class="st0" d="M8.6,41.1c0.3-1.1,0.3-2.3,0-3.2c0-0.2,0-0.2-0.3-0.3c-0.5-0.5-1.1-0.8-1.5-1.2c-0.6,0-1.2-0.2-1.5,0
		c-0.2,0.2-0.5,0.6-0.6,0.8c-0.2,1.1-1.4,2.8-0.2,3.5L5,40.3c0.2-0.2,0-0.2,0.3-0.5c0.2-0.6,0.5-1.1,0.8-1.5h0.2l0.2,0.2
		c0,0.9-0.5,1.5-0.2,2.1h0.2c0.5-0.8,0.5-1.1,1.1-1.7h0.2c0.3,0.9-0.6,2-0.2,2.8c0.5,0,0.6-0.3,0.9-0.5L8.6,41.1z"/>
	<path class="st0" d="M8.5,58.4c0.3,0.2,0.5,0.3,0.6,0.5c1.1,0.3,1.8-0.3,1.8-0.5c0.3-0.3,0.3-0.6,0.5-0.6l0.2-0.3
		c1.2-3.5,1.4-7.5,1.4-11l-0.5-0.3l-0.6,0.5c0,1.2-0.3,2.6-0.3,3.8l-0.2,0.5c-0.2,1.5-0.8,5.5-0.9,5.5L10,56.9l-0.3-0.2
		c-0.8-3.8,1.1-7.8,0.2-11.5l-0.5,0.2c-0.6,1.2-0.2,1.2-1.1,5.4C8,53.5,7.6,55.9,8.5,58.4C8.5,58.2,8.5,58.4,8.5,58.4z"/>
	<path class="st0" d="M21.5,42.3c-0.5,0-0.8-0.2-1.2,0c-0.2,0.2-0.3,0.3-0.5,0.5c-0.2,0-0.2,0-0.2,0.2c-0.3,0.8-0.3,1.4-0.3,2
		l0.3,0.5h0.2c0.3-0.3,0.3-0.9,0.5-0.9l0.3-0.2c0.3,0.3,0.2,0.8,0.2,1.1h0.2c0.5-0.3,0.5-0.8,0.8-1.1H22c0,0.5-0.2,0.8,0.2,1.2
		l0.3-0.2c0.3-0.9,0.5-1.8,0.3-2.6C22.1,42.4,22,42.3,21.5,42.3z"/>
	<path class="st0" d="M3.3,42.4L3,42.6c-1.1,2.8-0.3,5.8-1.2,8.3c0,2.6-0.6,5.5,0.5,7.5c0.3,0.3,0.5,0.5,0.6,0.8
		C4,59.3,3.7,59.3,4,59.3c0.3,0,0.6,0,0.9-0.2c0.3,0,0.6,0,0.8,0c1.4-1.4,1.7-10,2.1-14.4c-0.5-0.2-0.5-0.6-1.1-0.5
		c-0.6,2-0.3,4-0.6,5.8l-0.3,0.8c0,2-0.2,3.5-0.2,5.1c-0.2,0.5-0.6,1.1-0.9,1.5l-0.6,0.2l-0.5-0.3c-0.5-2.5-0.3-5.7,0-6.8
		c0-2.6,1.1-5.2,0.6-7.7C3.9,42.7,3.7,42.4,3.3,42.4z"/>
	<path class="st0" d="M35.2,108.6c0.3,0.2,0.5,0.6,0.6,0.6c0.5,0.2,1.5,0.5,1.7,0.5c0.9,0,2-0.3,2.6-0.6l0.3-0.5
		c0.3-1.4,0.3-2.8,0.2-4.1c-0.8-0.5-0.3-0.6-1.2-0.5c-0.6,1.1-0.3,2.1-0.6,3.2l-0.6,0.6c-0.2,0-0.3,0-0.6,0.2c-0.2,0-0.3,0-0.5,0
		l-0.5-0.3l-0.3-0.5c0-1.2,0.3-2.6,0-3.5c-0.5,0-0.8-0.2-1.2,0c-0.5,1.2-0.3,3.1-0.2,4.3C35,108.1,35,108.4,35.2,108.6z"/>
	<path class="st0" d="M37.5,106.6L37.5,106.6c0.3-0.8,0.5-1.7,0.2-2h-0.2l-0.2,0.2C37.2,105.3,37.2,106,37.5,106.6L37.5,106.6z"/>
	<path class="st0" d="M37.5,100c-0.5-0.5-1.1-0.3-0.8,0.6l0.2,0.2l0.6-0.2V100z"/>
	<path class="st0" d="M37.5,98.7c1.4,0,1.5,0,1.7-0.3c0-0.3-0.2-0.5-0.2-0.8c-1.5-0.5-4.3-1.5-7.7-1.5l-0.2,0.2
		c-0.2,0.5,0,0.9,0,1.1c0.3,0,0.8,0.2,1.1,0.3C33.2,97.8,35.5,98.1,37.5,98.7z"/>
	<path class="st0" d="M33.6,107.6c0.5-1.4,0.3-2.8,0.5-4.1c-0.2-0.3-0.2-0.8-0.3-0.8c-0.3-0.2-0.8-0.3-1.1-0.2
		c-0.2,0.2-0.2,0.6-0.3,0.8c-0.2,0.3,0.2-0.6-0.5,2.9c-0.3,0.3-0.5,0.3-0.8,0.5c-0.2,0-0.2,0-0.2-0.2c-0.3,0-0.6-0.2-0.9-0.3H30
		c-0.9-1.8-0.2-2.9-0.3-4.4c-0.3-0.3-0.6-0.2-0.9-0.3l-0.5,0.2c-0.5,1.7-0.9,3.7-0.3,5.4C29.5,108.9,32.1,109.2,33.6,107.6z"/>
	<path class="st0" d="M34.3,99.5l-0.2-0.2c-0.3,0-0.6,0.3-0.6,0.6l0.3,0.6l0.6-0.3C34.3,99.8,34.4,99.7,34.3,99.5z"/>
	<path class="st0" d="M27.8,90.6c1.7-1.8,2.8-2.5,5.7-5.2h-0.2c-1.1,0.5-4.1,0.2-4.3,0.2c-0.3,0.3-0.8,0.5-1.1,0.8
		c-0.2,0.2-3.2,2.9-3.7,2.9c-0.5-0.2-0.6-0.2-0.8-0.3c-0.2-0.2-0.3-0.3-0.5-0.3c-2.5-1.1-3.7-0.9-5.7,0.2c-0.3,0.3-0.3,0.5-0.6,0.6
		l-0.2,0.3l0.3,0.3c0.6,0.2,1.4,0,1.8,0c0.5-0.2,0.6-0.2,1.1,0v0.2l0.2,0.3c-0.2,0-0.2,0.2-0.2,0.2c-1.1,0.6-2.8,0.5-3.2,2.1
		l0.2,0.8c2.9-0.3,6-0.6,7.2,2c0.9,2.1-0.9,3.8-1.4,4.9c0,0.3,0,0.3,0,0.5c0.2,0,0.5,0,0.6,0c1.4,0,2.9-1.1,3.5-2.1
		c1.1-2,0.3-4.4-0.2-6.6C26.7,92,27.7,90.6,27.8,90.6z"/>
	<path class="st0" d="M41.3,100.4h-0.5c-0.2,0.2-0.2,0.5,0,0.8l0.2,0.2C41.3,101.1,41.5,101.1,41.3,100.4z"/>
	<path class="st0" d="M42.1,109.2l0.6,0.5c0.5,0.3,1.1,0.3,1.5,0.5h0.2h1.1c0.3-0.3,0.5-0.3,0.8-0.6c0.3-0.9,0.6-1.8,0.6-2.9
		c-0.3-0.3-0.6-0.3-1.1-0.3l-0.2,0.2c-0.3,0.8-0.6,1.4-0.8,1.7c-0.5,0.2-0.8,0-0.9,0c-1.1-0.9-0.5-2.5-1.1-3.7l-0.3-0.3
		c-0.8,0.3-1.2-0.2-1.2,0.9c0.3,1.2,0.3,2.3,0.3,3.2C41.8,108.7,41.9,108.9,42.1,109.2z"/>
	<path class="st0" d="M14.2,92.3c0-1.2,0.6-2.6,0.5-5.5c-0.2-0.3-0.3-0.6-0.5-0.8c-1.7-4.1,1.2-8.9-1.5-12.4c-0.3-1.2,0-2.5,0.5-3.7
		c-0.2-2.8,0-5.5-0.2-8.4c-0.2-0.3-0.2-0.6-0.3-0.6L11.7,61c-1.2,7.8,0.2,15.8,0.8,23.6l-0.3,0.3L12,84.8
		c-1.5-7.4-1.8-15.2-1.5-22.7c0-0.3-0.3-0.5-0.5-0.8c-0.3-0.2-0.9-0.2-0.9-0.5c-0.2,0.2-0.3,0-0.6,0c-0.2,0-0.3,0-0.3,0.2
		c0,5.4-0.5,21.6,2.9,26.4c0.6,1.7,1.4,3.8,2.6,5.1L14.2,92.3z"/>
	<path class="st0" d="M7.1,102.1l0.3,0.2c0.2,0.5,0.5,0.9,0.6,1.2c0.2,0.3,0.3,0.5,0.5,0.5c0,0,0.2,0.2,0.3,0.2l0.2-0.2
		c0.8-5.2-1.1-10.4-1.4-15.5c0-0.2,0.5,0,0.6-0.2c0.9-2.8-0.6-5.5,0-8.1c-0.2-0.6-0.3-0.6-0.5-0.9c-0.5-2-1.4-4.3-0.2-5.8
		c-0.5-3.4-1.1-6.6,0-9.8c-0.2-0.6,0-1.2-0.2-1.7l-0.3-0.2c-0.8,0.2-1.5,0.5-2.1,0.8c-0.2,0-0.2,0-0.2,0C4.3,68.1,4.2,77,5,82.5
		c0.5,2.5,0.8,5.1,0.5,7.7h0c-0.8-1.4-0.8-2.1-1.2-2.9c-1.8-8.3-0.6-17-1.5-24.9l-0.5-0.5c-0.3,0-0.2,0-0.5,0H1.6
		C-0.3,75.7,3.3,89.5,7.1,102.1z"/>
	<path class="st0" d="M30,100c0.3,0,0.2,0,0.6-0.2l0.2-0.5l-0.3-0.5h-0.2C29.2,98.9,30,99.8,30,100z"/>
	<path class="st0" d="M44.4,107.6v-2l-0.2-0.2c-0.2,0.2,0,0-0.3,0.3c0,0.6,0,1.2,0.2,1.7l0.2,0.2L44.4,107.6z"/>
	<path class="st0" d="M13.4,39.5l-0.5-0.3c-0.5,0-0.9-0.2-1.2-0.2c-0.5,0.3-0.8,0.5-1.1,0.8c0,0.2,0,0.2,0,0.3
		c-0.5,0.6-0.8,1.5-0.8,2.1l0.3,0.5c0.2,0,0.5,0,0.6,0c0.2,0,0.2-0.2,0.2-0.2c0.2-0.5,0.3-0.8,0.5-1.2H12c0,0.6-0.3,1.1-0.2,1.5
		l0.3,0.2c0.3-0.3,0.5-0.6,0.5-0.9l0.3-0.3c0.5,0.5,0.2,1.2,0.3,1.7l0,0.2h0.2c0.5-1.1,0.5-2.3,0.5-3.1
		C13.7,39.8,13.7,39.5,13.4,39.5z"/>
	<path class="st0" d="M27.8,52.6c0-0.8,0.3-1.4,0-1.8C27.5,51.2,27.7,52.1,27.8,52.6z"/>
	<path class="st0" d="M27,55l0.5,0.3l0.2-0.2H28l0.3-0.5c0.6-1.4,0.5-2.8,0.3-4.1l-0.2,0.2c-0.3,1.1-0.3,2-0.5,2.9l-0.5,0.5h-0.2
		c-0.8-0.9-0.3-2.8-0.6-4.1C26.1,51.3,26.1,53.6,27,55z"/>
	<path class="st0" d="M28.7,44.7c-1.8,0-1.7,0.5-1.8,0.9c0,0.3-0.2,0.8-0.2,0.9c0.2,0.3,0.2,0.2,0.3,0.3l0.2-0.2
		c0-0.3,0.3-0.3,0.3-0.6V46h0.2l0.3,0.3v0.6h0.2c0.3-0.3,0.3-0.6,0.5-0.8H29c0.3,0.3,0,0.6,0.3,0.9h0.2c0.3-0.6,0.2-1.5-0.2-2.1
		L28.7,44.7z"/>
	<path class="st0" d="M27.4,76.8c0.2-0.2,0.2,0,0.3-0.3c-0.2-1.1-0.3-1.7-0.8-2.6l-0.5-0.3c0-0.3,0.2-0.6,0.2-0.8
		c-1.5-4.8-1.2-9.4-1.7-14c-0.2-0.3-0.3-0.5-0.5-0.8h-0.3v1.2c0,2.1,0.5,4.4,0.3,6.6h-0.3c-0.2-0.2,0,0-0.3-0.3
		c-0.9-6.4-0.8-6.1-0.9-6.9l-0.2-0.2h-0.2l-0.5,0.2c0.9,4.9,0.5,10.7,3.1,14.7C25.8,74.8,26.4,76,27.4,76.8z"/>
	<path class="st0" d="M17.8,84.6c0.2,0.2,0.6,0.3,0.9,0.5c0.2,0,0.2,0,0.2,0.2l0.5-0.3c-0.2-0.8-1.5-9.8-2-18.6
		c0.8-2.1-0.6-4.1-0.2-6.3c-0.2-0.2-0.2-0.5-0.6-0.5c-0.2,0.3-0.9,0.2-0.8,0.8c0,4.9,0,9.5,0.2,14.3L15.7,75
		c-1.4-1.5-0.3-8.9-1.2-14.1l-0.2-0.2h-0.2l-0.3-0.2C13.7,68.8,13.9,77.4,17.8,84.6z"/>
	<path class="st0" d="M25.7,57.6c-0.3,3.7,0.8,7.4,1.7,10.9c0,0.2,0.2,0.2,0.2,0.3c0,0.2,0.2,0.3,0.2,0.6v0.2
		c0.3,0.2,0.5,0.5,0.8,0.6l0.2-0.2c-0.2-4.1-0.3-8.4-0.3-12.6C28.1,57.3,28,57,27.7,57l-0.2,0.3v0.3c-0.5,1.8,0.2,3.7-0.2,5.4
		L27,62.5c-0.3-1.5-0.3-3.2-0.6-4.6C26.1,57.6,25.8,57.6,25.7,57.6z"/>
	<path class="st0" d="M20.6,72.5c-1.1-3.2-0.8-9.1-1.5-13.2c-0.3-0.3-0.3-0.2-0.5-0.3l-0.3,0.2c0.5,7.7-0.6,18,5.7,23.3
		c0.5,0,0.3-0.2,0.3-0.5c-1.8-4.3-0.6-8.3-1.7-12.1l-0.2-0.2c-0.6-1.4,0-2.5-0.2-3.7c-0.6-2.3-0.5-4.9-0.9-7.2h-0.3h-0.5
		c-0.2,4.8,0.9,9.2,0.3,13.8L20.6,72.5z"/>
	<path class="st0" d="M34.6,42.6c-0.2,0-0.3,0.2-0.5,0.3c0,0.3-0.5,0.3-0.6,0.5c-7.7,9.8-1.7,23.2-1.4,34.5
		c-0.3,0.2-0.3,0.8-0.6,0.8h-0.3l0,0c-0.3,0-0.6,0-0.8-0.2c-0.2,0-0.2,0-0.3-0.2c-0.6,0-1.4,0.2-1.8,0.5c0,0.2-0.2,0.3-0.3,0.3
		c-0.2,0.3-0.2,0.2-0.2,0.5c-0.3,0.9-0.3,1.4-0.2,2.1c0,0.2,0,0.3,0.2,0.5c0,0.2,0,0.2,0.2,0.3c0.3,0.3,1.2,1.2,2.6,1.2
		c0-0.2,0.3-0.2,0.5-0.2c0.2-0.2,0.2-0.2,0.3-0.2c6.4-2.1,3.2-9.7,3.2-10.9c-0.2-0.2-0.2-0.6-0.3-0.6c-2.5-8.3-6.1-21.3,0.3-26.9
		c0.2-0.3,0.3-0.5,0.6-0.6l0.2-0.6v-1.2l-0.5-0.2C34.7,42.4,34.7,42.6,34.6,42.6z"/>
	<path class="st0" d="M14.2,46.7c-0.3,0.3-0.5,0.5-0.5,0.8c0,1.1,0,2.3-0.5,3.4c-0.6,8.1,0.3,5.8,0.6,6.8c2.3,0.6,2.3-1.1,2.5-1.1
		c0.5-3.1,1.1-6.1,1.1-9.1l-0.6-0.3l-0.3,0.5c0,0.9-0.2,1.8-0.2,2.6L16,50.9c-0.2,1.5-0.3,2.9-0.6,4.4c-0.2,0.2-0.2,0.3-0.3,0.5
		c0,0-0.2,0.2-0.3,0.2c-0.2,0-0.5-0.2-0.6-0.2c0,0,0,0-0.2-0.2l-0.2-0.5c0.3-2.8-0.2-2.8,0.6-4.9c-0.2-1.1,0.5-2.5-0.2-3.4
		L14.2,46.7L14.2,46.7z"/>
	<path class="st0" d="M20.1,48.3c-0.3,0.6-0.9,3.4-0.8,5.2h0.2c0.3-1.7,0.9-3.5,0.8-5.2H20.1z"/>
	<path class="st0" d="M10.2,55.2c0.6-2.6,1.4-6.4,1.1-9.1h-0.5C10.9,50,9.7,52.4,10.2,55.2z"/>
	<path class="st0" d="M18,40.9c-0.3-0.3-0.3-0.3-0.5-0.5c-1.2-0.3-0.8,0-1.5,0c-0.3,0.3-0.8,0.5-0.9,0.8c0,0.8-0.5,1.7-0.2,2.8
		c0.3,0.2,0.2,0.2,0.3,0.3l0.5-0.2c0-0.5,0.2-0.8,0.2-1.2l0.5,0.2V44l0.2,0.3c0.3-0.2,0.3-0.5,0.3-0.8c0.2-0.3,0.2-0.6,0.3-0.6
		c0.5,0.2,0.3,0.8,0.3,1.1c0.2,0.2,0.6,0.2,0.8,0c0.3-0.9,0.2-1.7,0.2-2.5C18.1,41.4,18.1,41.1,18,40.9z"/>
	<path class="st0" d="M14.6,53.9c0.3-0.9,0.8-4,0.8-6.3l-0.2,0.2c-0.2,1.1-0.3,2.6-0.6,3.2C14.6,52.1,14.6,53,14.6,53.9z"/>
	<path class="st0" d="M98.4,41.8c0,0-0.3-0.5-0.6-0.5c-17.2,0-14,0-16.1,0l0,0c-4.3,0-14.7,0-18.9,0v0.8c1.2,0,4.9,0,6.6,0
		c13.8,0,8.4,0,25.8,0h2c0.5,0,0.5,0.6,0.5,0.6c0,33.3,0.8,37.1-2.5,46.6c-4.6,13.3-15.2,24.1-25.8,28.5c-0.6,0.3-1.2,0.5-1.8,0.8
		c-1.8-0.6-2.3-0.5-4.4-1.5c-0.2,0-0.2,0-0.3,0c-17.2-6.8-25.3-23.9-25.3-42.5c0-35.3-0.3-32.4,0.6-32.4c7.7,0,17,0,24.7,0v-0.9
		c-26.9,0-26.1-0.3-26.1,0.6c0,33.6-2.6,49.9,11.7,66.1c3.7,4,9.2,7.7,14.4,9.8c0,0,0.2,0.2,0.3,0.2c1.4,0.8,3.5,1.4,4.4,1.7
		c0.6-0.3,4.4-1.8,7.8-3.8c8.3-5.1,15.5-13.8,18.7-21.9C99.5,82.2,98.4,75.7,98.4,41.8z"/>
	<path class="st0" d="M75.7,44.4c0,0.2-0.2,0.3-0.3,0.6c-1.4,2.3-1.1,2.5-1.5,2.5c-0.2,0.2-0.5,0.3-0.5,0.5l0.2,0.2c0.2,0,2,0.2,2,0
		c0,0,0.2-0.3-0.2-0.3c-0.2,0-0.2,0-0.2,0l-0.2-0.5c-0.3,0,0-0.3,0-0.3c0.2-0.2,1.2-2.3,1.4-2.5c0.8-0.8,2.6,3.2,3.2,3.2l0.2,0.2
		c0.6,0,1.1-1.4,2.3-2.8c0.2,0.5,1.1,1.8,1.1,2.1l-0.5,0.2c0,0-0.2,0.2-0.2,0.3c0,0.2,0.2,0.2,0.2,0.2c0.3,0.2,2.9,0,3.2,0
		c0.3-0.3,0-0.5-0.3-0.6c-0.6-0.6-2.1-3.2-2.1-3.7c-0.2,0-0.2,0-0.2,0h0.2v-0.2c0.2,0,0.2-0.5,0-0.6l0,0c-0.6,0-0.9,0-1.5,0
		l-0.2,0.2c0,0.2,0,0.3,0,0.8l0,0c-0.2,0.5-1.2,2-1.2,2L80.4,46c-0.2-0.2-2.6-3.1-2.8-3.1h-0.3c-0.2,0-0.3,0-0.8,0
		c-0.3,0-0.5,0-0.6,0l-0.2,0.3l0.2,0.3l0.2,0.2c0.2,0.2,0,0.3,0,0.3S75.7,44.3,75.7,44.4z"/>
	<path class="st0" d="M85.7,97.5C85.7,97.7,85.7,97.7,85.7,97.5c0,0,0.2,0,0.3,0c0-0.2,0.2-0.2,0.2-0.2c0.2,0,0.2,0,0.2-0.2
		c0,0,0.2,0,0.2-0.2c0.3,0,3.7-0.9,5.1-1.1c0.2-0.2,0.3-0.2,0.5-0.3l0.2-0.2c0.2-0.5,0-0.6-0.2-0.9v-0.2c-0.5-0.6-2.6-3.2-2.6-3.8
		c0-0.2,0-0.3-0.2-0.5l0,0H89l-0.2,0.2c-0.6,1.1-0.6,1.2-0.6,1.4c0,0,0.2,0.2,0.3,0.2h0.3c0-0.2,0.2,0,0.3,0
		c0.5,0.5-0.8,2.6-1.2,2.9c0,0,0,0-0.2,0c0,0,0-0.2-0.2-0.2v-0.2c0.2-0.2,0-0.3-0.2-0.5h-0.3c0,0-0.2,0.2-0.3,0.3c0,0,0,0.2-0.2,0.5
		v0.2c0,0,0-0.2,0,0.2l-0.9,1.8C85.7,97.1,85.7,97.4,85.7,97.5z M89.2,94.1c0-0.2,0-0.2,0-0.2l0.2-0.2l0.2-0.3c0,0,0,0,0.2,0
		c0,0,0.2,0,0.2,0.2c0.2,0,0.2,0.2,0.2,0.2c0.2,0.2,0.3,0.3,0.3,0.5l0,0l-0.2,0.2h-0.3c-0.2-0.2-0.3,0-0.6,0c0-0.2-0.2,0-0.2-0.3
		C89,94.3,89.2,94.3,89.2,94.1z"/>
	<path class="st0" d="M63.6,56.2l-0.2,0.5c0.5,0.3,1.4,0.6,2.3,0.6c0.9,0.8,2.3,0.8,3.2,1.2l0.3,0.3V59l-0.3,0.5
		c0.2,0.3,0.3,0.2,0.6,0.2c0.8,0,1.4,0.2,2-0.2l0.2-0.2L71.5,59c-0.3-0.3-0.8-0.8-1.5-0.8c-0.5-0.2-0.5-0.3-0.8-0.5l0,0
		c-0.5-0.6-1.4-0.9-1.7-1.5v-0.3C66.5,55.6,64.9,55.6,63.6,56.2z"/>
	<path class="st0" d="M45.3,47.2c-0.2,0-0.2,0.2-0.2,0.2c-0.2,0-0.3,0.2-0.3,0.3c0,0,0,0.2,0.2,0.2c0,0.2,3.1,0.2,3.2,0
		c0.2-0.2,0-0.5,0-0.5s-0.2-0.2-0.3-0.2c-0.6-0.5-0.3,0.2-0.3-1.2c0-0.2,0-0.2,0-0.2c0.9,0,0.8,0,0.9,0c0.9,0,1.8-0.5,1.8-1.2
		c0-2.5-2-2.1-5.2-2.1c-0.5,0-0.6,0.3-0.3,0.6c0,0.2,0.2,0.2,0.2,0.2s0.2,0.2,0.2,0.5C45.6,44.6,45.8,46.3,45.3,47.2z M47.8,43.8
		c0.2,0,0.3-0.2,0.5,0c0.6,0.2,1.1,0.8,0,1.2c-0.3,0-0.5-0.2-0.5-0.2l-0.2-0.2C47.6,44.1,47.6,43.8,47.8,43.8z"/>
	<path class="st0" d="M55,48.1c0.8,0,1.4-0.3,1.8-0.6c0.5-0.5,0.8-1.1,0.8-2c0-1.5-1.1-2.8-2.6-2.8c-1.1,0-2.9,0.6-2.9,2.8
		C52.1,47.2,53.1,48,55,48.1L55,48.1L55,48.1z M54.4,43.7c0.2,0,0.3-0.2,0.6-0.2c1.1,0,1.1,3.2,0.5,3.7c0,0.2-0.3,0.3-0.5,0.3
		C53.6,47.5,53.9,44.1,54.4,43.7z"/>
	<path class="st0" d="M81.7,69.3l0.5-0.2c0-0.3-0.2-0.5-0.5-0.6c0-0.2,0-0.2,0-0.2l-0.3,0.2C81.5,69,81.2,69.3,81.7,69.3L81.7,69.3z
		"/>
	<path class="st0" d="M85.5,97.7l-0.2-0.2c0,0,0-0.2,0.2-0.3h-0.2c0,0-0.2,0.2-0.3,0.3c0,0-0.2,0.2-0.3,0.3V98
		c-0.2,0.2,0.3-0.3-1.2,1.5v0.2c-1.4,1.2-1.2,2.8-1.1,2.9c0.3,0.5,0.6,0.6,0.9,0.6s0.3,0.2,0.6,0c0-0.2,0.3-0.2,0.3-0.2h0.2v0.2
		c0,0.3,0,0.6,0,0.9c0,0,0.2,0.2,0.3,0.3l0,0c1.2,0.6,2.1-0.8,2.9-1.8c0.2-0.3,0.5-0.5,0.5-0.6c0.2-0.2,0.9-1.1,0.9-1.2
		c0.2,0,0.2-0.2,0.2-0.2c0-0.2,0.2-0.2,0.2-0.3s0-0.3-0.2-0.3c-0.2,0-0.2-0.2-0.5,0c-0.2,0-0.5,0.5-1.7-0.6l-0.2-0.2
		C86.6,98.9,85.5,98.3,85.5,97.7C85.7,97.7,85.7,97.7,85.5,97.7z M85.2,101.1c-0.2,0.2-0.5,0.3-0.6,0.3v0.2c0,0-0.3-0.2-0.6-0.2
		c-0.3-0.3-0.5-0.6-0.2-0.9c0-0.2,0.5-0.6,0.6-0.6c0.2,0,0.2,0,0.2,0.2h0.2l0.6,0.5l0,0c0.2,0.2,0.2,0.2,0.2,0.2
		C85.7,100.3,85.4,100.9,85.2,101.1z M86.1,101.2l0.2-0.3c0,0,0,0,0.2,0l0,0l0.5,0.5c0.2,0.2,0.3,0.2,0.3,0.3c0.2,0-0.2,0.3-0.3,0.5
		c0,0.2-0.3,0.5-0.6,0.5l0,0C85.7,102.4,85.4,102,86.1,101.2z"/>
	<path class="st0" d="M68.9,60.4c-0.3,0.5,0.2,0.5,0.3,0.5c0,0,0,0,0.2,0c0.3,0,0.5,0.2,0.5,0l-0.2-0.5c-0.2,0-0.3,0-0.5-0.2
		C69.1,60.2,68.9,60.2,68.9,60.4z"/>
	<path class="st0" d="M79.8,61.2l-0.2-0.6c-0.3-0.3-0.9-0.2-1.1-0.2c-0.2,0.3,0,0.6,0.3,0.8C79.1,61.2,79.5,61.2,79.8,61.2
		L79.8,61.2z"/>
	<path class="st0" d="M91.6,69.9c0,0.3,0,0.5,0.2,0.5l0.2,0.2c0.2,0,1.4,0.2,1.4-0.2c0.2-0.5,0-0.8-0.5-1.2
		c-0.2-0.3-0.3-0.5-0.3-0.6c-0.2-0.2,0-0.2,0-0.5c0-0.2,0-0.2,0-0.2l0,0c0,0,0.2,0,0.2,0.2c0.2,0,3.2,3.2,3.5,3.2l0.2,0.2
		c0.2,0,0.2-0.2,0.3-0.2c0.2-0.2,0-2.1,0-2.8c0-1.7,0.2-3.4,0-3.5c-0.6-0.3-0.8-0.3-0.9-0.3c-0.2,0-0.5-0.2-0.5-0.2
		c-0.2,0-0.2,0-0.2,0s-0.2,0-0.2,0.2c-0.3,0.6,0.2,0.9,0.2,1.1c0.2,0,0.3,0.3,0.3,0.3c0,0.2,0.3,0.5,0.3,0.6c0,0.2,0.2,1.1,0,1.2
		c0,0,0,0-0.2,0h-0.2c0,0,0,0-0.2-0.3l-0.2-0.2c-1.4-1.4-0.8-0.8-2.6-2.6c0,0-0.5-0.5-0.8-0.5c0,0-0.2,0-0.2,0.2
		c-0.2,0-0.2,0.6-0.2,1.1s0.2,0.9,0.2,1.4c0,0.9-0.2,1.5-0.2,2.5L91.6,69.9L91.6,69.9z"/>
	<path class="st0" d="M77.1,60.5l0.2-0.3c-0.2-0.3-0.3-0.5-0.5-0.6c-0.5-0.2-0.9-0.3-1.4-0.3c-1.1,0.3-0.9,0.2-1.4,0.5v0.5
		c-0.3,0.2-0.5,0.3-0.5,0.5c0.6,0.2,1.2,0,1.7,0.2C75.8,60.8,76.5,60.8,77.1,60.5z"/>
	<path class="st0" d="M91.3,84.3c0-0.2-0.2-0.2-0.2-0.3c-0.2,0-0.2,0-0.3,0.2c-0.2,0-0.2,0.2-0.2,0.3c0,0.2-0.2,0.9-0.5,1.5
		c0,0.2,0,0.3-0.2,0.5C90,86.6,90,86.8,90,86.9c0.2,0,0.2,0.2,0.2,0.2c0.2,0.2,0.2,0,0.3-0.2c0.2,0,0.3,0,0.6,0l0.9,0.3
		c0.2,0.2-0.2,1.1-0.3,1.1c0,0.2-0.2,0.2-0.2,0.2c-0.9-0.3-1.2-0.3-1.4-0.6c0-0.2-0.2-0.3-0.2-0.3c-0.2,0-0.2,0-0.3,0.2
		c-0.2,0-0.2,0-0.2,0.2s-0.2,0.9-0.3,1.1c0,0-0.2,0.3-0.2,0.5l0,0c0,0.2-0.2,0.5-0.2,0.5c-0.2,0.2-0.2,0.3,0,0.3
		c0,0.2,0.2,0.2,0.2,0.2l0,0c0.2,0,0.3,0,0.3-0.2c0.2-0.2,0.2-0.2,0.3-0.2c0-0.2,0.3-0.2,0.5-0.2s2.5,0.8,2.6,0.9
		c0.2,0,0.3,0.2,0.3,0.3v0.2c0,0.2,0.2,0.2,0.3,0.2c0.2,0.2,0.5-0.2,0.5-0.5c0,0,0-0.3,0.2-0.3c0-0.2,0-0.3,0-0.3
		c0.2,0,0.2-0.2,0.2-0.3l0.3-0.9c0-0.3,0-0.5-0.3-0.5H94c0,0,0,0.2-0.2,0.2s-0.3,0.2-0.3,0l-0.8-0.2c-0.3,0,0-0.9,0.2-1.1
		c0,0,0.2-0.2,0.2,0l0.6,0.2c0.2,0.2,0.5,0.3,0.5,0.5c0,0.2,0.2,0.3,0.2,0.3c0.2,0,0.3,0,0.3,0c0-0.2,0.2-0.2,0.2-0.3
		s0.2-0.3,0.2-0.5c0.2-0.5,0.2-0.5,0.2-0.6c0,0,0.2-0.2,0.2-0.3c0-0.2,0-0.3,0.2-0.5c0-0.6,0-0.5-0.3-0.6h-0.2c0,0-0.2,0-0.2,0.2
		c-0.2,0-0.2,0.2-0.2,0.2c-0.2,0-0.3,0-0.6,0h-0.2c-0.2,0-2.1-0.6-2.3-0.8c-0.2-0.2-0.3-0.2-0.3-0.3C91.5,84.6,91.3,84.5,91.3,84.3z
		"/>
	<path class="st0" d="M96.3,58.4c-0.3-0.2-3.2-1.7-3.4-1.8c-0.2-0.2-0.5-0.3-0.6-0.5l0-0.2c0-0.2-0.5-0.3-0.5-0.2
		c-0.2,0.2-0.2,0.3-0.2,1.5c0,0,0.2,0.2,0.2,0.3l0.2,0.2c0.5,0,0.3-0.3,0.6-0.3c0.6,0,0.5,2.8,0.3,3.1c-0.2,0.2-0.3,0.2-0.5,0v-0.2
		c-0.3-0.5-0.6-0.3-0.6-0.2c-0.2,0.2-0.2,0.3-0.2,3.1c0,0.2,0.2,0.3,0.2,0.5c0.2,0.2,0.3,0.2,0.5-0.2c0.2-0.2,0.2-0.2,0.2-0.2
		c0-0.2,0-0.3,0.2-0.3c2.6-2.5,4.3-3.2,4.3-3.5c0,0,0-0.2,0-0.3C96.9,58.4,96.4,58.7,96.3,58.4z M94.4,59.2h-0.2l-0.2,0.2H94
		c0,0-0.2,0-0.2-0.2c0,0,0-0.2,0-0.3c0-0.8,0.2-0.5,0.3-0.5c0.2,0,0.2,0,0.2,0c0.2,0.2,0.5,0.2,0.5,0.3c0,0,0,0,0,0.2V59
		C94.7,59.2,94.4,59.2,94.4,59.2z"/>
	<path class="st0" d="M82.7,108c0-0.2,0.2-0.3,0.3-0.3c0.2,0,0.3-0.2,0.3-0.3h0.2c0-0.2,0.3-0.3,0.5-0.5c0.2-0.2,0.3-0.3,0.3-0.3
		c0-0.2,0.2-0.3,0.2-0.3c0.2,0,0-0.2,0-0.2c0-0.2-0.2-0.2-0.3-0.2c-0.9,0-1.5-1.1-2.3-1.7c0-0.2-0.2-0.2-0.2-0.3
		c-0.5-0.5-0.5-0.9-0.3-0.9c0-0.2,0-0.3,0-0.5c0,0-0.2,0-0.3,0l-0.3,0.3c-0.3,0.3-0.6,0.6-0.9,0.9c-0.2,0.2-0.3,0.3-0.5,0.6
		c-0.5,0.3-0.9,0.6-1.2,1.1H78c0,0.2-0.2,0.3-0.2,0.3c0,0.3,0.3,0.3,0.8,0.9c0,0.2,0.2,0.2,0.2,0.2s0,0.2,0.2,0c0.2,0.2,0.2,0,0.3,0
		c0-0.2,0-0.3,0-0.5c-0.2-0.6,0.3-1.1,0.5-1.4c0,0,0.2,0,0.2-0.2H80l2.3,2.1c0,0.2,0,0.2,0,0.3c0,0,0,0.2-0.2,0.3
		C81.8,108.1,82.1,108.4,82.7,108z"/>
	<path class="st0" d="M38.7,81.7v0.6c0,0.6,0.2,1.1,0.3,1.5c0.3,0.3,0.5,0.5,0.9,0.5s0.8-0.2,0.9-0.3c0.6-0.6,1.1-2.1,1.8-2.1
		c0.2,0,0.3,0,0.3,0.2c0,0,0,0.2,0,0.3s0,0.6-0.2,0.9c-0.2,0-0.2,0.3-0.5,0.3l-0.2,0.2c-0.3,0.2-0.3,0.3-0.3,0.5v0.2
		c0,0.2,0.3,0.2,0.3,0.2h0.3c0.5,0,0.9-0.2,1.1-0.2s0.3-0.2,0.3-0.5v-0.3v-0.2v-0.2c0-0.3,0.2-1.1,0.2-1.4c0-0.6-0.2-1.1-0.5-1.4
		c-0.2-0.3-0.6-0.6-1.2-0.6c-0.3,0-0.8,0-0.9,0.3c-0.3,0.2-0.3,0.3-0.5,0.6c-0.2,0-0.2,0.2-0.2,0.3c-0.2,0.3-0.2,1.1-0.8,1.4l0,0
		c-0.2,0-0.3-0.2-0.3-0.2L39.6,82c0-0.3,0-0.6,0.2-0.6c0-0.2,0.3-0.2,0.3-0.3s0.3,0,0.3-0.2c0.2,0,0.2-0.8-0.2-0.8c0,0,0,0-0.2,0
		h-0.3h-0.3H39l0,0l-0.2,0.2c0,0-0.2,0.2-0.2,0.3c0,0,0,0.2,0,0.3v0.2V81.7L38.7,81.7z"/>
	<path class="st0" d="M43.5,91.1l0.3-0.2c0.3-0.2,1.1-0.2,1.2-0.2c0-0.2,0.3,0,0.5,0.2l0.2,0.2c0.3,0.2,0.5,0.2,0.6-0.2
		c0,0,0.2-0.2,0-0.3l-0.2-0.2c0-0.3-0.2-0.6-0.2-0.8s0-0.2-0.2-0.3c-0.2-0.3-0.3-1.5-0.6-2.5c0-0.2-0.2-0.5-0.5-0.3h-0.3
		c-0.2,0-0.3,0-0.3,0.2c-0.2,0-0.3,0-0.5,0h-0.2c-0.2,0-0.2,0.2-0.3,0.2v0.3c0,0.2,0.3,0.3,0.5,0.3h0.2c0.2,0.2,0.5,0.2,0.5,0.3
		c0.2,0.2,0.3,0.3,0.3,0.5c0,0.2,0,0.5,0,0.5s-0.3,0.2-0.5,0.2l-0.6,0.2l0,0c-0.2,0-0.2,0-0.3,0c0,0-0.2,0-0.2-0.2
		c-0.2-0.3,0.3-0.3,0.3-0.5s-0.2-0.3-0.2-0.3c0-0.2-0.8,0.2-0.8,0.2h-0.2c-0.2,0-0.3,0.2-0.3,0.2c0,0.2,0,0.3,0,0.3
		c0.2,0.2,0.3,0,0.5,0.3v0.2c-0.2,0-0.3,0-0.3,0l-0.3,0.5c-0.3,0.2-0.5,0-0.5,0s-0.2-0.2-0.2-0.3v-0.2v-0.2v-0.3
		c0,0,0.2-0.3,0.2-0.5v-0.2c0.2-0.2,0.2-0.5,0.2-0.6s-0.2-0.3-0.3-0.3c-0.8,0.2-0.6,0.2-0.8,0.2l0,0c0,0-0.2,0-0.2,0.2h-0.2
		c0,0-0.2,0.2,0,0.3c0,0,0,0.2,0.2,0.5c0,0,0,0.2,0.2,0.2c0,0.5,0.3,0.9,0.3,1.4c0.2,0.5,0.2,0.9,0.3,1.4c0.2,0.2,0,0.3,0.2,0.5l0,0
		c0.2,0,0.2,0,0.3,0c0.2,0,0.3-0.3,0.3-0.3c0-0.2,0-0.3,0-0.3C41.8,91.5,42.1,91.4,43.5,91.1z"/>
	<path class="st0" d="M38.4,73c0,0.2,0,0.3,0,0.3s0.2,0.2,0.3,0.2s0.3-0.2,0.3-0.2c0.6-0.5,3.5-0.3,3.4-0.3c0.3,0,0.5,0.2,0.6,0.3
		c0,0.2,0.3,0.2,0.3,0.2l0.2-0.2c0.2-0.3,0,0,0-1.8c0-0.2,0-0.3,0-0.5c0-0.2,0-0.3,0-0.3c-0.2-0.2-0.5-0.2-0.6,0.2
		c-0.6,0.5-3.4,0.3-3.8,0.2l-0.2-0.2c0-0.3-0.6-0.3-0.6,0c-0.2,0.5,0,0.9,0,1.1c0,0.2,0,0.3,0,0.5C38.4,72.7,38.4,73,38.4,73z"/>
	<path class="st0" d="M48.1,100.4c0,0,1.1-0.6,1.2-0.6c0.2-0.2,0.5-0.2,0.6,0c0.2,0,0.2,0,0.2,0c0.2,0.2,0.3,0.2,0.5,0.2v-0.2
		c0,0,0-0.2-0.2-0.5c-0.3-0.3-2.1-3.2-2.1-3.4c0,0,0,0-0.2-0.2c0-0.2-0.3-0.5-0.3-0.5s-0.2,0-0.3,0c0,0.3-1.1,0.5-1.1,0.9
		c0,0.2,0,0.2,0.2,0.2c0.2,0.2,0.3,0.3,0.5,0.3c0.3,0,0.8,0.3,0.9,0.5c0.2,0.2,0.3,0.3,0.3,0.3c0,0.2,0.2,0.2,0.2,0.2
		c0.2,0.2,0.2,0.3,0.2,0.5c0,0-0.2,0.2-0.3,0.3c0,0-0.2,0-0.2,0.2l-0.3,0.2l-1.5,1.1c-0.3,0.2-0.5,0.2-0.6,0.3
		c-0.2,0-0.5-0.2-0.5-0.2c0-0.2-0.3-0.3-0.5-0.2s-0.2,0.3-0.2,0.3s0,0.2,0.2,0.5c0.2,0,0.8,1.1,0.9,1.4c0.2,0.2,0,0.3,0.5,0.6
		c0.2,0,0.2,0,0.3,0c0-0.2,0.2-0.3,0.2-0.3C46.5,101.5,46.5,101.4,48.1,100.4z"/>
	<path class="st0" d="M38.4,62.5c0,0.2,0,0.3,0,0.3s0.2,0,0.3,0s0.3,0,0.3-0.2c0.8-0.6,3.5-0.5,3.8,0l0.2,0.2c0,0.2,0.6,0.3,0.6,0
		c0.2-0.3,0,0.2,0-1.8c0-0.2,0-0.3,0-0.5s0-0.2,0-0.3c-0.3-0.3-0.5,0-0.6,0.2l-0.2,0.3c-0.6,0.3-3.1,0.2-3.7,0
		c-0.2-0.2-0.2-0.3-0.5-0.3l-0.3,0.2c-0.2,0.5,0,0.9,0,1.1c0,0.2,0,0.3,0,0.5C38.4,62.2,38.4,62.5,38.4,62.5z"/>
	<path class="st0" d="M76.8,107.5c0.2-0.2,0.3-0.3,0.2-0.5c0-0.2-0.2-0.2-0.3-0.2c0,0-0.2,0-0.3,0.2c-0.5,0.3-0.6,0.3-1.1,0.6l0,0
		c-0.2,0-0.3,0.2-0.3,0.3v0.2c0.2,0,0.2,0.2,0.3,0.2s0.2,0,0.2,0c0.2,0,0.2,0,0.3,0.2v0.2c0,0-0.2,0.3-0.5,0.5
		c-0.2,0.2-1.7,1.2-2.1,1.2c0,0,0,0-0.2-0.2c-0.2-0.2,0.3-0.3,0-0.9c0-0.6-2.5,1.5-2.9,1.5c-0.2,0.2-0.5,0.3-0.3,0.5
		c0,0.2,0.3,0.2,0.6,0.2c0,0,0.2-0.2,0.3-0.2c1.2,0.5,2.8,0.6,5.2,1.5c0.2,0,0.5,0,0.6-0.2c0.5-0.3,0.3-0.5,0.3-0.8v-0.2
		C76.8,108.4,76.6,107.8,76.8,107.5z M75.7,111L75.7,111c-0.2,0-0.3-0.2-0.3-0.2c-0.2,0-0.2,0-0.2,0c-0.2-0.2-0.3-0.3-0.3-0.3
		c0-0.2-0.2-0.2-0.2-0.2v-0.2c0,0,0.3-0.2,0.5-0.2V110c0,0,0.2,0,0.3,0c0-0.2,0.2-0.2,0.2,0v0.2v0.3C75.7,110.6,75.7,110.9,75.7,111
		C75.7,110.9,75.7,111,75.7,111z"/>
	<path class="st0" d="M40.1,50.3c-0.2,0-0.3,0.2-0.5,0.2l-0.2,0.2c-0.2,0-0.3-0.2-0.3-0.3L39,50.1c-0.2,0-0.3,0-0.3,0.2
		c-0.2,0.8,0,2.5,0,2.6c0.2,0.2,0.6,0.2,0.6-0.2c0.2-0.2,0.5-0.6,0.8-0.6c0.8-0.5,0,0,3.2-1.7l0,0c0.9-0.5,1.1-0.9-0.3-1.5
		c-2-1.4-1.4-1.1-2.6-1.7L40.2,47c-0.2,0-0.2,0-0.2,0c-0.3-0.2-0.6-0.3-0.6-0.5s0-0.3,0-0.3c0-0.3-0.6-0.3-0.6-0.2
		c-0.2,0.3-0.2,1.7,0,2c0,0,0.2,0.2,0.3,0.2c0.2,0,0.3-0.9,0.9-0.5l0.3,0.2c1.5,1.1,1.1,0.9,1.4,1.1c0.2,0.2,0.2,0.5,0,0.5
		C41.2,49.6,41.3,49.5,40.1,50.3z"/>
	<path class="st0" d="M38.9,79.4l0.3-0.2l0.2-0.2c0,0,0.3-0.2,0.5-0.2c0,0,0.2-0.2,0.3-0.2h0.8H41h0.2c0.5,0,1.2,0.2,1.4,0.2
		c0.2,0,0.3,0.2,0.5,0.2l0.2,0.2c0,0.2,0.3,0.2,0.3,0.2c0.2,0,0.2,0,0.2,0s0-0.2,0-0.5v-0.6v-1.5v-0.5c0,0,0-0.2,0-0.3
		c0-0.2-0.2-0.2-0.2-0.2c-0.2,0-0.5,0.2-0.5,0.5c0,0.2,0,0.2,0,0.3c0,0.2-0.2,0.3-0.2,0.3c-0.3,0-0.9,0.2-1.2,0l0,0
		c0.2-0.2,0-0.5,0-0.9c0.5-2.6-3.2-3.1-3.2,0.6c0,0.2,0.2,0.5,0.2,0.8c0,0.5-0.2,0.8-0.2,1.2v0.5c0,0.2,0.2,0.3,0.2,0.3
		S38.7,79.4,38.9,79.4z M40.1,75.4c0.2,0,0.3,0,0.6,0.2c0.2,0.5,0.2,0.8,0,1.2C40.6,77,40.6,77,39.3,77l-0.2-0.2
		C39,76,39.8,75.4,40.1,75.4z"/>
	<path class="st0" d="M50.7,105.7c0.2,0,0.6-0.6,0.9-0.8l0.2-0.3c0.3-0.2,0.9-0.5,0.9-0.6c0.2-0.2,0.5-0.2,0.6-0.2l0.2,0.2
		c0,0,0.3,0,0.3-0.2l0.2-0.2c-0.2,0-0.2-0.3-0.3-0.3c0,0,0-0.2-0.2-0.2c-0.2-0.2-2.5-2.6-2.5-2.9c-0.2,0-0.3-0.3-0.6,0
		c-0.2,0-0.3,0.3-0.5,0.3c0,0.2-0.3,0.2-0.3,0.3l0,0c-0.3,0.3-0.3,0.5-0.2,0.6c0.2,0.2,1.2,0,1.4,0.2c0,0.2,0.3,0.3,0.5,0.5
		c0,0.2,0.2,0.3,0.2,0.3c-0.3,0.3-0.3,0.3-0.8,0.8c-0.2,0-0.2,0-0.3,0.2c0,0,0-0.2-0.2-0.2c-0.2-0.3,0-0.5,0-0.6
		c0-0.2-0.2-0.2-0.3-0.3c0-0.2-0.6,0.5-0.6,0.5l0,0c-0.2,0.2-0.2,0.3-0.2,0.3c0.2,0.2,0.2,0.2,0.2,0.3c0.3,0,0.5-0.2,0.5,0.2v0.2
		c-0.2,0.2-0.3,0.5-0.9,0.6c0,0-0.2-0.2-0.3-0.2c-0.2-0.2-0.2-0.5-0.2-0.5c-0.2-0.2-0.2-0.3-0.2-0.6c0,0,0,0,0.2,0
		c0-0.3,0-0.5-0.2-0.6l0,0c-0.2-0.2-0.2-0.2-0.2-0.2c-0.3,0-0.8,0.5-0.9,0.6l0,0c-0.2,0.2-0.2,0.3-0.2,0.3c0.2,0.5,0,0,0.6,0.8
		c0.2,0.2,0.5,0.5,0.6,0.8c0.2,0,1.2,1.4,1.2,1.5c0.2,0.2,0.5,0.3,0.5,0.3s0.3,0,0.3-0.2c0,0,0.2-0.3,0-0.3
		C50.4,106.3,50.4,106,50.7,105.7z"/>
	<path class="st0" d="M67.6,115.2c0.5-1.5,0.6-1.7,0.9-1.8c0,0,0,0,0.2,0s0.3,0,0.3-0.3v-0.2c0,0-0.2-0.2-0.3-0.2s-0.9-0.3-1.1-0.3
		c-0.3,0-0.8-0.5-1.1-0.5c-0.2,0-0.6-0.2-0.6,0c-0.2,0.2,0,0.3,0.2,0.5c0,0.2,0,0.2,0.2,0.3c0,0.2,0.2,0.2-0.2,0.8l-0.2,0.5
		c0,0-0.2,0-0.2,0.2c0,0,0,0,0-0.2c-0.2,0-0.3,0-0.3-0.2c0,0,0-0.2-0.2-0.3v-1.4c0.2-0.3-0.2-0.5-0.3-0.6h-0.3l0,0
		c-0.2-0.2-0.3-0.2-0.3-0.2c-0.2,0-0.3-0.2-0.3-0.2c-0.2,0-0.3,0-0.3,0c-0.2-0.2-0.6-0.2-0.6,0v0.2c0,0.2,0,0.2,0.2,0.3
		c0.2,0.2,0.3,0.3,0.3,0.6c0,0.5,0.2,0.9,0.3,1.4c0.2,0,0.2,0,0.2,0c-0.3,0.2-0.2,0-0.3,0.2c-0.2,0-0.3,0.2-0.5,0.2
		s-0.3,0.2-0.3,0.5l0,0c-0.2,0.3-0.2,0.6,0,0.9c0,0.2,0,0.2,0.2,0.3c0.2,0.3,0.8,0.6,1.4,0.8c0,0,0.3,0,0.5,0.2c0,0,0.6,0.2,0.8,0.2
		c0.2,0.2,1.1,0.5,1.2,0.5c0.3,0,0.5,0,0.5-0.2c0.2,0,0-0.2-0.2-0.3c0-0.2,0-0.2,0-0.2c-0.2-0.2-0.2-0.3-0.2-0.5
		C67.3,116.1,67.4,115.6,67.6,115.2L67.6,115.2z M65.7,114.9l-0.3,0.9l-0.2,0.3c0,0-0.2,0-0.3-0.2c-0.3,0-0.5-0.2-0.5-0.2
		s-0.2-0.2-0.3-0.3c0-0.2,0-0.3,0-0.5c0-0.3,0.2-0.5,0.3-0.5c0.2-0.2,0.3-0.2,0.5-0.2l0,0c0.2,0,0.8,0.3,0.8,0.3
		C65.9,114.7,65.7,114.7,65.7,114.9z"/>
	<path class="st0" d="M43.6,64.1c0-0.2-0.2-0.2-0.3,0c-0.2,0-0.2,0.2-0.2,0.3l0,0c-0.3,0.6-0.9,0.3-1.8,1.2c0,0,0,0-0.2,0H41v-0.2
		c-0.2-0.2-0.3-0.3-0.3-0.5c-0.2,0-0.3,0-0.5,0c-2.1,0-1.5,2.9-1.5,4.9c0.2,0.2,0.5,0.2,0.6-0.2c0.2-0.2,0.2-0.2,0.2-0.2
		s0.3-0.2,0.5-0.2c0.2-0.2,2.5-0.2,2.6,0c0.3,0,0.6,0.2,0.6,0.3c0.2,0.2,0.2,0.3,0.3,0.3l0.2-0.2c0.2-0.2,0.2-2.9,0-3.1
		c0-0.2-0.5-0.3-0.6,0.2c-0.2,0.2-0.2,0.3-0.2,0.3c-0.2,0.2-0.2,0.2-0.3,0.2c-0.3,0-0.9,0-1.1,0v-0.2c0-0.2,0-0.3,0.2-0.3
		c0,0,0.2,0,0.3-0.2c2-0.6,1.7-0.3,1.7-1.8C43.6,65,43.8,64.2,43.6,64.1z M40.7,67.4c-1.2,0-1.4,0-1.5-0.2c0-0.6-0.2-1.1,0.3-1.2
		c0.3-0.3,1.4-0.2,1.4,0.5C40.9,66.7,40.7,67.4,40.7,67.4z"/>
	<path class="st0" d="M58.7,108.6c0-0.2,0.2,0,0.3,0c0.2,0,0.2,0,0.2,0l0.2-0.2c0-0.2,0-0.2,0-0.2s-0.2-0.2-0.3-0.3l0,0
		c-0.2,0-0.3-0.2-0.5-0.3s0,0-0.2-0.2c-0.2,0-1.1-0.6-1.2-0.8c-0.2-0.2-0.9-0.6-1.1-0.3c0,0,0,0.2,0,0.3c0.2,0,0.3,0.3,0.3,0.5
		c0.9,3.1,0.3,5.5,0.9,5.7c0.3,0.3,0.5,0.2,0.8,0h0.2c0.2-0.2,0.5-0.2,0.9-0.5c1.8-0.9,2.9-1.7,3.2-1.5c0.2,0,0.3,0,0.3,0h0.2
		c0,0,0.2,0,0.3,0v-0.2c0,0,0-0.2,0-0.3l0,0c-0.2,0-0.3-0.2-0.3-0.2c-1.2-0.6-1.1-0.8-1.5-0.5c-0.2,0.3,0.2,0.5,0,0.6
		c-0.2,0.3-1.2-0.3-1.5-0.5c-0.2-0.2-0.5-0.3-0.6-0.5c-0.5-0.3-0.6-0.6-0.8-0.6c0-0.2,0-0.2,0.2-0.2
		C58.5,108.6,58.7,108.6,58.7,108.6z M58.7,111v-0.3c0.2-0.2,0.2-0.5,0.2-0.5v-0.2H59c0.2,0,0.2,0,0.2,0.2h0.2l0,0
		c0,0,0.2,0.2,0.3,0.2v0.2c0,0-0.2,0-0.2,0.2c-0.2,0-0.2,0.2-0.3,0.2l0,0c-0.2,0-0.3,0.2-0.3,0.2S58.8,111,58.7,111
		C58.7,111.2,58.7,111.2,58.7,111z"/>
	<path class="st0" d="M92.4,76.8c0,0,0-0.2,0-0.3c-1.1-1.4-0.6,3.2-0.6,3.4c0.2,0.2,0.3,0.2,0.5-0.2c0.2-0.2,0.2-0.3,0.2-0.3
		s0-0.2,0.2-0.3c0.6-0.6,2.8-2.5,4.1-3.2c0.2-0.2,0.3-0.3,0.3-0.3s0-0.2,0-0.3c0-0.5-0.2-0.5-0.5-0.6l-0.2-0.2L93,72.7
		c-0.2,0-0.5-0.3-0.6-0.5l-0.2-0.2c0-0.2-0.3-0.3-0.5-0.2c-0.2,0.2-0.2,0.6-0.2,1.5c0,0,0.2,0.2,0.2,0.3H92c0.6,0,0.3-0.3,0.6-0.3
		c0.2,0,0.2,0,0.2,0c0.3,0.3,0.3,2.6,0.2,3.1C92.7,77,92.4,77,92.4,76.8z M93.6,75.3c0.2-0.6,0.2-0.3,0.6-0.3
		c0.2,0.2,0.2,0.2,0.2,0.2c0.2,0,0.3,0.2,0.3,0.2s0,0,0,0.2v0.2l-0.3,0.2c0,0-0.2,0-0.2,0.2h-0.2H94h-0.2
		C93.6,75.7,93.6,75.4,93.6,75.3L93.6,75.3z"/>
	<path class="st0" d="M88,47.2c0,0.2,0,0.2-0.2,0.2s-0.3,0.3-0.2,0.6c0,0.2,2.8,0,2.9,0c0.3-0.6-0.3-0.5-0.3-0.8
		c-0.2,0-0.2-0.3-0.2-0.5c-0.2-0.3-0.2-2.5,0-2.6c0-0.3,0-0.5,0-0.5c0.2,0,0.5-0.3,0.5-0.5s0-0.2-0.2-0.3c-0.2,0-2.5-0.2-2.6,0
		c-0.2,0.3-0.2,0.5,0.2,0.6l0.2,0.2c0,0,0.2,0.3,0.2,0.5s0.2,0.6,0.2,1.1C88.3,46.7,88.1,47.2,88,47.2z"/>
	<path class="st0" d="M64.2,45.7C64.3,45.7,64.3,45.7,64.2,45.7c0.3-0.2,0.5-0.3,0.6-0.5c0,0,0.2-0.2,0.2-0.3c0-0.2,0.2-0.5,0.2-0.6
		s0-0.5-0.2-0.6c-0.2-0.5-0.8-0.9-2-0.9c-0.2,0-0.8,0-0.9,0h-2.1c-0.2,0-0.3,0-0.5,0c-0.3,0.5,0,0.6,0.3,0.8c0.5,0,0.3,2.8,0.2,3.2
		c-0.2,0.3-0.2,0.3-0.3,0.5c0,0.2-0.5,0.3-0.5,0.5c0,0.2,0,0.2,0.2,0.3c0.6,0,1.1,0,1.7,0h0.6c0.3,0,0.8,0,1.1,0
		c0.2-0.3,0-0.5,0-0.6c-0.2,0-0.2,0-0.2,0c-0.2-0.2-0.2-0.2-0.2-0.2L62,47c0-0.2,0-0.3,0-0.5v-0.5c0-0.2,0-0.2,0-0.2h0.2
		c0.2,0,0,0.2,0.2,0.2c0,0.2,0,0.3,0.2,0.5l0.3,0.2c0.8,1.5,0.3,1.4,2.9,1.4c0-0.2,0.3-0.3,0-0.5c0-0.2-0.2-0.2-0.3-0.2
		c-0.2-0.2-0.5-0.3-0.5-0.3l0,0c-0.3-0.3-0.6-0.8-0.8-1.1L64,46C64,45.8,64.2,45.8,64.2,45.7z M63.1,44.9
		C63.1,44.9,63,44.9,63.1,44.9L62.8,45c-0.2,0-0.5,0.2-0.5,0l-0.2-0.2v-0.8c0-0.2,0.2-0.2,0.2-0.3c0.6,0,0.6,0,0.8,0.2l0,0
		c0.2,0.2,0.3,0.2,0.3,0.5C63.3,44.6,63.3,44.7,63.1,44.9z"/>
	<path class="st0" d="M38.4,59.2c0,0.2,0.9,0.3,1.1,0.3c0,0,0.2-0.2,0.3-0.2c0.2-0.5,0-0.9-0.2-1.1h-0.2c-0.2,0-0.3-0.2-0.3-0.3
		c0-0.2,0-0.3,0-0.5l0.2-0.2c1.2,0,0.8,0,2.8,0c0,0,0.5,0.2,0.6,0.2c0,0,0.2,0.2,0.3,0.2c0,0.2,0.2,0.2,0.2,0.2
		c0,0.2,0.3,0.3,0.3,0.3l0.2-0.2c0,0,0-0.2,0-0.5c0-0.2,0-0.5,0-0.6v-0.9c0-0.3,0-0.6,0-0.6c0-0.2,0-0.5,0-0.5
		c-0.3-0.5-0.8,0.3-0.8,0.6c-0.2,0-0.3,0.2-0.3,0.2s-0.3,0.2-0.6,0.2c-2.9,0-2.8,0-2.9-0.2c0-0.2,0-0.5,0-0.5s0.2-0.2,0.3-0.2h0.2
		c0.5-0.5,0.2-0.9,0.2-1.1c-0.3-0.3-0.8,0-1.2,0l-0.2,0.2C38.4,54.1,38.4,59,38.4,59.2z"/>
	<path class="st0" d="M91.6,53c0,0.2-0.2,0.3-0.2,0.3c0,0.2,0.2,0.3,0.2,0.3c0.2,0.2,0.3,0.3,0.5,0c0,0,0,0,0.2-0.2l0,0
		c0.3-0.5,1.1-0.6,1.8-1.2h0.2h0.2c0,0.2,0.3,0.6,0.5,0.6c0,0.2,2,0.9,2-2.6v-0.5c0-1.2,0-1.7-0.2-1.7L96.6,48
		c-0.2,0-0.2,0.2-0.3,0.3c0,0.2,0,0.2,0,0.2c-0.2,0-0.3,0.2-0.5,0.3c-1.1,0-0.5,0-1.4,0c-0.6,0-1.1,0-1.4,0
		c-0.2-0.2-0.5-0.2-0.5-0.3c0,0,0-0.2-0.2-0.2c-0.2-0.3-0.3-0.2-0.6-0.2c0,0.2-0.2,0.3-0.2,0.5s0.2,0.3,0.2,0.6c0,2-0.2,1.5-0.2,1.7
		c0,0.2,0.2,0.3,0.2,0.5c0.2,0,0.2,0.2,0.2,0.2c0.2,0,0.3-0.2,0.3-0.3c0.2,0,0.2-0.2,0.2-0.2s0.2-0.2,0.3-0.2c0,0,0.3,0,0.5,0h0.5
		c0,0,0,0,0.2,0V51c0,0.2,0,0.2-0.2,0.3c0,0.2-0.2,0.2-0.3,0.2c-1.4,0.5-1.7,0.5-1.7,0.9c0,0.2,0.2,0.2,0.2,0.8
		C91.6,52.6,91.6,53,91.6,53z M94.4,50.4c0.2,0,0,0,0.8,0h0.5c0.2,0,0.2,0,0.2,0c0.2,0,0.2,0.8,0.2,0.9s-0.2,0.3-0.3,0.3
		c-0.5,0.2-1.4,0.3-1.4-0.5C94.4,51.2,94.4,50.4,94.4,50.4z"/>
	<path class="st0" d="M67.6,48.9c-4.6,0-3.7,0-8.3,0v0.9c6,0,23.3,0,29.9,0c0.3-0.2,0.5,0.5,0.5,0.5v23.3c0,16.9-7.4,29.6-22.1,36.5
		C41.8,97.8,45.5,77.6,45.5,51.3h0.2c0.8,0.9,0.9,1.4,1.1,3.1c0.3,0.3,0.2,0.2,0.5,0.5c0.2,0.2,0.2,0.5,0.3,0.8
		c0.2,0.2,0.3,0.5,0.8,0.3l0,0c0.2-0.3,0.2-0.6,0-0.8c-0.2-0.3-0.3-0.8-0.3-1.1c-0.3-0.9-0.9-2-1.1-3.2l0.2-0.2l0.2,0.2
		c0.5,0.6,0.6,1.4,0.9,2.1c0.3,0.9,0.5,1.8,0.8,2.6c0.2,0.3,0.5,0.8,0.6,1.2c0.2,0,0.5,0.3,0.6,0.6c0.2,0.2,0.2,0.5,0.3,0.8
		c0.9,0.8,1.7,1.8,5.8,1.4l0.5,0.2c0.3,0.3,0.5,0.8,1.1,1.2c0.2,0.2,0.3,0.2,0.6,0.5c2.5,0,3.2,1.4,4.3,2.1c0.5,0,1.5,0.3,2,0.5h0.2
		c0.5,0.3,0.6,0.8,1.1,1.2c0.3,1.5-1.1,2.6-1.5,3.8v0.2c-0.8,1.4-1.2,3.2-0.8,4.6c0.5,0.2,0.3,0.6,0.8,1.1c1.8,5.4,0.9,5.1,3.7,6.8
		c-0.5,3.2-0.9,4-1.4,7.7c-1.5,2.8-0.3,5.8-1.7,8.7c0.2,2.1,0,4.1,0.5,6.1c0.3,0.3,0.6,0.9,1.1,1.2c0.5,0,0.3,0.2,1.5,0.6l0.5-0.2
		c0.8-1.8-0.2-4,1.1-5.8c0.6-0.3,1.2-1.1,1.5-1.8c0-0.3,0.2-0.8,0.3-1.2c0.5-0.6,1.2-0.9,1.7-1.8c0-0.3-0.3-0.5-0.3-0.9
		c0.6-0.3,0.9-0.2,1.5-0.2c0.6-0.5,2.3-2,3.7-3.5c2.6-0.9,2.8-3.1,4.4-4.6c0.2-0.2,0.3-0.3,0.8-0.5c1.1-0.5,1.8-0.5,2.9-1.2
		c0-0.2,0.2-0.3,0.2-0.3c0.6-1.2,0.5-2.8,0.3-4c0.6-1.5,3.4-4.9,0.6-6.9L86.7,73c-1.2-1.2-2.8-2.1-3.5-2.6c-0.2,0-1.8,0-2.3-0.3
		l-0.2-0.2c0-0.3-0.5-0.3-0.5-0.8v-0.9c0-0.6-0.5-0.6-0.6-1.2c-0.2,0-0.2,0-0.3-0.2c-0.6-0.6-1.2-0.9-2.3-1.5
		c-0.6-0.3-1.4-1.7-2.1-1.7c-1.4,0.2-2.6-0.5-4-0.6c-1.1-0.8-2.5-0.6-3.1-0.3c-0.3,0.2-0.5,0.3-0.8,0.3c-0.2,0.2-0.3,0.2-0.5,0.2
		L66.2,63l-0.6-0.5c-0.3-0.2-0.6-0.2-1.1-0.2c-0.3,0-0.6,0.2-1.1,0c-0.8-0.6-0.8-0.8-0.9-0.9c0,0-0.2-0.2-0.2-0.3
		c0-1.2-0.2-1.1-0.2-1.2c-0.2-0.2-0.3-0.3-0.5-0.5h-1.5l-0.5-0.2c-0.3-0.6,0.2-1.2,0.3-2c-0.2-0.5,0.2-0.9,0.2-1.5l-0.5-0.3h-0.5
		l0.2,0.5c0,0-0.2,0.2-0.3,0.2c-0.3,0.3-0.5,0.8-0.8,1.1c-0.3,0.2-0.5,0.3-1.2,0.5h-0.5c-0.5-0.2-0.6-0.3-1.2-0.5l-0.3-0.3L55,56.7
		c-0.6-1.1-0.2-2.5-0.3-3.8l-0.5-0.5c-0.3,0-0.6-0.3-1.1-0.5L53,51.6c-0.3-0.2-0.6-0.3-0.9-0.5l-0.3,0.2c-0.5,0-0.6-0.3-0.9-0.3
		l-0.3-0.3c-0.2-0.2-0.3-0.2-0.6-0.6v-0.3c0.5,0-0.6,0,9.2,0v-0.9c-15.7,0-14.6-0.3-14.6,0.8c0,24.2-0.5,29,1.1,35.8
		c2.1,10.3,8.3,18.1,17,23.2c0.2,0.3,3.8,2.1,4.8,2.6c15.3-7.4,22.7-19.5,23-36.7c0-28.2,0.6-25.6-1.4-25.6
		C78.6,48.9,67.6,48.7,67.6,48.9z"/>
	<path class="st0" d="M83.5,11.3c0.3,0.2,1.4,0,1.4-2.1c0.2-3.1,0.5-4.8,0-6c-0.6-0.8-1.8-0.6-2-0.2c-0.5,0.6-0.3,1.2-0.6,6
		c0,0.9,0.2,1.4,0.2,1.8C82.7,11,83.1,11.3,83.5,11.3z M83.5,3.6c0.2-0.2,0.2-0.2,0.3-0.3c0.5,0.2,0.5,0.8,0.5,1.4
		c-0.2,5.7-0.2,5.7-0.6,5.7c-0.5,0-0.5-0.5-0.5-1.2C83.2,9.1,83.4,3.8,83.5,3.6z"/>
	<path class="st0" d="M80,10.8c0.2,0,0.8,0.2,0.8,0.2l0.5-7.5H82V2.5c-1.5-0.2-0.9,0-2.5-0.2v0.9h0.8L80,10.8z"/>
	<polygon class="st0" points="61.7,10.7 61.6,3 61.6,3 62.3,8.5 62.6,10.7 63.9,10.7 63.7,2.2 63,2.2 63.1,9.9 62.3,4.5 62,2.4 
		61,2.4 61,10.7 	"/>
	<path class="st0" d="M65.4,8.5c0.5,0,0.8,0,1.1,0l0.2,2.1h0.9l-0.9-8.4c-0.5,0-0.8,0-1.2,0l-1.1,8.4h0.8L65.4,8.5z M65.9,3.3
		L66,3.2l0.5,4.6c-0.3,0-0.8,0-0.9,0L65.9,3.3z"/>
	<path class="st0" d="M87,3.9L87,3.9c0.5,5.8,0.6,7.4,0.6,7.5l1.1,0.2l0.5-8.4h-0.8l-0.3,7.7c-0.6-8.4-0.5-7.2-0.6-7.7L86.4,3
		L86,11.4h0.8L87,3.9z"/>
	<path class="st0" d="M70.2,10.5V9.6c-0.8,0-0.8,0-1.2,0V2.1h-0.8v8.4h1.1H70.2z"/>
	<path class="st0" d="M73.2,8.5c0.6,0,0.5,0,1.1,0l0.2,2.1h0.9l-0.9-8.4h-0.8h-0.5L72,10.7h0.8L73.2,8.5z M73.7,3.8l0.2-0.6l0,0
		l0.5,4.4c-0.3,0-0.8,0-0.9,0L73.7,3.8z"/>
	<path class="st0" d="M77.4,11L77.4,11c0.6-0.2,0.9-0.2,1.1-0.5c0.3-0.3,0.3-0.9,0.3-1.8l0.2-6.3L78,2.2c-0.2,6,0,7.7-0.5,7.7
		c0,0.2,0,0.2-0.2,0.2c-0.2-0.2-0.3-0.2-0.3-0.3c-0.2-0.3-0.2,0.3,0-7.5h-0.9L76,8.5c0,0.9,0.2,1.5,0.3,1.8
		C76.5,10.8,76.8,10.8,77.4,11z"/>
	<path class="st0" d="M117.6,11.7c-0.2,0.3-1.2,3.1-1.5,4c0.3,0.2,0.2,0,0.8,0.2c0.8-2.5,0.6-1.7,1.1-3.2l0.2,3.5l0.9,0.2l-0.3-4.4
		c1.4-3.5,1.1-2.8,1.5-3.8c-0.3,0-0.2,0-0.8-0.2l-0.9,2.9L118,7.8c-0.8-0.2-0.6-0.2-0.9-0.2C117.4,11.6,117.4,10.7,117.6,11.7z"/>
	<path class="st0" d="M56.4,10.8L56,2.4c-0.3,0-0.2,0-0.8,0.2l0.3,8.3C55.6,10.8,56,10.8,56.4,10.8z"/>
	<path class="st0" d="M119.4,16.8c0.3,0,0.2,0,0.9,0.2c0.2-1.4,0,0,1.1-8.3l-0.9-0.3C120.2,10.2,120,12.5,119.4,16.8z"/>
	<path class="st0" d="M124.6,17.4c0,0,0,0,0.2,0.2c0.2,0.8,1.7,0.9,2,0.5c0.5-0.5,0.5-1.1,1.2-5.7c0.2-0.8,0.2-1.4,0-1.8
		c-0.2-0.6-1.2-1.2-2-0.6c-0.6,0.8-0.6,1.7-1.2,5.7c-0.2,0.2-0.2,0.2-0.2,0.2C124.6,16.8,124.6,17.1,124.6,17.4z M126.3,11.3
		c0.2-0.2,0.2-0.5,0.2-0.5c0.3-0.3,0.6-0.2,0.8,0.2c0.2,0.3-1.1,6.1-1.1,6.3c-0.2,0.2-0.3,0.2-0.5,0.2
		C124.9,17.4,126.3,12.4,126.3,11.3z"/>
	<path class="st0" d="M115.6,15.7V15l-1.2-0.2l0.5-3.1c1.1,0.2,0.8,0.2,1.1,0.2v-0.8c-0.3-0.2-0.2-0.2-1.1-0.2l0.3-2.6
		c1.5,0,0.9-0.2,1.4-0.2V7.5c0,0-0.8-0.2-1.8-0.5l-1.1,8.4L115.6,15.7z"/>
	<path class="st0" d="M123.1,17.4c0.6,0,0.8-1.1,0.9-2.1l-0.9-0.2v0.6l-0.2,0.2c0,0.5-0.2,0.9-0.5,0.9c-0.2,0-0.2-0.2-0.2-0.3
		c-0.2-0.3,0.8-5.7,0.8-5.8c0-0.6,0.3-0.8,0.5-0.8c0.2,0,0.2,0,0.2,0.3c0,0.2,0,0.9-0.2,1.4l0.9,0.2c0.2-0.6,0.3-1.8,0-2.1
		c-0.2-0.5-1.2-0.8-1.5-0.6c-0.8,0-0.9,1.2-1.7,6c0,0.8,0,1.4,0,1.8C121.7,17.4,122.6,17.6,123.1,17.4z"/>
	<path class="st0" d="M97.8,12.7c0.2,0,0.8,0.2,0.8,0.2l0.5-2.1c0.8,0.2,0.5,0,1.1,0.2V13l0.9,0.2l-0.3-8.4c-0.2,0-1.1-0.2-1.1-0.2
		l-1.7,8L97.8,12.7z M100.1,5.3l0.2,4.6c-0.6-0.2-0.5,0-0.9-0.2C99.2,9.8,99.5,7.9,100.1,5.3z"/>
	<path class="st0" d="M91.2,11.9c1.1,0,1.1-1.1,1.2-2.1c0.3-5.4,0.8-6.6-1.2-6.6c-1.2,0-1.2,1.5-1.4,6.3c-0.2,0.9,0,1.5,0.2,1.8
		C90,11.4,90.3,11.9,91.2,11.9z M91,4.2l0.2-0.2c0.5,0,0.6,0,0.6,0.3c0.2,0.3,0,5.8-0.5,6.4c0,0,0,0.2-0.2,0.2H91
		c-0.2,0-0.3-0.2-0.3-0.3c0-0.2,0-0.5,0-0.9C90.9,4.8,90.9,5.3,91,4.2z"/>
	<path class="st0" d="M110.2,7.1L110.2,7.1l-0.2,7.5l0.9,0.2l0.2-0.5l1.5-6.9l0,0l-0.9,7.4l0.8,0.2l1.1-8.1l-1.2-0.2
		c-1.4,6.3-1.1,4.9-1.5,6.9l0.2-7.1l-1.2-0.3l-1.1,8.3h0.6L110.2,7.1z"/>
	<path class="st0" d="M94.6,4.7L94.6,4.7l0.2,7.5c0.9,0.2,0.8,0.2,0.9,0.2l1.2-7.2H97l-0.6,7.4h0.8c0.8-8.9,0.6-7.5,0.6-8.3
		l-1.2-0.3c-1.1,6.8-0.9,5.4-1.2,7.1l-0.2-7.2l-1.4-0.2l-0.6,8.3l0.6,0.2L94.6,4.7z"/>
	<path class="st0" d="M105.6,13.4c0.5-0.6,0.5-1.4,0.9-5.5c0.2-1.5,0.2-2.3-1.5-2.6h-0.2l-0.6-0.2l-0.9,8.3
		C104.4,13.7,104.7,13.9,105.6,13.4z M105.8,6.5c0.2,0.5-0.3,5.7-0.6,6.3c-0.2,0.2-0.3,0.2-0.8,0l0.3-2.9l0.6,0.2V9.1L104.7,9
		l0.3-2.9C105.5,6.2,105.6,6.2,105.8,6.5z"/>
	<path class="st0" d="M57.6,10.5c0.2,0.2,0.5,0.5,1.1,0.5c1.2,0,1.4-1.1,1.4-2.3c-0.3-4.8-0.3-5.4-0.6-6c-0.2-0.3-0.3-0.5-0.9-0.5
		c-1.2,0-1.4,1.1-1.4,2.3l0.2,4.1C57.3,9.6,57.4,10.2,57.6,10.5z M58.5,3c0.2,0,0.3,0,0.5,0.3c0,0.2,0-0.2,0.2,5.5
		c0,0.5,0,1.2-0.5,1.2c-0.2,0-0.3,0-0.5-0.2c-0.2-0.2,0,0-0.2-5.5C58,3.8,57.9,3,58.5,3z"/>
	<path class="st0" d="M23.4,15.1l-0.2-0.8l-1.1,0.2c-0.3-2.5-0.3-1.8-0.3-2.9c0.2,0,0,0,1.1-0.2l-0.2-0.9c-0.9,0.2-0.8,0.2-1.1,0.2
		l-0.3-2.6c0.8-0.2,0.5-0.2,1.1-0.3l-0.3-0.9c-0.5,0.2-0.2,0-1.8,0.5l1.2,8.3C22.3,15.4,23.1,15.1,23.4,15.1z"/>
	<path class="st0" d="M24.1,15c0.5-0.2,0.3-0.2,0.8-0.2c-0.5-3.5-0.3-2.8-0.5-3.8c0.5,0,0.5-0.2,0.8,0.2c0.3,0.2,0.5,2.3,0.6,3.7
		l0.9-0.2c-0.5-3.5-0.3-3.1-0.8-3.8c-0.2-0.2-0.5-0.2-0.8-0.2c0.9-0.5,0.8-1.1,0.8-1.8c-0.3-1.8-0.2-2.1-0.6-2.3
		c-0.5-0.3-1.8,0-2.1,0l0.2,1.2L24.1,15z M24.3,7.3c0.8,0,0.6,0,0.9,1.7c0.2,0.5,0,1.1-0.5,1.1l0,0l-0.2,0.2l-0.3-2.8V7.3z"/>
	<path class="st0" d="M30.7,13.7l0.9-0.2c-1.1-8.9-0.9-7.8-0.9-8.3l-0.9,0.2C29.8,5.9,30.7,13.1,30.7,13.7z"/>
	<path class="st0" d="M18.8,16.2l1.1-0.3l-0.3-8.4l-0.8,0.2l0.3,7.2l0,0c-0.9-3.7-0.5-2.1-1.5-6.9c-0.6,0.2-0.5,0.2-0.8,0.3
		C17.7,11.3,18,13.4,18.8,16.2z"/>
	<path class="st0" d="M28.4,10.7c0.2,0.3,0.5,0.8,0.5,1.2c0.2,0.8,0.2,1.1,0,1.2c0,0.2-0.2,0.2-0.3,0.2c-0.2,0.2-0.2,0-0.3,0l0,0
		c-0.2-0.3-0.2-0.2-0.3-1.4L27,12.1c0,0.8,0.2,2.3,1.1,2.3c0,0,0.2,0,0.3-0.2c0.8-0.2,1.1-0.6,1.1-1.4c0-0.2,0-0.6,0-0.8
		c0-1.1,0-0.6-0.2-1.2c-0.2-0.3-0.2-0.2-1.2-1.8L28,8.8l0,0c-0.6-0.9-0.5-1.1-0.5-1.4c-0.2-0.3-0.2-0.6,0-0.6c0-0.2,0.2-0.2,0.2-0.2
		C28,6.5,28,7,28.1,7.1c0,0.3,0,0.2,0,1.1L29,8.1c0-0.2,0-1.5-0.5-1.8c0-0.2-0.3-0.3-0.5-0.3c-0.3-0.2-1.1,0-1.4,0.6
		c-0.3,0.5-0.2,1.2-0.2,2C27.2,9.1,26.4,8.1,28.4,10.7z"/>
	<path class="st0" d="M53.3,11.3c0.2,0.2,0.8,0,1.2-0.5c0-0.2,0.3-0.6,0.2-2.3l-0.8,0.2c0,1.1,0,1.4-0.2,1.5c0,0.2-0.2,0.2-0.3,0.2
		h-0.2c-0.2,0-0.2,0-0.2-0.2c-0.3-0.5-0.3-6-0.3-6.4c0.2-0.3,0.3-0.3,0.5-0.3c0.5,0.6,0.2,0,0.3,1.5l0.8-0.2c0-1.1,0-1.7-0.3-2
		c-0.2-0.2-0.3-0.3-0.9-0.3c-1.2,0.2-1.2,1.1-1.2,2.3l0.2,4.3C52.2,10.2,52.2,11.3,53.3,11.3z"/>
	<path class="st0" d="M9.6,18.3c1.1,0.2,1.8-0.5,1.8-1.1c0.3-0.8-0.3-3.5-1.1-7.7L9.6,9.9l0,0c0.3,2.3,1.1,5.8,1.1,7.2
		c-0.2,0.3-0.5,0.5-0.6,0.2c-0.3-0.2-0.2-0.2-1.4-7.2l-0.9,0.3C8.6,15.4,8.9,17.9,9.6,18.3z"/>
	<path class="st0" d="M33.3,13.3h0.2c0.6,0,1.1-0.3,1.4-0.6c0.3-0.6-0.2-6.9-0.9-7.4c0-0.2-0.3-0.2-0.6-0.3c-0.5,0-0.3,0-1.7,0.2
		l0.9,8.3L33.3,13.3z M32.9,5.9c0.2,0,0.5,0,0.5,0c0.3,0.2,0.2-0.2,0.8,5.5c0.2,0.3,0.2,0.6,0,0.8c0,0.2-0.3,0.2-0.5,0.3h-0.2
		l-0.8-6.6C32.6,5.9,32.9,5.9,32.9,5.9z"/>
	<path class="st0" d="M13.4,17.4l-1.2-7.4c1.8,6.3,1.4,4.6,2.1,7.2l1.1-0.2l0.2-0.2c-0.2-0.5,0,0.6-1.2-8.1c-0.5,0-0.3,0-0.8,0.2
		c0.3,2.3,0.2,0.8,1.2,7.5l0,0c-1.1-4-0.6-2.3-2-7.2l-1.4,0c0,0.5-0.2-0.6,1.2,8.3L13.4,17.4z"/>
	<path class="st0" d="M16.5,16.8c0.8-0.2,0.6-0.2,0.9-0.3c-0.6-5.2-0.8-4.4-1.2-8.3l-0.8,0.2C15.4,9,16.5,16.5,16.5,16.8z"/>
	<path class="st0" d="M5.6,22.3L6,22.8c4.3,1.8,10-0.5,11-0.5c1.2-0.5,6.3-1.4,8.3-0.8l0.2,0.3c0,0.3-0.8,0.8-0.9,0.9
		c-4.1,2.8-11.7,1.2-15,1.4c-2,0.2-6.6,0.8-7.2,2.6c-0.8,1.8,0.2,4.3,0.5,6.1c1.4,0,3.1-1.5,3.1-2.8c0-0.8-0.3-1.8-0.5-2.8L6,27.1
		c2.6,0.3,4.6,0.9,5.4,1.2c0.3,0.2,0.5,0.3,0.8,0.3c-0.2,0-0.5,0.3-0.8,0.3c-1.1,0.5-3.2,1.4-3.8,2.9c0,0.2-0.3,1.7,0,2
		c0.8,0.3,1.4,0.5,2.1,0.8c0.6,0.2,1.2,0.5,1.8,0.6c4.6,1.7,13.3,6.3,13.3,6.8h0.3c0.6,0.3,1.4,0.6,2.1,1.1c0.9,0.2,1.2,0.3,2,0.2
		c0.3-0.5-0.3-0.5-0.3-0.8c-0.9-0.3-6.1-3.8-7.1-4.3c-1.8-1.4-4.6-5.1-3.4-6.9c0.6-0.3,1.1-1.4,3.2-0.6H22c0.5,0.3,0.8,0.8,0.6,1.2
		c-0.2,0.8-1.1,1.1-1.5,1.4l-0.2,0.2c0,2.1,5.7,6.1,7.7,7.1c1.2,0.6,3.2,1.7,4.8,1.7l0.3-0.3h0.2c0.5-0.6,1.4-1.4,2-2v-0.3l-0.3-0.2
		c-0.6-0.2-1.2-0.3-2-0.6c-4.1-1.5-7.8-3.1-7.5-6.3c0.5-0.8-0.5,0,1.1-1.4h0.2c0.6-0.5,0.9-0.8,1.2-1.4c0-0.6-0.3-0.9,0-1.5l0.2-0.2
		c0.2,0,0,0,0.3,0c2.8-2,6.1-3.4,2.1-8.7c-0.3-0.5-2.1-2.6-2.3-2.8c0.5-0.8,0.8-0.5,1.4-0.8c0.5,0-0.5,0,7.4-1.1
		c18.9-2.1,40.7-2.1,53.7-0.6c6.3,0.5,14.6,2,14.9,2v0.2c0,0.5-0.3,0.5-0.5,0.8c-2,2.3-4,6.4-2.5,9.4c0.6,0.5,1.2,0.8,1.7,1.2
		c0.9,0.2,1.5,0.6,2.1,0.8c0.3,0.2,0.6,0.2,0.8,0.5l0.3,0.2c0.2,0.8,0-0.2,0,2.3c0.6,1.5,1.2,1.5,1.7,2v0.6
		c-1.2,3.1-4.8,4.6-6.6,5.7l-0.2,0.3l0.2,0.5c0.6,0.3,0.9,0.6,1.5,0.6c1.1-0.5,5.1-0.5,8.3-7.1v-0.6l0.3-0.3
		c-0.5-0.3-1.1-0.5-1.2-0.6c-1.1-0.6-0.8-2.6,0.3-2.6c0.8,0,1.8,0.2,2,0.3c0.8,0.2,1.5,1.8,1.1,3.1c-1.1,3.7-4.9,6.4-8.4,8.1
		c-0.3,0.3-0.5,0.5-0.6,0.6V42l0.2,0.5c0.2,0.3,0.8,0.3,0.9,0.6h0.3l0.3-0.6l0.5-0.2h0.5c0.3-0.2,0.2-0.5,0.3-0.8
		c0.2-0.3,0.5-0.2,0.8-0.2c0.2,0.2,0.5,0.2,0.8,0.2c0.2-0.8-0.5,0,0.2-1.2h0.2c0.5-0.2,0.6,0.2,0.9,0.2c0.2-0.2,0.3-0.5,0.2-0.6
		l0.2-0.2c0.3,0,0.5,0.2,0.8,0.2c0.3-0.2,0.3-0.5,0.2-0.6c0.2-0.5,0.2-0.6,0.5-0.6c0.5,0.2,0.8,0.3,1.1,0.5l0.2-0.2
		c-0.2-0.6-0.5-0.5-0.3-1.1l0.6-0.5c0.3,0,0.5,0.2,0.6,0.2h0.3c0-0.3-0.3-0.5-0.3-0.9h0.3l0.2-0.2c0.5,0.2,0.8,0.5,1.1,0.5l0.2-0.2
		c0,0,0-0.2-0.2-0.2c-0.3-0.3-0.6-0.5-0.8-0.9l0.2-0.5l0.5-0.2l0,0c0.5,0.2,0.6,0.5,1.1,0.5c0.2,0.2,0.5,0.5,0.6,0.3v-0.2
		c-0.5-0.3-1.1-0.6-1.2-1.1v-0.5c1.7-0.2,0.8,0.6,2.5,0.6l-0.2-0.2v-0.2c-0.2-0.2-0.5-0.3-0.6-0.3c-0.3-0.2-0.5-0.2-0.6-0.3
		c-0.3-0.3-0.2-0.2-0.5-0.5l0.3-0.2c0.3-0.2,0.6-0.2,0.8-0.2c0.6,0.3,0.6,0,1.8,0.9l0.2-0.2v-0.2c-0.9-0.6-1.5-1.1-1.8-1.1
		c-0.2-0.2-0.2-0.8,0-0.8c2.5,0.9,2.5,1.2,3.4,1.2c0,0.2,0.2,0.2,0.3,0.2v-0.3c0-0.2-0.2-0.2-0.3-0.3c-0.8-0.5-1.8-0.8-2.6-1.4v-0.2
		c0.3-0.5,0.8,0,1.1,0c0.5,0.3,2.3,1.2,2.8,1.4l0.2-0.3c-0.3-0.5-1.1-0.6-1.2-0.8c-0.2,0-0.2-0.2-0.3-0.2c-0.5-0.2-0.6-0.5-1.1-0.8
		l0.3-0.3c0.3,0,1.7,0.2,1.7,0.3c0.3,0.2,0.5,0.3,0.6,0.5c1.7,1.5,1.5,2.1,1.5,2.9c-4,3.7-9.8,7.2-10.3,7.5
		c-2.9,2.1-6.6,2.9-7.4,3.2l-0.3,0.3c0,0.2,0.2,0.5,0.2,0.8l0.3,0.3c1.8,0,6.8-1.7,8.4-2.9c0.3,0,1.8-1.2,2.3-1.4
		c0.2-0.2,1.8-0.9,5.4-3.1c4.8-2.5,4.9-0.9,6.9-2.6v-0.6c0.9-2.1-5.1-6.4-6.3-7.1c1.2-1.1,1.8-0.9,4.8-0.9c0.2,0,0.8,0.3,0.8,0.3
		c0.3,1.4-0.2,3.7,0.9,4.9c0.5,0.3,0.3,0.3,0.8,0.5l0.2-0.2l0,0c0.6-1.1,0.9-2,1.4-2.9c0.8-1.4,0-3.2-0.9-3.8
		c-0.2-0.2-0.3-0.3-0.5-0.5c-6.1-4.1-16.4,1.1-22.7-2c-0.6-0.6-1.2-0.8-1.4-1.4c0.2-0.6,0.5-0.3,0.8-0.6c2.3-0.5,7.4,0.3,10,0.8
		c3.2,0,7.2,2.6,10-0.2c0.2-0.6,0.6-0.2,0.6-3.4c0.5-1.4,1.5-2.1,2.3-3.2c2.8-7.2-2.6-6.1-9.5-8.9c0,0-6.8-1.7-7.4-1.7
		C93.3-1,55.6-0.8,39,1.5h-0.2c-0.2,0-13.8,2-15.7,2.3C20.9,4.1,5.1,7.6,2.3,9.4c-1.4,2.1-0.5,4.4,0,5.2C4.5,16.8,4.6,19.3,5.6,22.3
		z M3.7,31.8c-0.6-0.8-0.5-3.1-0.5-3.5c0-0.3,0.8-1.7,1.4-1.7c0,1.1,0.6,2.1,0.6,3.5C5.1,31.1,4,31.8,3.7,31.8z M13.7,32.5
		c-1.2-0.6,0.5-1.4,0.5-0.5C14.2,32.2,14,32.5,13.7,32.5z M31.7,24.5c-0.6,1.1-1.8,2.3-3.2,2.8h-0.2c-0.5,0.2-1.1,0.5-1.7,0.8h-0.8
		c-0.6-0.2-3.5-0.6-4-0.6c-2.8-0.2-5.2,0.2-5.5,0.2c-0.6,0.2-1.1,0.2-2.3,0.5c-0.2-0.2-0.2-0.2-0.3-0.2c-2.8-1.1-6.1-1.7-8.3-1.8
		v-0.2c1.1-0.5,2.6-0.6,4.1-0.6c1.2,0,6.6,0.5,6.8,0.5l0,0h0.8l0,0c4.1,0,7.2-0.8,10.3-3.4c0.3,0,0.6,0.2,1.1,0.3
		c0.9,0.3,2.9,1.4,3.2,1.7C31.7,24.2,31.7,24.5,31.7,24.5z M29.8,19.9c0.3,0.5,0.6,0.9,0.9,1.2c0.2,0.3,0.5,0.8,0.6,1.1
		c0,0.2,0.2,0.5,0,0.6c-0.6-0.2-2.1-0.9-2.9-1.2c-0.3,0-0.6-0.2-0.9-0.3c-4-1.2-9.5-0.2-11.2,0.5c-1.1,0-4.4,1.1-8.1,0.8v-0.2
		L8.3,22c5.2-2.6,11-3.8,18.6-5.2c0.5,0.5,0.9,0.9,1.4,1.4C28.9,18.7,29.4,19.3,29.8,19.9z M117.4,32.5c-0.8-0.5-0.3-0.9,0-0.9
		C118,31.5,118,32.5,117.4,32.5z M133.5,28l0.3,0.5c0,0.8-0.5,1.7-0.9,2.3c0,0.2-0.2,0.3-0.2,0.3h-0.3c-0.6-0.8-0.5-3.5,0-3.4h0.5
		h0.2C133.2,27.7,133.4,27.9,133.5,28z M119.7,24.8c0.3-0.2,3.2-0.3,3.5-0.3c3.5,0,7.1-0.8,9.8,1.8l0.2,0.2l-0.2-0.2
		c-4.3-1.2-6.9-0.6-9.7,0.6c0,0,0,0-0.2-0.2c-2.5-0.3-4.1-0.6-6.9-0.6c-2.3,0-5.2,0.5-5.2,0.5c-0.5,0.3-1.4,0.9-2.3,1.1
		c-0.6-0.3-1.4-0.2-2-0.3c-0.2-0.2-0.3-0.3-0.6-0.5c-0.9-0.3-1.1-0.6-1.8-0.8c-0.2-0.3-0.5-0.8-0.6-1.2c0-1.2,1.4-1.7,2.6-2.9
		c0.3,0,0.6-0.3,0.9-0.3l0.6,0.2C110.2,25.3,115.1,25.1,119.7,24.8z M127.9,21.6l-0.2,0.2c-5.8,0.6-18.3-4.3-23.8,1.1l-0.3-0.2
		c-0.2-0.3,0.3-0.8,0.2-1.1c0.9-1.8,2.1-3.8,3.8-5.1c3.4,0.5,2.8,0.3,8.1,1.2c0.2,0.2,8.3,1.8,12.1,3.5L127.9,21.6L127.9,21.6z
		 M2.8,10.2c4.1-2.1,19.6-5.4,25.6-6.4c0.3,0,2.1-0.3,2.3-0.3c2.1-0.5,4.6-0.6,6.4-0.9C68.5-0.7,84.6,1,87.7,1.2
		c5.8,0.3,27.3,3.4,28.7,4.3c0.3,0,3.1,0.8,3.4,0.8c0.2,0,9.8,2,12.1,3.8c0.8,1.4,0.5,2.9,0,4.3c-0.5,0.3-0.8,1.1-1.2,1.7
		c-0.9,0.9-1.1,2.8-1.5,4.1c-6.6-1.4-8.7-2.3-9.4-2.3c-1.1-0.3-2.8-0.8-3.4-0.9c-0.2-0.2-0.3-0.2-0.5-0.2c-1.1-0.3-2.1-0.5-3.2-0.6
		c-0.6,0-1.1-0.2-1.5-0.3c-6.4-1.1-9.7-1.8-19.9-2.9c-25.3-2.9-51.7,0.6-52.2,0.6c-0.6,0-1.2,0.2-1.8,0.3c-0.3,0-8.6,1.1-8.7,1.2
		c-5.1,1.5-16.3,2.9-21.2,6.4c0,0.2-0.5,0.2-0.8,0.3H6.3L6,21.6c-0.6-3.2-0.3-5.1-2.9-7.1C2.5,13.3,2,11.4,2.8,10.2z"/>
	<path class="st0" d="M36.7,10.7c0.5-0.2,0.3,0,1.1-0.2l0.3,2.1c0.9-0.2,0.8-0.2,0.9-0.2c-0.2-0.3,0.3,1.5-1.7-8.1
		c-0.3,0-0.2,0-1.2,0.2L35.8,13l0.8-0.2L36.7,10.7z M36.7,5.3L36.7,5.3c0.5,2.5,0.3,1.4,0.9,4.4c-0.6,0.2-0.5,0-0.9,0.2V5.3z"/>
	<path class="st0" d="M49.3,9.1c0.6,0,0.5,0,1.1-0.2l0.3,2.1h0.9l-1.4-8.3c-0.5,0-0.3,0-1.2,0l-0.6,8.6h0.8L49.3,9.1z M49.8,3.8
		c0.3,1.4,0.2,0.5,0.6,4.4c-0.2,0-0.6,0-0.9,0L49.8,3.8z"/>
	<path class="st0" d="M45.6,11.7l-0.5-7.5l0,0c1.1,5.8,0.8,4.1,1.4,7.5l1.2-0.3L47.3,3l-0.6,0.2l0.5,7.7c-1.1-5.8-0.8-4.1-1.4-7.5
		l-1.1,0.2l0.5,8.4L45.6,11.7z"/>
	<path class="st0" d="M41.8,11.7c0.3-0.6,0.2-1.2-0.2-5.7c-0.2-1.4-0.3-2-1.2-2.1c-0.5,0-0.5,0-1.5,0.2c0,0.8-0.2-0.6,0.6,8.3
		C40.9,12.2,41.5,12.2,41.8,11.7z M40.6,4.8L40.6,4.8c0.2,0.2,0.3,0.5,0.3,0.8l0.3,4.8c0,0.3,0,0.6,0,0.8c-0.3,0.2-0.3,0.3-0.8,0.3
		l-0.6-6.6C39.9,4.8,40.4,4.7,40.6,4.8z"/>
	<path class="st0" d="M51.8,16.7L51.8,16.7c-1.1-0.6-2.3-1.1-3.5-1.1c-0.2,0.3-0.3,0.5-0.6,0.6c-0.2,0.2-0.3,0.2-0.5,0.3
		c-1.7,0.6-1.5,0.5-1.8,0.6c-1.1,0-0.6,0-1.1,0.2c-0.2,0-0.2,0-0.3,0.2c-0.3,1.8,0.6,3.4,1.8,6.1c0.2,0.2,0.2,0.3,0.3,0.5
		c0.3,0.5,0.5,0.8,0.8,1.4c0,0.9-0.5,1.7-0.8,2.5h-0.2c0,0.2,0,0.2,0.2,0.3c0,1.4,0.9,1.2,1.5,1.8l0,0c0.6,1.7,0.3,3.2,0.3,4.6
		c0.3,0.3,0.3,0.6,0.3,0.8l0,0c0.2,0.2,0.8,0.3,0.9,0.3c0.3,0,0.8,0,0.9,0c0.3-0.2,0.8-0.2,0.8-0.3c0.5-2.5-0.3-4.9-0.3-7.4
		c0.3-0.3,0.3-0.6,0.5-0.8c0.3-0.3,0.6-1.2,1.1-1.2l0.3-0.2c0.5,0,0.3,0.5,0.8,0.8l0.5-0.3c0.2-0.5,0.3-0.2,0.3-0.9
		c-0.2-0.6-0.5-0.6-0.6-0.9l0.3-0.3c0.3,0,0.3,0.2,0.5,0.3c0,0.2,0.2,0.2,0.2,0.3h0.2c0.5-0.3,0.5-0.8,0.8-1.1c0,0,0.2,0,0.2-0.2
		h0.2c0-0.3,0-0.5-0.2-0.8c0-0.2-0.2-0.2-0.2-0.2c-0.2-0.2-0.3-0.3-0.3-0.5c-0.2-0.2-0.3-0.3-0.6-0.6c0,0-0.2-0.2-0.2-0.3
		c-0.6-0.8-1.2-1.8-1.8-2.6c-0.2,0-0.3-0.3-0.3-0.3v-1.2C52.1,17,51.8,17,51.8,16.7z M54.7,23.1c-0.3,0.3-0.2,0.2-0.3,0.3
		C54.2,23.4,54.5,22.8,54.7,23.1z M52.5,20.5c0.2,0.3,0.2,0.6,0.6,0.9c0,0.2,0,0.8,0,1.1c-0.6,0.9-3.5,4.8-3.5,4.9
		c0.3,2.8,0.8,4.3,0.8,6.3c-0.3,0.8-0.2,0.6-0.3,0.8c-0.3,0-0.5,0-0.6,0L49,34.2c0-0.3-0.2-5.7-1.7-6.3c0-0.3,0-0.5,0.2-0.8
		c0-0.3,1.2-1.8-1.2-4.6c-0.3-0.9-1.4-2.9-1.4-4.1l0.2-0.2h0.2c0.3,0,0.5-0.2,0.8-0.2c0.6-0.2,0.9,0,1.5-0.3
		c0.2-0.2,0.3-0.3,0.5-0.3l0.3-0.5c0.2-0.3,0.5-0.3,0.8-0.5c0.5,0,1.2,0.5,1.7,0.6c0.3,0.3,0.3,1.1,0.3,1.5c0.2,0.3,0.3,0.5,0.5,0.8
		C52.4,20.3,52.5,20.3,52.5,20.5z"/>
	<path class="st0" d="M57.9,31.2c-0.3,0-0.5,0-0.8,0.3c-0.2,0-0.3,0.2-0.3,0.3v1.2l0.3,0.5c0.2,0,0.5,0,0.6,0c0.3,0,0.5-0.2,0.5-0.2
		c0.3-0.8,0.3,0,0.3-1.2c-0.2-0.3-0.2-0.6-0.3-0.8L57.9,31.2z M57.6,32.8L57.6,32.8l-0.2-0.5l0.2-0.2h0.2l0.2,0.2
		C57.9,32.5,57.9,32.6,57.6,32.8z"/>
	<path class="st0" d="M55.4,32.8c-0.3,0.2-0.6,0.3-0.9,0.5l-0.2,0.2h-0.2l-0.2,0.5c0.2,0.5,0,0.8,0.2,1.2h0.2v0.2
		c0.2,0,0.2,0,0.2-0.2c0.3,0,0.6-0.2,1.1-0.3c0.3-0.2,0.3-0.3,0.5-0.8c0-0.5-0.2-0.8-0.2-1.1l-0.3-0.3L55.4,32.8L55.4,32.8z
		 M55.4,34.2L55.4,34.2c-0.2,0.2-0.3,0.3-0.6,0.3l-0.3-0.2c0-0.3,0.3-0.3,0.6-0.6c0.3,0.2,0.2,0.2,0.3,0.3
		C55.4,33.8,55.4,34,55.4,34.2z"/>
	<path class="st0" d="M54.2,40.6c0,0,0.2,0,0.3,0c0.5,0.3-0.2,0.2,1.1,0.2c0.3,0,0.5,0,0.8,0l0,0l0.2-0.3c-0.2-0.6-0.5-1.7-0.9-2.8
		c0-0.2-0.2-0.3-0.2-0.3c-0.2-0.2-0.2-0.3-0.3-0.6v-0.3C54.5,36,54.8,36,54.2,36l-0.3,0.2c-0.3,1.5,0,2.5-0.2,3.7
		C53.9,40.3,53.9,40.4,54.2,40.6z M54.8,37.8c0.2,0.5,0.5,1.2,0.6,1.7L55,39.7c-0.3-0.8-0.5-1.2-0.5-2
		C54.5,37.7,54.4,37.7,54.8,37.8z"/>
	<path class="st0" d="M78.3,35.1c-1.8,1.1-4.6,2.1-7.1,1.4l-0.2,0.5c1.7,4.9,7.4,3.5,11.5,0.2c0-0.2,0.2-0.2,0.3-0.3
		c0.9,0,1.1,0.6,2,2c0.3,0.2,0,0.5,1.8,1.2l0.2-0.2c0.9-0.3,0.9-1.2,1.5-1.5c0.6,0,0.6,0.5,0.9,0.5c0.3,0.2,0.5,0.3,0.8,0.3
		c0.9,0.6,2.8,0.8,4,0.2c0.2-0.2,0.2-0.3,0.3-0.3c0.6-0.5,0.8-0.9,0.9-1.5v-0.5l-0.2-0.2c-1.5,0.6-0.3,0.6-2.8,0.6
		c-0.2,0-1.5-0.6-1.5-0.8c-0.3-0.3-0.6-0.3-0.8-0.6L90,35.8c-1.7-2.1-1.4-5.4-1.4-7.8c0.2-0.3,0.2-0.6,0.3-0.8l0.3-0.3
		c2.9-0.6,4.4,0.6,6.3-0.2c0.6-0.3,1.1-0.9,1.2-1.2v-0.5c-0.3,0-0.5,0-0.9,0l-0.3-0.3l0.2-0.3c0.8-0.3,1.5-0.3,2.1,0.2
		c0.9,1.1,0.5,0.8,0.8,1.7h0.2c0.6-0.3,0.8-1.1,1.2-1.5c0-0.6,0.2-1.1,0-1.5c-2-4.9-8.1-0.5-11.7-7.8l-0.2-0.2c-0.3,0-0.6,0-0.8,0
		c-0.3,0.3-0.5,0.6-0.8,0.8c0.2,0,0,0-0.2,0c-0.6-0.2-0.9-0.6-1.5-0.9c-0.3-0.3-0.6-0.6-1.1-0.9h-0.2l-0.3,0.3
		c-0.2,0.5-0.5,1.1-0.5,1.4L82.6,16v-0.2c-0.5-0.3-0.6-0.6-0.9-0.9h-0.5c-0.3,0.5-0.8,0.5-1.1,1.7c-0.2,1.2,0.5,2.6,1.1,3.5v0.3
		c-0.2,0-0.3,0.2-0.5,0.3c-0.9,0.6-5.5,0.5-5.8,0.5l-0.3,0.3c0,0.6,0.5,1.1,0.6,1.4c1.1,1.1,2.8,1.7,4.3,1.4l-0.2,0.5
		c-2.3,0.5-4.3,0.8-6.3,0.5c0,0.6,0.3,0.9,0.6,1.4c2.1,1.7,2.3,1.5,5.8,1.8c-2,2.8-5.1,2.9-8.1,2.9c-0.2,2.1,2.1,4.1,6.3,2.9
		c0.9-0.2,1.5-0.8,2.3-1.1l0.2,0.2C79.8,34.2,78.8,34.5,78.3,35.1z M89.7,37.4c0.2,0,0.3,0,0.5,0c0.9,0.5,2,0.8,2.9,0.8l-0.2,0.3
		C91.5,38.9,90.3,38.1,89.7,37.4C89.7,37.5,89.7,37.4,89.7,37.4z M82.6,32.2h-0.2l-0.2-0.5c0-0.8,1.4-2.9,2.9-2.9h0.2
		c0.2,0.3,0.2,0.8,0.2,1.2c-0.2,0.2-0.2,0.2-0.2,0.2c0,0.2-0.2,0.2-0.3,0.3c0,0.2-0.2,0.2-0.2,0.5c-0.3,0.3-0.8,0.8-1.4,1.2
		C83.1,32.2,82.9,32.2,82.6,32.2z M84.3,35.8c-0.3,0-0.5-0.2-0.8-0.6v-2.1c0.3-0.5,0.8-0.5,1.2-0.9l0.2,0.2h0.3l0.2,0.2
		c0,0.8,0,1.4,0,2.5l-0.2,0.3v0.2C84.9,35.5,84.6,35.7,84.3,35.8z M86.9,38.6h-0.5c-0.3-0.2-0.8-0.3-1.2-0.9c0,0,0-0.2-0.2-0.2
		c0-0.2,0-0.3-0.2-0.5v-0.2c0.5-0.5,0.9-0.6,1.5-1.1h0.3l0.2,0.2C87.2,36.9,87.2,37.8,86.9,38.6z M87,33.1c-0.3,0.2-0.2,0-0.5,0.2
		c-0.6-0.8-0.3-1.8-0.5-2.9l0.2-0.8c0.5,0,0.5,0,0.5,0h0.2C88,30.6,87.5,32,87,33.1z M87.8,27.7c-0.2,0.2-0.3,0.6-0.5,0.9
		c-0.3,0-0.3,0-0.6,0c-0.2-0.3-0.6-0.6-0.8-1.4l-0.5-0.3c-0.3,0-0.8,0.5-0.9,0.6h-0.3l-0.2-0.2c-0.2-0.8-0.2-1.4,0-2
		c0.3-0.2,0.6-0.2,0.9-0.3c0.2-0.2,0.2-0.2,0.3-0.2c0.2,0,0.3-0.2,0.5-0.2c0.9,0,0.8,0.6,1.4,0.3c0.3-0.2,0.6-0.3,0.9-0.2l0.3,0.2
		C88.3,26,88,26.8,87.8,27.7z M93.6,21c2.6,0,4.3,0.6,5.2,1.4c0,0.3,0.3,0.8,0.3,0.9L99,23.4c-0.8,0-0.8-0.3-1.5-0.6
		c-0.9,0-2-0.2-3.1,0.3c-0.9,0-1.8,0.6-2.5,0.8l-0.3,0.5c0.5,0.6,0.3,0.3,0.9,0.6c0.6,0,1.2,0.2,1.8,0.3c0.2,0,0.3,0,0.5,0l0.2,0.2
		c-0.5,0.2-1.1,0-1.4,0.2c-0.8-0.2-1.7-0.3-2.6-0.5c-0.3,0.3-0.6,0.2-1.1,0.2l-0.2-0.2c0.2-0.3,0.5-0.5,0.5-0.5
		C91.2,23.6,92.9,22.5,93.6,21z M92.4,20.8V21c-0.3,0.5-1.4,1.8-2.3,2.3H90l0.2-0.2c0-0.2,0-0.2,0-0.2
		C90.9,22.2,91.3,21.4,92.4,20.8z M88,16.4c0.3,0.3,0.6,0.5,1.1,1.4L88.9,18c-0.3-0.2-0.6-0.5-1.1-1.1C87.8,16.8,87.8,16.7,88,16.4z
		 M86.9,19.4V19c0-0.2,0-0.2,0.2-0.3h0.3c0.3,0.3,0,0.9,1.2,0.9c0.2,0,0.3,0,0.5,0v0.2l-0.3,0.5c0-0.2-0.6,0-0.8,0
		c-0.3,0-0.3-0.3-0.8-0.5L86.9,19.4L86.9,19.4L86.9,19.4z M88.7,21.6c0.2,0,0.6-0.5,0.9-0.6c0-0.2,0.2-0.3,0.5-0.5
		c0-0.2,0.2-0.2,0.2-0.2h0.3c0,0.8-0.2,0.6-0.3,1.2l0,0c-1.2,0.6-1.4,0.6-1.8,0.8l-0.2,0.2c-0.3,0.3-0.5,0.9-0.8,1.2h-0.6
		c0,0,0,0,0-0.2c-0.3,0,0-0.6-0.3-0.8h-0.3c-0.8,0.6-1.1,0.9-1.4,0.9c-0.2,0.2-0.3,0.2-0.6,0.3L84,23.9l-0.2-0.2l0.2-0.5
		c0.8-0.9,0.9-0.9,1.7-1.7C86.6,20.6,88.1,22,88.7,21.6z M75.7,26.8v-0.2c1.7-0.3,4.6-0.6,5.8-1.7c0.3-0.2,0.2-0.9,0.2-1.4l-0.5-0.5
		c-0.2,0.2-0.3,0.2-0.5,0.2c-2.3,0.3-3.8,0.2-4.9-0.9c7.1-0.3,7.2-1.2,7.4-1.4l-0.2-0.3c-0.2-0.2-0.3-0.3-0.5-0.3
		c-0.6-0.6-1.1-1.1-1.4-2c0-0.3-0.2-0.8-0.2-1.2l0.2-0.6h0.3c0.8,1.1,1.2,2.1,2.3,2.8h0.5c0.2-0.8-0.5-1.8-0.3-2.6l0.3-0.3
		c0.2,0,0.3,0.2,0.5,0.2c0.2,0.2,0.2,0.2,0.3,0.3c0.3,0.3,0.6,0.6,0.8,0.9c-0.6,1.1,0,1.8-0.2,3.1c-0.2,0.2-0.3,0.3-0.6,0.5
		c-0.2,0-2.1,1.4-2.1,3.4l0.2,0.2v0.5c-0.5,0.8-1.2,0.8-1.8,1.4c-0.2,0-0.3,0-0.5,0C79.8,26.9,76.3,27.6,75.7,26.8z M75.1,33.5
		c-0.5-0.2-0.8-0.2-1.2-0.2c-0.3-0.3-0.5,0-0.8-0.8l0.2-0.2c0.9-0.3,4.9,0,8.9-5.1c0.5,0,0.3,0,0.5,0s0.2,0.6,0.3,0.9
		c-0.3,0.8-0.9,1.5-2.1,2.8C79.8,31.7,78.5,33.2,75.1,33.5z M82.1,33.8L82.1,33.8l0.5,0.5c0,0.2-0.3,0.8-0.3,0.9
		c-1.1,2-3.4,3.2-5.5,3.5c-0.3,0.3-2.6,0.3-3.5-0.5v-0.5C77.5,37.4,80.8,34.3,82.1,33.8z"/>
	<path class="st0" d="M57.6,40.7c0.6,0,0.8-0.2,1.1-0.3h0.2c0-0.2-0.8-2.5-2.3-5.2c-0.2,0-0.3,0-0.5,0l-0.5,0.3
		c0,0.2-0.5,0.3,0.6,2.8c0,0.2,0.2,0.3,0.2,0.6c0.3,0.8,0.5,0.9,0.6,1.7L57.6,40.7z M56.2,36.6l0.2-0.5c0.5,0.6,0.8,1.5,1.2,2.6
		c0.2,0.3,0.5,0.5,0,0.8c0,0.2,0,0.2,0,0.2l-0.3-0.3C56.8,38.8,56.5,37.4,56.2,36.6z"/>
	<path class="st0" d="M55.4,30.3c-0.2-0.2-0.2-0.3-0.2-0.5h-0.2c-0.3,0.2-0.8,0.5-0.8,0.5c-0.2,0.2-0.2,0.2-0.2,0.2
		c-0.2,0.8-0.3,1.2,0,1.8c0.3,0.2,0.2,0,0.3,0.2c0.2,0,0.3,0,0.3,0c0.3-0.2,0.5-0.5,0.6-0.6h0.2c0,0,0.2-0.2,0.2-0.3
		c0.2-0.3,0.2-0.8,0-1.1C55.4,30.5,55.4,30.3,55.4,30.3z M54.5,31.4L54.5,31.4v-0.3c0-0.2,0.2-0.3,0.2-0.5c0.3,0,0.3,0.5,0.3,0.8
		H54.5z"/>
	<path class="st0" d="M48.8,20.2c-0.2-0.2-0.3-0.3-0.6-0.3c0-0.2-0.2-0.2-0.2-0.2c-0.6,0.5-0.5,0.3-0.6,0.6c0,0.8-0.3,0.5,0.2,1.4
		l0.5,0.3c0.2-0.2,0.2-0.2,0.8-0.2c0.5-0.5,0.5-0.3,0.5-0.9C49,20.5,49,20.2,48.8,20.2z"/>
	<path class="st0" d="M59.7,40l0.3,0.3c0.6-0.2,1.2-0.3,1.7-0.5l0.2-0.2c-0.6-2-1.5-3.7-2.5-5.1c-0.2-0.2-0.2-0.3-0.3-0.6l-0.6-0.5
		h-0.2c-0.5,0.2-0.9,0.5-1.1,0.6c0,0.2-0.2,0.2-0.3,0.3c0.3,1.4,1.4,3.2,2.3,5.4C59.6,40,59.7,40,59.7,40z M58.7,34.9
		c0.2,0.2,0,0,0.3,0.2c0.3,0.5,1.5,3.1,1.8,4.4l-0.3,0.2C60,38.6,58.7,36.9,58.7,34.9z"/>
	<path class="st0" d="M57.4,28.2c-0.3,0-0.3,0-0.3,0c-0.3,0.2-0.6,0.2-0.6,0.3c-0.2,0-0.2,0.5-0.3,0.8c0,0.2,0.2,1.5,0.3,1.7
		l0.3,0.2l0.3-0.2l0.6-0.8h0.2c0-1.1,0.2-1.4-0.2-1.4C57.6,28.5,57.6,28.2,57.4,28.2z M56.8,29.7c-0.3,0,0-0.5,0-0.8
		c0,0,0.2,0,0.3,0l0.2,0.5C57,29.7,57.1,29.7,56.8,29.7z"/>
	<path class="st0" d="M41.3,24.9c-1.1,0.6-2.1,0.8-3.2,1.4l0,0l-0.2,0.5l0.2,0.2c0,0,3.2,0.6,4.3,0.6c0.5,0.2,0.8,0.3,1.1,0.5
		c0.5,0,0.6-0.2,1.1-0.2c0.3-0.3,0.5-0.3,0.8-0.8c0-0.2,0-0.2,0.2-0.3c1.2-2.9-2-4.8-2.3-7.7C43,19,42.7,19,42.4,19
		c-0.3,0.3-1.1,0.3-1.2,0.8c-1.1,0.9-2.3,1.5-2.1,4l0.5,0.3c0.8,0.2,1.4-0.2,2,0.2C41.5,24.5,41.6,24.8,41.3,24.9z M40.2,22.6
		l-0.2-0.2c0-0.8,0.2-0.6,0.5-1.2c0.3-0.3,0.8-0.8,1.2-0.9l0.5,0.2c0.5,1.8,1.8,3.8,2.5,4.4c0,1.5-0.5,1.5-0.6,2
		c-0.2,0.5-1.7,0.3-2,0l-0.2-0.3v-0.2c0.2-0.3,0.3-0.3,0.8-0.6l0.5-0.5c0.2-0.5,0-0.8,0-1.5l-0.5-0.6C41.8,22.8,41.2,22.9,40.2,22.6
		z"/>
	<path class="st0" d="M53.1,32.8c0-0.5,0.2-1.1,0-1.5l-0.3-0.2c-0.2,0.2-0.3,0.5-0.8,0.6l-0.2,0.6v0.9l0.2,0.2h0.5
		C53,33.2,52.8,33.4,53.1,32.8z"/>
	<path class="st0" d="M51.9,30.6l0.6,0.2c0.5-0.5,1.1-0.6,0.3-2.1h-0.2h-0.2l-0.8,0.6C51.8,29.7,51.6,30,51.9,30.6z"/>
	<path class="st0" d="M52.1,35.8c0.2,0,0.3,0,0.5,0c0.3-0.2,0.5-0.3,0.3-0.5v-1.1c-0.2-0.2-0.8,0-0.9,0.2
		C51.8,34.9,51.4,35.1,52.1,35.8z"/>
	<path class="st0" d="M54.4,26.9C54.4,26.9,54.4,27.1,54.4,26.9c-0.5,0.3-0.5,0.3-0.8,0.5c0,1.8,0.2,2,0.5,2.1
		c0.2-0.2,0.2-0.2,0.3-0.3h0.2c0.2-0.3,0.3-0.3,0.3-0.8c0-0.5-0.2-0.8-0.2-1.2C54.4,27.1,54.5,27.1,54.4,26.9z M54.2,28.6l-0.2-0.5
		h0.2C54.5,28.2,54.4,28.6,54.2,28.6z"/>
	<path class="st0" d="M38.1,20.5c-3.7,1.2-3.8,2.9-3.8,4.4c0.2,0.5,0.3,0.8,0.5,0.9c0.6,0.3,0.9,0.8,1.5,0.9l0,0
		c0.2,0,0.5,0.2,0.6-0.2c0.2-0.9-1.5-0.8,1.1-2.6c0.3-2,0.3-2.5,0.3-3.4L38.1,20.5L38.1,20.5z M37,22.9c-0.2,0.3-0.2,0.6-0.3,0.8
		c-0.2,0-0.3,0.3-0.6,0.5c-0.2,0.2-0.2,0.3-0.3,0.5h-0.5c-0.2-0.3,0-0.5-0.2-0.8c0.8-1.4,1.1-1.4,1.5-1.7h0.2l0.2,0.3
		C37,22.5,37,22.9,37,22.9z"/>
	<path class="st0" d="M47.6,36.6c0-0.2,0-0.3,0-0.6c-0.2-0.3-0.5-0.3-0.8-0.6l-0.5-0.2c-0.2,0.2-0.9,0.6-1.1,0.6
		c-0.2,0-0.2,0-0.2,0.2c-0.3,0.2-0.6,0.5-0.9,0.8c-1.1,0.9-2.3,1.4-3.4,2.3v0.2l0.2,0.3c0.9,0.3,2,0.3,2.8,0.5l0.3-0.2
		c0.2,0,0.2,0,0.2,0c0.5-0.5,1.7-1.7,1.8-1.7C46.5,37.5,47,37.1,47.6,36.6z M44.1,39.1c-0.2,0-0.3,0.2-0.6,0.2h-0.3L43,38.9l0.2-0.2
		c0.8-0.6,1.7-1.4,2.9-2l0.2-0.2l0.2,0.2c-0.2,0.2-0.2,0.3-0.3,0.6C45.5,37.8,44.1,38.9,44.1,39.1z"/>
	<path class="st0" d="M50.1,40.4c0.6-0.2,1.5,0.2,2.3,0c0,0,0.2,0,0.2-0.2c0.3-1.4,0.3-2.5,0.2-3.7c-0.2-0.2-0.3-0.2-1.2-0.2
		l-0.3,0.2c-0.3,0.5-1.7,2.9-1.7,3.5L50.1,40.4L50.1,40.4z M51.9,37.5h0.3c0,0.5-0.2,1.1-0.2,1.7l-0.5,0.3c-0.5,0-0.3,0-0.6,0
		C51.1,38.8,51.8,37.7,51.9,37.5z"/>
	<path class="st0" d="M46.1,40.3c0.2,0,0.9,0,1.5,0c0.5,0.2,0.6,0,0.8,0c0.9-1.4,1.5-2.3,2-3.5l-0.2-0.2c-0.6,0-1.2-0.6-1.7-0.2
		c-0.2,0-0.2,0.2-0.2,0.2c-0.3,0.3-1.7,2-2.3,2.8c-0.2,0.2-0.2,0.3-0.3,0.5l0.2,0.3C45.9,40.3,45.9,40.3,46.1,40.3z M47.6,39.2
		c0.3-0.6,1.1-1.4,1.4-1.8h0.2c0,0.5-0.3,0.6-0.3,1.2c-0.3,0.5-0.8,0.8-0.9,0.9h-0.2C47.6,39.4,47.6,39.4,47.6,39.2L47.6,39.2z"/>
	<path class="st0" d="M56.8,24.9l-0.2-0.2h-0.2l0,0c-0.3,0.2-0.5,0.5-0.8,0.8h-0.2v0.2l-0.2,0.5c0,0.8,0,0.8,0.2,1.1
		c0,0,0.2,0,0.2,0.2c0.2,0,0.2,0.2,0.2,0.2l0.3,0.2h0.2c0.2-0.2,0.5-0.3,0.8-0.3c0.2-0.2,0,0,0.3-0.5C57.4,25.9,56.8,25.1,56.8,24.9
		z M56.5,26.8l-0.2,0.2l0,0l-0.5-0.2c0-0.3,0.2-0.5,0.2-0.8h0.2l0.2-0.2l0.2,0.3C56.7,26.3,56.5,26.5,56.5,26.8z"/>
	<path class="st0" d="M82.6,37.7L82.6,37.7c-0.8,0.6-1.4,0.9-1.8,1.5c-0.2,0.2-0.3,0.3-0.5,0.6l0.3,0.2c0.2,0,2.3-0.2,3.2-0.3
		l0.2-0.2c-0.3-0.6-0.6-1.2-1.1-1.7L82.6,37.7L82.6,37.7z"/>
</g>
</svg>
